<svg width="77" height="59" viewBox="0 0 77 59" fill="none" xmlns="http://www.w3.org/2000/svg">
<path d="M29.1837 8.72422L27.1773 10.7316L24.4078 13.498L11.027 26.8708L8.72627 29.1724C8.5624 29.3362 8.34015 29.4282 8.10841 29.4282C7.87668 29.4282 7.65442 29.3362 7.49055 29.1724L0.466419 22.1514C0.318555 22.0038 0.201256 21.8285 0.121223 21.6356C0.0411892 21.4426 0 21.2358 0 21.0269C0 20.818 0.0411892 20.6112 0.121223 20.4182C0.201256 20.2252 0.318555 20.0499 0.466419 19.9023L19.9112 0.466215C20.0589 0.318418 20.2343 0.201171 20.4274 0.121174C20.6204 0.0411765 20.8273 0 21.0363 0C21.2453 0 21.4522 0.0411765 21.6453 0.121174C21.8383 0.201171 22.0137 0.318418 22.1614 0.466215L29.1855 7.48721C29.2668 7.56847 29.3313 7.66496 29.3752 7.77116C29.4191 7.87737 29.4416 7.99119 29.4414 8.1061C29.4413 8.22102 29.4184 8.33477 29.3742 8.44084C29.3299 8.54691 29.2652 8.64321 29.1837 8.72422Z" fill="#7AABDB"/>
<path d="M76.763 21.3603L69.4501 29.1047C69.2904 29.273 69.0706 29.3712 68.8386 29.3779C68.6067 29.3845 68.3816 29.2991 68.2125 29.1403L66.433 27.4535L63.551 24.7321L48.2407 10.3002L47.1682 9.29188C47.0007 9.1321 46.9031 8.91262 46.8968 8.68127C46.8905 8.44991 46.9759 8.22543 47.1344 8.05674L54.4473 0.314163C54.526 0.230558 54.6204 0.163268 54.725 0.116133C54.8297 0.0689977 54.9427 0.0429457 55.0574 0.0394645C55.1722 0.0359832 55.2865 0.0551415 55.3938 0.0958445C55.5012 0.136548 55.5995 0.197998 55.683 0.276682L76.7254 20.1251C76.8939 20.2842 76.9925 20.5034 76.9995 20.735C77.0065 20.9665 76.9215 21.1913 76.763 21.3603Z" fill="#F1636F"/>
<path d="M58.3195 42.3496C57.9445 43.1799 57.217 43.671 56.5288 43.9558C56.008 44.1691 55.4581 44.3031 54.8975 44.3532C54.8965 44.4163 54.8889 44.4791 54.875 44.5406L49.8309 39.4989C49.726 39.3953 49.5928 39.3249 49.448 39.2966C49.3032 39.2683 49.1533 39.2833 49.0171 39.3397C48.8808 39.3961 48.7642 39.4915 48.6818 39.6138C48.5994 39.7361 48.555 39.88 48.554 40.0274C48.5532 40.1255 48.572 40.2229 48.6094 40.3136C48.6467 40.4044 48.7018 40.4868 48.7715 40.5559L54.8918 46.6735C54.9706 48.0605 53.9974 49.0182 53.9974 49.0182C52.938 50.4745 50.7104 49.5805 50.7104 49.5805C50.6849 49.5695 50.6586 49.5607 50.6316 49.5543L45.2069 44.1301C45.0642 44.0009 44.8773 43.9315 44.6849 43.9362C44.4924 43.941 44.3091 44.0195 44.173 44.1556C44.0368 44.2917 43.9582 44.4749 43.9535 44.6673C43.9488 44.8597 44.0182 45.0465 44.1475 45.1891L50.3128 51.3517C50.3076 51.6083 50.25 51.8612 50.1436 52.0949C50.0372 52.3285 49.8842 52.538 49.6941 52.7105C48.8878 53.9794 47.0295 53.7957 46.1445 53.6214L42.7955 50.2759C42.655 50.1362 42.4649 50.0578 42.2668 50.0578C42.0686 50.0578 41.8785 50.1362 41.738 50.2759C41.5983 50.4163 41.5199 50.6063 41.5199 50.8044C41.5199 51.0025 41.5983 51.1925 41.738 51.333L45.5688 55.1639C45.9157 56.6877 45.1057 57.4955 45.1057 57.4955C42.1055 59.7015 39.8122 57.4955 39.8122 57.4955C39.8122 57.4955 38.6384 56.504 36.799 54.9596L36.8777 54.8716C37.4869 54.1888 37.7998 53.2921 37.7476 52.3788C37.6954 51.4654 37.2823 50.6102 36.5992 50.0013C35.9162 49.3924 35.0191 49.0796 34.1053 49.1318C33.1916 49.184 32.336 49.5969 31.7268 50.2796L31.5018 50.5326L31.4549 50.4952L32.3793 49.4587C32.6891 49.1218 32.9287 48.7268 33.0843 48.2965C33.2399 47.8662 33.3083 47.4093 33.2856 46.9523C33.2629 46.4953 33.1494 46.0474 32.9519 45.6347C32.7544 45.2219 32.4767 44.8526 32.135 44.5481C31.7934 44.2436 31.3945 44.0101 30.9618 43.8611C30.529 43.7122 30.0708 43.6507 29.6141 43.6804C29.1573 43.71 28.711 43.8302 28.3011 44.0339C27.8912 44.2375 27.5259 44.5207 27.2265 44.8667L26.1352 46.0906L26.0902 46.0531L28.6029 43.2418C29.2121 42.5585 29.5248 41.6614 29.4722 40.7476C29.4196 39.8339 29.0061 38.9785 28.3225 38.3696C27.639 37.7607 26.7414 37.4481 25.8273 37.5007C24.9132 37.5532 24.0574 37.9666 23.4482 38.6498L20.733 41.6936L20.6862 41.6561L21.3143 40.9533C21.9235 40.2705 22.2365 39.3739 22.1842 38.4605C22.132 37.5472 21.7189 36.6919 21.0359 36.083C20.3528 35.4741 19.4557 35.1613 18.542 35.2135C17.6282 35.2657 16.7726 35.6786 16.1634 36.3613L15.209 37.4315L15.0215 37.3041C11.2281 34.8338 11.0312 26.8776 11.0312 26.8776L24.412 13.5047L27.1815 10.7383L35.8464 15.2365L32.7187 17.5662L29.3192 20.1002C25.2614 23.8937 26.9378 26.8045 26.9378 26.8045C27.0072 26.9169 30.2773 32.0524 34.9857 27.5954C36.8027 26.6034 38.7198 25.8068 40.7048 25.2188C42.0269 24.8189 43.3856 24.5515 44.7606 24.4204L57.4382 36.6968C60.174 39.9243 58.3195 42.3496 58.3195 42.3496Z" fill="#FBBB83"/>
<path d="M48.4578 10.1328L48.2422 10.3052" stroke="#EC008C" stroke-miterlimit="10"/>
<path d="M66.4378 27.4636C66.1397 28.0802 62.7233 34.8707 57.4373 36.7018L44.7541 24.4198C43.379 24.5508 42.0204 24.8183 40.6983 25.2182C39.3115 25.6213 37.96 26.1372 36.6574 26.7607C35.9876 27.0846 35.3354 27.4437 34.7036 27.8365C34.096 28.2114 33.5204 28.7737 32.8622 29.0492C32.1336 29.3709 31.329 29.4807 30.5408 29.3659C29.3389 29.1785 28.2907 28.4288 27.4994 27.5404C27.2918 27.3102 27.1037 27.0632 26.9369 26.8019C26.9369 26.8019 25.2605 23.8912 29.3183 20.0977L32.7197 17.5637L35.8511 15.2265L36.7343 14.5686C36.7343 14.5686 38.2344 12.8649 44.9398 12.953L48.2531 10.3047L63.5633 24.7365L66.4378 27.4636Z" fill="#FEE4C1"/>
<path d="M50.0581 49.9305C50.0788 50.0801 50.1211 50.2259 50.1837 50.3634C50.2828 50.6822 50.3265 51.0157 50.3131 51.3493L44.1571 45.1867C44.0278 45.0441 43.9584 44.8572 43.9631 44.6649C43.9679 44.4725 44.0464 44.2893 44.1826 44.1532C44.3187 44.0171 44.502 43.9386 44.6945 43.9338C44.8869 43.9291 45.0739 43.9985 45.2165 44.1277L50.6412 49.5519C50.5378 49.5301 50.4302 49.5423 50.3343 49.5865C50.2384 49.6307 50.1592 49.7047 50.1087 49.7974C50.0796 49.8361 50.062 49.8822 50.0581 49.9305Z" fill="#F5AA6C"/>
<path d="M54.8912 46.6827L48.7708 40.5651C48.6312 40.4246 48.5527 40.2346 48.5527 40.0365C48.5527 39.8385 48.6312 39.6485 48.7708 39.508C48.9115 39.3678 49.102 39.2891 49.3006 39.2891C49.4992 39.2891 49.6897 39.3678 49.8303 39.508L54.8743 44.5498C54.8426 44.6815 54.7807 44.8041 54.6935 44.9078C54.6062 45.0116 54.4961 45.0937 54.3718 45.1477C54.6748 45.6058 54.8538 46.1347 54.8912 46.6827Z" fill="#F5AA6C"/>
<path d="M45.1297 53.9652C45.1324 54.0298 45.1471 54.0933 45.1728 54.1526C45.2928 54.4431 45.4597 54.6774 45.5122 54.9979C45.517 55.0507 45.5317 55.1022 45.5553 55.1497C45.2834 54.8817 45.0134 54.608 44.7434 54.3381L43.2902 52.8856L42.0414 51.6373L41.7376 51.3337C41.5979 51.1932 41.5195 51.0032 41.5195 50.8051C41.5195 50.6071 41.5979 50.4171 41.7376 50.2766C41.8782 50.137 42.0683 50.0586 42.2664 50.0586C42.4646 50.0586 42.6547 50.137 42.7952 50.2766L43.8771 51.3581L45.6566 53.1348L46.1441 53.624C46.0822 53.5603 45.9304 53.5697 45.8497 53.5528C45.7055 53.5163 45.5535 53.5255 45.4147 53.5791C45.3499 53.6034 45.2916 53.6422 45.2442 53.6926C45.1967 53.743 45.1614 53.8035 45.1409 53.8696C45.1336 53.9009 45.1299 53.933 45.1297 53.9652Z" fill="#F5AA6C"/>
<path d="M66.4699 27.418L66.4473 27.4633" stroke="#EC008C" stroke-miterlimit="10"/>
<path d="M63.6277 24.5898L63.5527 24.7435" stroke="#EC008C" stroke-miterlimit="10"/>
<path d="M37.752 52.5786C37.7519 53.4249 37.4402 54.2415 36.8763 54.8727L36.7976 54.9608L34.4893 57.5492C34.1877 57.8872 33.8224 58.1626 33.4142 58.3595C33.0061 58.5565 32.5632 58.6711 32.1108 58.697C31.6583 58.7228 31.2052 58.6593 30.7773 58.5102C30.3494 58.361 29.9551 58.129 29.6169 57.8275C29.2786 57.526 29.0032 57.1608 28.8061 56.7529C28.6091 56.345 28.4944 55.9022 28.4685 55.45C28.4427 54.9977 28.5062 54.5448 28.6554 54.1171C28.8047 53.6894 29.0368 53.2953 29.3384 52.9572L31.5004 50.5338L31.7254 50.2808C32.1912 49.7595 32.8045 49.3919 33.4839 49.2267C34.1633 49.0615 34.8769 49.1064 35.5303 49.3555C36.1836 49.6046 36.7459 50.0462 37.1426 50.6217C37.5393 51.1973 37.7518 51.8797 37.752 52.5786Z" fill="#FEE4C1"/>
<path d="M33.2552 47.1648C33.2553 48.0116 32.9436 48.8288 32.3796 49.4607L31.4551 50.4972L29.4525 52.7463C29.1509 53.0843 28.7856 53.3595 28.3775 53.5563C27.9695 53.7532 27.5266 53.8677 27.0742 53.8935C26.6219 53.9192 26.1689 53.8557 25.7411 53.7065C25.3133 53.5572 24.9191 53.3252 24.581 53.0237C24.2429 52.7222 23.9675 52.3571 23.7706 51.9492C23.5737 51.5413 23.4591 51.0987 23.4333 50.6465C23.4075 50.1943 23.4711 49.7415 23.6204 49.3139C23.7697 48.8863 24.0018 48.4923 24.3035 48.1544L26.1355 46.0927L27.2268 44.8688C27.6923 44.347 28.3055 43.9788 28.9851 43.8131C29.6647 43.6474 30.3786 43.692 31.0323 43.941C31.686 44.1899 32.2486 44.6315 32.6455 45.2072C33.0425 45.7829 33.2551 46.4656 33.2552 47.1648Z" fill="#FEE4C1"/>
<path d="M29.478 40.9387C29.4789 41.7857 29.1671 42.6032 28.6023 43.2346L26.0897 46.046L23.5733 48.8574C23.2716 49.1955 22.9063 49.4709 22.4982 49.6678C22.0901 49.8647 21.6472 49.9794 21.1947 50.0053C20.7423 50.0311 20.2892 49.9676 19.8613 49.8184C19.4334 49.6692 19.0391 49.4373 18.7008 49.1358C18.3626 48.8342 18.0871 48.4691 17.8901 48.0612C17.6931 47.6532 17.5784 47.2105 17.5525 46.7583C17.5266 46.306 17.5902 45.8531 17.7394 45.4254C17.8887 44.9977 18.1207 44.6035 18.4224 44.2655L20.7325 41.6734L23.4477 38.6296C23.9135 38.108 24.5268 37.7402 25.2064 37.5747C25.886 37.4092 26.5999 37.4538 27.2535 37.7027C27.9072 37.9516 28.4698 38.3929 28.8671 38.9684C29.2643 39.5439 29.4773 40.2264 29.478 40.9255V40.9387Z" fill="#FEE4C1"/>
<path d="M22.1902 38.6545C22.1901 39.5008 21.8784 40.3174 21.3145 40.9486L20.6864 41.6515L19.0288 43.5126C18.4153 44.1797 17.564 44.5788 16.6587 44.6238C15.7533 44.6688 14.8666 44.3561 14.19 43.7531C13.5133 43.1502 13.1012 42.3054 13.0424 41.4012C12.9837 40.497 13.2831 39.6061 13.876 38.9207L15.2092 37.4213L16.1636 36.3511C16.6294 35.8298 17.2427 35.4622 17.9221 35.297C18.6015 35.1318 19.3151 35.1767 19.9685 35.4258C20.6218 35.6749 21.1841 36.1165 21.5808 36.692C21.9775 37.2676 22.19 37.95 22.1902 38.6489V38.6545Z" fill="#FEE4C1"/>
</svg>
