<svg width="77" height="77" viewBox="0 0 77 77" fill="none" xmlns="http://www.w3.org/2000/svg">
<mask id="mask0_2277_2269" style="mask-type:alpha" maskUnits="userSpaceOnUse" x="0" y="0" width="77" height="77">
<rect width="77" height="77" fill="#D9D9D9"/>
</mask>
<g mask="url(#mask0_2277_2269)">
<path d="M62.9401 28.7386V59.5213C62.9401 59.7649 62.8921 60.006 62.7988 60.231C62.7056 60.456 62.5689 60.6605 62.3967 60.8327C62.2244 61.0049 62.0198 61.1415 61.7947 61.2347C61.5696 61.3279 61.3284 61.3759 61.0847 61.3759H17.4608C17.2172 61.3759 16.9759 61.3279 16.7508 61.2347C16.5257 61.1415 16.3212 61.0049 16.1489 60.8327C15.9766 60.6605 15.8399 60.456 15.7467 60.231C15.6535 60.006 15.6055 59.7649 15.6055 59.5213V15.917C15.6055 15.4252 15.8009 14.9535 16.1489 14.6057C16.4968 14.2579 16.9687 14.0625 17.4608 14.0625H48.2618C48.7706 15.0228 49.556 15.8084 50.5163 16.3175L51.0418 16.8413L41.8209 26.0566C41.4314 26.4459 41.1224 26.908 40.9116 27.4167C40.7007 27.9253 40.5922 28.4705 40.5922 29.0211C40.5922 29.5716 40.7007 30.1168 40.9116 30.6254C41.1224 31.1341 41.4314 31.5962 41.8209 31.9855L45.5727 35.7356C46.3593 36.5211 47.4258 36.9624 48.5377 36.9624C49.6497 36.9624 50.7161 36.5211 51.5027 35.7356L58.723 28.5185L60.7119 26.5291C61.2226 27.4657 61.9981 28.2311 62.9415 28.7298L62.9401 28.7386Z" fill="#FED203"/>
<path d="M13.9737 65.2066H53.8767C54.2332 65.207 54.5749 65.3487 54.827 65.6007C55.0791 65.8526 55.2209 66.1942 55.2213 66.5505V69.6228C55.2213 69.9792 55.0796 70.3211 54.8274 70.5731C54.5753 70.8251 54.2333 70.9667 53.8767 70.9667H7.85729C7.61365 70.9667 7.37238 70.9188 7.14728 70.8256C6.92218 70.7324 6.71765 70.5958 6.54537 70.4236C6.37308 70.2514 6.23642 70.0469 6.14318 69.8219C6.04994 69.5969 6.00195 69.3558 6.00195 69.1122V23.1135C6.00195 22.757 6.14362 22.4152 6.39577 22.1632C6.64792 21.9111 6.9899 21.7695 7.34649 21.7695H10.4187C10.7752 21.7695 11.1172 21.9111 11.3694 22.1632C11.6215 22.4152 11.7632 22.757 11.7632 23.1135V62.9985C11.7632 63.2886 11.8204 63.5759 11.9315 63.8439C12.0426 64.1119 12.2055 64.3553 12.4107 64.5604C12.616 64.7655 12.8597 64.9281 13.1279 65.039C13.3961 65.1498 13.6835 65.2068 13.9737 65.2066V65.2066Z" fill="#34C4E8"/>
<path d="M71.0005 8.52402V23.966C71.0005 24.6333 70.7352 25.2733 70.2631 25.7452C69.791 26.2171 69.1508 26.4822 68.4831 26.4822H65.4535C64.7861 26.4818 64.1462 26.2165 63.6744 25.7447C63.2027 25.2729 62.9376 24.6331 62.9376 23.966V20.2247L59.0963 24.0643L58.6795 24.481L49.4586 33.6977C49.3367 33.8197 49.192 33.9164 49.0327 33.9825C48.8734 34.0485 48.7026 34.0824 48.5302 34.0824C48.3577 34.0824 48.1869 34.0485 48.0276 33.9825C47.8683 33.9164 47.7236 33.8197 47.6018 33.6977L43.8558 29.9447C43.6116 29.6976 43.4746 29.3641 43.4746 29.0167C43.4746 28.6693 43.6116 28.3359 43.8558 28.0887L50.511 21.4351L57.8883 14.0611H53.0283C52.3607 14.0611 51.7204 13.796 51.2483 13.3241C50.7762 12.8523 50.511 12.2123 50.511 11.5449V8.52402C50.511 7.85668 50.7762 7.21667 51.2483 6.74479C51.7204 6.27291 52.3607 6.00781 53.0283 6.00781H68.4831C69.1508 6.00781 69.791 6.27291 70.2631 6.74479C70.7352 7.21667 71.0005 7.85668 71.0005 8.52402V8.52402Z" fill="#C53E3F"/>
</g>
</svg>
