<svg width="67" height="77" viewBox="0 0 67 77" fill="none" xmlns="http://www.w3.org/2000/svg">
<path d="M53.0699 27.2603C53.0699 31.2188 51.8956 35.0883 49.6954 38.3796C47.4952 41.671 44.368 44.2362 40.7092 45.7511C37.0505 47.2659 33.0245 47.6622 29.1403 46.89C25.2562 46.1177 21.6884 44.2116 18.8881 41.4125C16.0878 38.6135 14.1808 35.0473 13.4082 31.1649C12.6356 27.2825 13.0321 23.2583 14.5476 19.6012C16.0631 15.9441 18.6296 12.8183 21.9224 10.6191C25.2152 8.41991 29.0864 7.24609 33.0467 7.24609C38.3572 7.24609 43.4502 9.35473 47.2052 13.1081C50.9603 16.8615 53.0699 21.9522 53.0699 27.2603Z" fill="#FED203"/>
<path d="M33.051 0C27.6575 0 22.3852 1.59862 17.9007 4.59371C13.4162 7.5888 9.92102 11.8458 7.85704 16.8265C5.79306 21.8071 5.25304 27.2877 6.30525 32.5751C7.35745 37.8626 9.95464 42.7194 13.7684 46.5314C17.5821 50.3435 22.4411 52.9395 27.7309 53.9912C33.0207 55.0429 38.5038 54.5032 43.4867 52.4401C48.4696 50.377 52.7285 46.8834 55.7249 42.4009C58.7213 37.9184 60.3207 32.6485 60.3207 27.2575C60.3207 20.0283 57.4477 13.0953 52.3336 7.98353C47.2195 2.87176 40.2833 0 33.051 0ZM33.051 47.2717C29.0907 47.2717 25.2195 46.0979 21.9267 43.8987C18.6339 41.6995 16.0674 38.5737 14.5519 34.9166C13.0364 31.2595 12.6399 27.2353 13.4125 23.3529C14.1851 19.4705 16.0921 15.9043 18.8924 13.1053C21.6927 10.3062 25.2605 8.40007 29.1447 7.62781C33.0288 6.85556 37.0548 7.25191 40.7135 8.76674C44.3723 10.2816 47.4995 12.8468 49.6997 16.1382C51.8999 19.4295 53.0742 23.299 53.0742 27.2575C53.0737 32.5653 50.9639 37.6555 47.2088 41.4084C43.4538 45.1614 38.3611 47.2698 33.051 47.2698V47.2717Z" fill="#34C4E8"/>
<path d="M33.0502 16.8242L36.7116 22.6893L43.1915 23.772L38.9084 28.768L39.3108 35.2087L33.0502 32.7937L26.8564 35.5404L27.3083 29.0081L23.0996 23.7396L29.4346 22.6817L33.0502 16.8242Z" fill="white"/>
<path d="M33.1437 55.7422L33.0957 55.8248" stroke="#EC008C" stroke-width="0.5" stroke-miterlimit="10"/>
<path d="M12.0834 43.9062L11.8164 44.3694" stroke="#EC008C" stroke-width="0.5" stroke-miterlimit="10"/>
<path d="M66.2006 64.8371L51.2976 63.3122L45.3383 76.9981L33.105 55.825L20.8642 76.9943L14.903 63.3084L0 64.8333L11.8232 44.3616C14.3837 47.5382 17.6249 50.0999 21.3077 51.8577C24.9906 53.6156 29.0212 54.5247 33.1024 54.5181C37.1836 54.5115 41.2113 53.5894 44.8885 51.8197C48.5656 50.05 51.7985 47.4779 54.3487 44.293L66.2006 64.8371Z" fill="#0F85B0"/>
<path d="M33.0968 55.8248L33.0488 55.7422" stroke="#EC008C" stroke-width="0.5" stroke-miterlimit="10"/>
<path d="M54.3382 44.3008L54.1094 43.9062" stroke="#EC008C" stroke-width="0.5" stroke-miterlimit="10"/>
</svg>
