<svg width="72" height="77" viewBox="0 0 72 77" fill="none" xmlns="http://www.w3.org/2000/svg">
<path d="M29.8887 73.4683L42.7748 71.9766C41.7767 74.8196 39.886 76.9999 35.9967 76.9999C33.1008 76.9999 31.1117 75.5456 29.8887 73.4683Z" fill="#685E76"/>
<path d="M43.9153 65.7969C43.7958 66.9865 43.6575 68.2324 43.4279 69.4432L28.8549 71.127C28.5632 70.1606 28.3754 69.166 28.2949 68.1598C28.2785 67.9748 28.2644 67.7898 28.248 67.6048L43.9153 65.7969Z" fill="#685E76"/>
<path d="M44.5038 59.6758C44.3867 60.8873 44.2703 62.0973 44.1547 63.3057L28.0284 65.1792C27.9191 63.9958 27.8035 62.8131 27.6816 61.6312L44.5038 59.6758Z" fill="#685E76"/>
<path d="M39.6663 34.2471C39.6663 35.1538 39.3973 36.04 38.8933 36.7938C38.3892 37.5476 37.6729 38.135 36.8348 38.4818C35.9967 38.8285 35.0745 38.919 34.185 38.7418C33.2954 38.5646 32.4785 38.1276 31.8374 37.4862C31.1964 36.8448 30.76 36.0277 30.5836 35.1384C30.4072 34.249 30.4987 33.3274 30.8465 32.49C31.1942 31.6527 31.7826 30.9372 32.5373 30.4342C33.2919 29.9311 34.1788 29.6631 35.0859 29.6641C36.3005 29.6672 37.4645 30.1512 38.323 31.0101C39.1814 31.8691 39.6645 33.033 39.6663 34.2471Z" fill="#FED203"/>
<path d="M53.3153 23.3131C52.8387 22.5643 52.297 21.859 51.6964 21.2054C48.1462 17.3362 43.3082 14.8913 38.0862 14.3273C37.308 14.245 36.5259 14.2036 35.7433 14.2032C32.5119 14.1941 29.3211 14.9217 26.4134 16.3306C23.5056 17.7396 20.9576 19.7929 18.9632 22.3342L18.9516 22.3506C18.6235 22.8377 11.0231 34.3598 18.3049 45.8467C18.3049 45.8467 20.2894 48.9871 22.5222 51.3829C23.3239 52.3586 24.0573 53.3883 24.7175 54.4648C25.6336 55.9659 26.5052 57.7715 26.5708 59.2961L27.4353 59.1954L44.7401 57.1837L45.7195 57.0713C46.1186 56.0846 46.608 55.1367 47.1815 54.24C47.8062 53.2403 48.4949 52.282 49.2433 51.3712C50.7932 49.64 52.2034 47.7888 53.4606 45.835C55.5837 42.4979 56.6742 38.6087 56.5954 34.6548C56.5046 31.6688 55.8587 28.7257 54.6906 25.9758C54.3098 25.0503 53.8496 24.1594 53.3153 23.3131ZM48.182 35.7789C48.1446 36.2436 47.937 36.6782 47.5989 36.9993C47.2607 37.3204 46.816 37.5054 46.3498 37.519H46.0522C45.115 37.519 45.0963 37.5494 44.7285 38.4182C44.6367 38.5816 44.6058 38.7722 44.6414 38.9562C44.677 39.1402 44.7768 39.3055 44.9229 39.4229C45.065 39.5524 45.2003 39.6892 45.3282 39.8327C45.6909 40.197 45.8946 40.69 45.8946 41.2039C45.8946 41.7178 45.6909 42.2108 45.3282 42.5751C44.7144 43.2285 44.0771 43.8631 43.4234 44.4767C43.0728 44.8241 42.6024 45.0242 42.1088 45.036C41.6151 45.0478 41.1357 44.8703 40.7689 44.5399C40.6517 44.4439 40.5346 44.3362 40.4315 44.2284C39.8481 43.6523 39.8317 43.6477 39.0609 43.9708C38.4541 44.2261 38.4189 44.3221 38.3768 44.9755C38.3701 45.4313 38.2862 45.8827 38.1284 46.3104C37.9892 46.6319 37.7562 46.904 37.4598 47.0912C37.1635 47.2784 36.8176 47.3719 36.4673 47.3595C35.5582 47.3806 34.6468 47.3759 33.7354 47.3595C33.2303 47.3511 32.7482 47.1473 32.3903 46.791C32.0325 46.4346 31.8268 45.9534 31.8166 45.4486C31.8166 45.383 31.8166 45.3198 31.8166 45.2565C31.8166 44.2355 31.7673 44.1816 30.7974 43.8209C30.6628 43.7602 30.5126 43.7434 30.3679 43.7728C30.2232 43.8022 30.0915 43.8764 29.9914 43.9849C29.7805 44.1886 29.5767 44.4064 29.3471 44.5891C29.0074 44.88 28.5749 45.0399 28.1276 45.0399C27.6804 45.0399 27.2478 44.88 26.9081 44.5891C26.1522 43.915 25.4349 43.1988 24.7597 42.4439C24.1107 41.7179 24.1529 40.7016 24.7597 39.9428C24.8323 39.8538 24.912 39.7695 24.994 39.6875C25.6969 38.9639 25.6969 38.9639 25.2845 38.0271C25.2286 37.8664 25.1211 37.7287 24.9786 37.6355C24.8362 37.5423 24.667 37.4989 24.4972 37.5119C24.1894 37.5331 23.8802 37.5237 23.5741 37.4838C23.2369 37.4281 22.9206 37.2838 22.6575 37.0657C22.3944 36.8476 22.1941 36.5636 22.077 36.2426C22.0395 36.1536 21.9926 36.067 21.9505 35.978V32.5237C22.2129 31.8071 22.6182 31.217 23.4102 31.0366C23.7484 30.9679 24.0939 30.9412 24.4387 30.957C24.6315 30.9825 24.8271 30.9373 24.9891 30.8296C25.1511 30.7219 25.2686 30.5592 25.3196 30.3715C25.3593 30.2503 25.4078 30.1321 25.4649 30.0179C25.5535 29.8657 25.5832 29.6861 25.5483 29.5135C25.5133 29.3408 25.4161 29.1869 25.2751 29.0812C25.1095 28.9239 24.9531 28.7574 24.8065 28.5823C24.4678 28.2141 24.2845 27.7293 24.2949 27.2292C24.3054 26.729 24.5089 26.2523 24.8628 25.8986C25.4766 25.2452 26.1092 24.6082 26.7652 23.9946C27.1267 23.6392 27.6135 23.44 28.1206 23.44C28.6277 23.44 29.1145 23.6392 29.476 23.9946C29.5908 24.0953 29.6985 24.2054 29.8087 24.3154C30.2772 24.7838 30.4061 24.8119 31.0293 24.5496C31.7791 24.2382 31.8072 24.1937 31.8095 23.2686C31.8095 22.189 32.3367 21.4349 33.2692 21.182C33.4173 21.1413 33.5701 21.1201 33.7237 21.1188C34.6983 21.1188 35.6731 21.0977 36.6454 21.1469C37.0834 21.1852 37.4941 21.3763 37.8055 21.6867C38.1168 21.997 38.3091 22.407 38.3487 22.8447C38.3768 23.1492 38.3768 23.4583 38.3861 23.7651C38.3819 23.9073 38.423 24.0472 38.5034 24.1647C38.5838 24.2821 38.6994 24.3709 38.8336 24.4185C38.9742 24.477 39.1171 24.5356 39.2554 24.6011C39.4223 24.7009 39.6201 24.7357 39.8111 24.699C40.0021 24.6623 40.1729 24.5566 40.2909 24.4021C40.4703 24.2008 40.668 24.0166 40.8813 23.8518C41.2256 23.5761 41.6561 23.4306 42.097 23.4409C42.538 23.4511 42.9612 23.6165 43.2922 23.908C44.0396 24.5871 44.7589 25.3131 45.4383 26.0531C45.7285 26.3858 45.8918 26.8102 45.8995 27.2515C45.9073 27.6928 45.7589 28.1226 45.4805 28.4653C45.2938 28.6933 45.0918 28.9085 44.8761 29.1093C44.754 29.2153 44.6707 29.359 44.6394 29.5175C44.608 29.6761 44.6302 29.8406 44.7027 29.9851C44.7613 30.128 44.8315 30.2662 44.8784 30.4114C44.9237 30.5804 45.0279 30.7278 45.1722 30.8269C45.3165 30.9261 45.4915 30.9706 45.6656 30.9523C45.9221 30.9488 46.1786 30.9582 46.4341 30.9804C46.8936 31.0048 47.3279 31.1985 47.6529 31.5242C47.9779 31.8499 48.1705 32.2844 48.1936 32.7439C48.2381 33.7649 48.2382 34.7696 48.189 35.7789H48.182Z" fill="#FED203"/>
<path d="M69.2739 30.9453H64.0937C62.7389 30.9453 61.6406 32.0431 61.6406 33.3973C61.6406 34.7514 62.7389 35.8492 64.0937 35.8492H69.2739C70.6287 35.8492 71.727 34.7514 71.727 33.3973C71.727 32.0431 70.6287 30.9453 69.2739 30.9453Z" fill="black"/>
<path d="M56.0166 8.76898L52.3537 12.4303C51.3957 13.3878 51.3957 14.9403 52.3537 15.8979C53.3117 16.8554 54.8649 16.8554 55.8228 15.8979L59.4858 12.2366C60.4438 11.279 60.4438 9.72653 59.4858 8.76898C58.5278 7.81144 56.9746 7.81143 56.0166 8.76898Z" fill="black"/>
<path d="M30.9551 2.45217V7.63009C30.9551 8.98426 32.0533 10.082 33.4081 10.082C34.7629 10.082 35.8612 8.98426 35.8612 7.63009V2.45217C35.8612 1.098 34.7629 0.000232697 33.4081 0.000232697C32.0533 0.000232697 30.9551 1.098 30.9551 2.45217Z" fill="black"/>
<path d="M8.77046 15.7026L12.4334 19.3639C13.3914 20.3214 14.9446 20.3214 15.9025 19.3639C16.8605 18.4063 16.8605 16.8538 15.9025 15.8963L12.2396 12.235C11.2816 11.2775 9.7284 11.2774 8.77043 12.235C7.81245 13.1925 7.81249 14.745 8.77046 15.7026Z" fill="black"/>
<path d="M2.45265 40.7539H7.6329C8.98768 40.7539 10.0859 39.6561 10.0859 38.302C10.0859 36.9478 8.98768 35.85 7.6329 35.85H2.45265C1.09787 35.85 -0.000390053 36.9478 -0.000390053 38.302C-0.000390053 39.6561 1.09787 40.7539 2.45265 40.7539Z" fill="black"/>
</svg>
