<svg width="76" height="77" viewBox="0 0 76 77" fill="none" xmlns="http://www.w3.org/2000/svg">
<path d="M36.7352 27.4273L28.3079 31.1636C31.7069 52.3609 28.1712 69.9798 28.1712 69.9798C30.2741 69.6602 32.5754 69.8989 34.1893 71.4119C35.2324 72.4092 35.8973 73.7371 36.0708 75.1694C36.1516 75.9394 35.9032 76.6304 35.1945 77H20.1964C18.7463 76.5014 19.3356 70.205 19.3356 70.205C20.0616 66.7632 18.702 58.8826 18.702 58.8826L17.2635 51.3753C16.99 49.8816 16.0059 50.051 16.0059 50.051C14.3054 50.357 14.9852 52.4033 14.9852 52.4033C18.1127 63.4543 13.2193 70.0241 13.2193 70.0241C19.1989 73.8296 15.9366 77 15.9366 77H1.66452C-0.374893 77 0.0333724 75.4601 0.0333724 75.4601C1.66645 72.7767 3.0068 69.8874 3.76942 66.8325C4.30355 64.7775 4.51598 62.6522 4.39915 60.5322C4.33351 59.3069 4.1049 58.0957 3.71934 56.9307C3.47092 56.2088 3.0145 55.6314 2.65823 54.9634C2.32277 54.3342 2.04372 53.6765 1.82436 52.9981C1.42638 51.743 1.19207 50.442 1.12723 49.127C0.846059 44.1607 3.07228 39.1694 4.55322 34.4783L6.41738 28.5823C7.91372 20.973 12.8476 19.4042 12.8476 19.4042C10.8504 18.2814 9.28129 16.5291 8.38543 14.421C7.48957 12.3128 7.31734 9.96749 7.89563 7.75119C8.47393 5.53489 9.77019 3.57239 11.582 2.17013C13.3938 0.767861 15.6192 0.00477608 17.9107 2.23454e-05C20.2022 -0.00473139 22.4307 0.749115 24.2483 2.14385C26.066 3.53859 27.3704 5.49569 27.9579 7.70957C28.5454 9.92346 28.3829 12.2695 27.4958 14.3813C26.6087 16.4932 25.0469 18.2519 23.0543 19.383C24.3446 20.3724 25.7235 22.0009 25.7235 22.0009L32.1576 18.8094L32.4522 18.6631C37.2782 16.692 39.4525 20.7343 39.4525 20.7343C39.65 21.137 39.7975 21.5624 39.8915 22.0009C40.633 25.5697 36.7352 27.4273 36.7352 27.4273Z" fill="#DAD9D9"/>
<path d="M75.5386 30.1166V47.5353H69.0757V51.2754C69.0757 51.7749 68.9772 52.2695 68.786 52.731C68.5948 53.1925 68.3144 53.6118 67.9611 53.965C67.6077 54.3182 67.1882 54.5984 66.7265 54.7895C66.2649 54.9807 65.77 55.0791 65.2703 55.0791C64.7706 55.0791 64.2757 54.9807 63.814 54.7895C63.3523 54.5984 62.9329 54.3182 62.5795 53.965C62.2261 53.6118 61.9458 53.1925 61.7546 52.731C61.5633 52.2695 61.4649 51.7749 61.4649 51.2754V47.5353H55.002V39.6604H59.2657C59.7727 39.6718 60.277 39.5818 60.7487 39.3957C61.2205 39.2096 61.6504 38.9312 62.013 38.5768C62.3756 38.2224 62.6638 37.7991 62.8605 37.3318C63.0572 36.8646 63.1586 36.3627 63.1586 35.8558C63.1586 35.3488 63.0572 34.847 62.8605 34.3797C62.6638 33.9124 62.3756 33.4891 62.013 33.1347C61.6504 32.7803 61.2205 32.5019 60.7487 32.3158C60.277 32.1297 59.7727 32.0397 59.2657 32.0511H55.002V27.0078H72.4285C73.2533 27.0078 74.0444 27.3353 74.6277 27.9183C75.2109 28.5014 75.5386 29.2921 75.5386 30.1166Z" fill="#9ACB54"/>
<path d="M60.6639 10.1042C60.6634 11.1131 60.262 12.0806 59.5481 12.7939C58.8341 13.5071 57.866 13.9078 56.8566 13.9078H52.6988V21.9925H39.8961C39.802 21.554 39.6546 21.1286 39.457 20.7259C39.457 20.7259 37.2828 16.6836 32.4568 18.6547L32.1621 18.801V4.58923C32.1621 3.76473 32.4898 2.97401 33.0731 2.391C33.6563 1.808 34.4474 1.48047 35.2723 1.48047H52.6988V6.30241H56.8566C57.8657 6.30241 58.8335 6.70283 59.5474 7.41569C60.2613 8.12854 60.6628 9.09551 60.6639 10.1042Z" fill="#F9A032"/>
<path d="M47.749 56.1742C47.7495 57.1832 48.1508 58.1507 48.8648 58.864C49.5787 59.5772 50.5468 59.9779 51.5563 59.9779H54.9996V68.0626H37.5731C36.7485 68.0621 35.958 67.7343 35.3751 67.1514C34.7923 66.5684 34.4648 65.778 34.4648 64.9538V47.5352H54.9996V52.359H51.5563C51.0555 52.359 50.5596 52.4578 50.097 52.6496C49.6345 52.8415 49.2144 53.1227 48.8607 53.4771C48.507 53.8315 48.2268 54.2521 48.036 54.715C47.8452 55.1778 47.7477 55.6737 47.749 56.1742Z" fill="#FED203"/>
<path d="M75.535 47.5352V64.9538C75.535 65.7783 75.2073 66.5691 74.6241 67.1521C74.0408 67.7351 73.2497 68.0626 72.4249 68.0626H54.9983V59.9779H51.555C51.048 59.9893 50.5437 59.8993 50.072 59.7133C49.6002 59.5272 49.1703 59.2487 48.8077 58.8943C48.445 58.5399 48.1569 58.1166 47.9602 57.6494C47.7634 57.1821 47.6621 56.6802 47.6621 56.1733C47.6621 55.6663 47.7634 55.1645 47.9602 54.6972C48.1569 54.2299 48.445 53.8067 48.8077 53.4522C49.1703 53.0978 49.6002 52.8194 50.072 52.6333C50.5437 52.4472 51.048 52.3573 51.555 52.3687H54.9983V47.5352H61.4613V51.2753C61.4613 51.7748 61.5597 52.2694 61.751 52.7309C61.9422 53.1924 62.2225 53.6117 62.5759 53.9649C62.9292 54.3181 63.3487 54.5983 63.8104 54.7894C64.2721 54.9806 64.767 55.079 65.2667 55.079C65.7664 55.079 66.2612 54.9806 66.7229 54.7894C67.1846 54.5983 67.6041 54.3181 67.9575 53.9649C68.3108 53.6117 68.5911 53.1924 68.7824 52.7309C68.9736 52.2694 69.0721 51.7748 69.0721 51.2753V47.5352H75.535Z" fill="#34C4E8"/>
<path d="M47.7475 25.5938H45.0957V28.0403H47.7475V25.5938Z" fill="#8D8D8D"/>
<path d="M42.4272 25.5938H39.7773V28.0403H42.4272V25.5938Z" fill="#8D8D8D"/>
<path d="M42.4272 30.6875H39.7773V33.1341H42.4272V30.6875Z" fill="#8D8D8D"/>
<path d="M53.7637 35.2688L43.5107 45.5172L33.2578 35.2688L35.1316 33.394L39.7766 38.0369V35.7847H42.4265V40.674H42.415L43.5107 41.7674L45.0937 40.187V30.6875H47.7456V37.5325L49.4961 35.7847L51.5509 33.7308L51.8879 33.394L53.7637 35.2688Z" fill="#8D8D8D"/>
</svg>
