<svg width="48" height="77" viewBox="0 0 48 77" fill="none" xmlns="http://www.w3.org/2000/svg">
<path d="M44.5311 24.0781H36.6354L39.5178 37.5134C39.4164 37.9171 39.3679 38.3323 39.3737 38.7484C39.3737 40.3016 39.3737 41.8542 39.3737 43.4061C39.3737 45.1828 39.4006 46.8077 38.4686 48.3999C37.6347 49.8193 36.278 50.7893 34.6255 50.9717H28.3074L28.4361 50.8661L28.5495 50.7701C28.6418 50.6894 28.7417 50.6068 28.8224 50.5242C28.8781 50.4724 28.9319 50.4186 28.9857 50.3648C29.0395 50.311 29.0875 50.263 29.1394 50.2092C29.1913 50.1554 29.249 50.0921 29.3009 50.0344L29.4507 49.8635C29.6025 49.6849 29.7466 49.4986 29.8831 49.3084C29.9253 49.2527 29.9638 49.1951 30.0022 49.1375C30.0695 49.0395 30.1348 48.9454 30.1944 48.8379C30.2289 48.7841 30.2616 48.7284 30.2943 48.6727L30.3904 48.5036C30.423 48.4479 30.4518 48.3903 30.4826 48.3327C30.5133 48.2751 30.5518 48.1983 30.5844 48.1406C30.6171 48.083 30.6459 48.0139 30.6747 47.9486C30.7036 47.8833 30.7151 47.8583 30.7343 47.8141C30.7535 47.7699 30.7728 47.7277 30.7901 47.6835C30.8074 47.6393 30.8342 47.5798 30.8535 47.526C30.8727 47.4722 30.8823 47.453 30.8957 47.4165C30.9092 47.38 30.9322 47.3186 30.9495 47.2686C30.9668 47.2187 30.9937 47.1457 31.0129 47.0766C31.0802 46.8749 31.1379 46.6675 31.1897 46.46C31.2013 46.4101 31.2128 46.3621 31.2224 46.3141C31.2666 46.122 31.3031 45.9299 31.3319 45.7225C31.3319 45.686 31.3435 45.6476 31.3473 45.6092C31.3511 45.5707 31.3608 45.5208 31.3665 45.4747C31.3723 45.4286 31.3665 45.3729 31.3819 45.321C31.3973 45.2692 31.3953 45.1866 31.3992 45.1175L31.4107 44.9465C31.4107 44.8793 31.4107 44.8121 31.4107 44.7545C31.4107 44.6968 31.4107 44.5931 31.4107 44.5105C31.4083 42.3916 30.5932 40.3543 29.1333 38.818C27.6735 37.2816 25.6799 36.3631 23.5631 36.2515C23.4189 36.2515 23.2729 36.24 23.1269 36.24C21.4095 36.2399 19.7347 36.7735 18.3341 37.7668C16.9335 38.7602 15.8765 40.1641 15.3093 41.7844C14.7422 43.4047 14.693 45.1611 15.1685 46.8105C15.6441 48.46 16.6208 49.9208 17.9636 50.991H12.5218C11.7232 50.8971 10.9584 50.615 10.2902 50.1679C9.62206 49.7208 9.06971 49.1214 8.67865 48.4191C7.7467 46.8307 7.77361 45.2058 7.77361 43.4253V38.7484C7.77919 38.3361 7.73074 37.9247 7.62949 37.5249L10.5118 24.0801H2.61998C2.18418 24.0812 1.75795 23.9523 1.39581 23.71C1.03366 23.4677 0.752051 23.1229 0.587002 22.7197C0.421953 22.3166 0.380967 21.8734 0.469273 21.4468C0.55758 21.0202 0.771171 20.6297 1.08273 20.3251L20.7153 1.17189C21.4747 0.421098 22.4997 0 23.5679 0C24.636 0 25.661 0.421098 26.4204 1.17189L46.053 20.3232C46.3636 20.6268 46.5769 21.016 46.6657 21.4411C46.7545 21.8663 46.7148 22.3082 46.5516 22.7107C46.3885 23.1132 46.1093 23.4582 45.7495 23.7017C45.3897 23.9452 44.9656 24.0762 44.5311 24.0781Z" fill="#FED203"/>
<path d="M12.8192 62.3573V62.3746C12.8192 62.4341 12.8192 62.4917 12.8192 62.5513C12.8192 62.5763 12.8192 62.6012 12.8192 62.6262L12.5847 76.9988H8.03449C6.96596 76.9988 5.91095 76.7599 4.94674 76.2996C3.98252 75.8393 3.13349 75.1693 2.46182 74.3387C1.79014 73.508 1.31282 72.5377 1.06482 71.4989C0.816812 70.46 0.804393 69.3788 1.02847 68.3345L3.82626 55.293C4.0876 55.5369 4.36046 55.7655 4.64293 55.9825C5.56222 56.6882 6.56758 57.2743 7.6348 57.7265C8.89726 58.2643 10.3 58.3161 11.3934 59.2362C11.8426 59.6224 12.2028 60.1015 12.4489 60.6403C12.6951 61.1792 12.8214 61.7649 12.8192 62.3573Z" fill="#FED203"/>
<path d="M39.1283 76.9988H34.5781L34.3359 62.1903C34.3579 61.6273 34.4961 61.075 34.7418 60.568C34.9875 60.0609 35.3354 59.6102 35.7637 59.2439C36.857 58.3239 38.2617 58.272 39.5242 57.7342C40.5908 57.282 41.5955 56.696 42.5141 55.9903C42.7985 55.7739 43.072 55.5427 43.3346 55.2969L46.1343 68.3423C46.3571 69.386 46.3437 70.4663 46.0951 71.5043C45.8464 72.5422 45.3689 73.5114 44.6974 74.3412C44.0258 75.1709 43.1773 75.8402 42.2137 76.3C41.2502 76.7598 40.196 76.9986 39.1283 76.9988Z" fill="#FED203"/>
<path d="M47.1512 38.5829V46.1773C47.1512 47.7888 47.0129 49.3004 46.4114 50.8235C45.7362 52.5239 44.6852 54.0499 43.3369 55.2872C43.0731 55.5331 42.7995 55.7642 42.5164 55.9806C41.5978 56.6863 40.5931 57.2723 39.5265 57.7246C38.2621 58.2624 36.8594 58.3142 35.766 59.2342C35.3377 59.6005 34.9898 60.0513 34.7441 60.5583C34.4984 61.0653 34.3603 61.6176 34.3383 62.1806L34.5804 76.9892H12.5785L12.813 62.6166C12.813 62.5916 12.813 62.5667 12.813 62.5417C12.813 62.4821 12.813 62.4245 12.813 62.365V62.3477C12.8142 61.7548 12.6867 61.1686 12.4392 60.6297C12.1917 60.0909 11.8301 59.6121 11.3795 59.2266C10.2861 58.3065 8.88145 58.2547 7.62091 57.7169C6.55368 57.2647 5.54834 56.6786 4.62905 55.9729C4.34658 55.7559 4.07372 55.5273 3.81238 55.2834C2.46374 54.0449 1.41271 52.5176 0.737887 50.8158C0.136438 49.2927 2.15031e-06 47.7811 2.15031e-06 46.1697V38.5829C-0.000502787 38.1317 0.0879245 37.6849 0.260241 37.2679C0.432557 36.851 0.685385 36.472 1.00427 36.1527C1.32316 35.8335 1.70185 35.5801 2.11873 35.4072C2.5356 35.2342 2.98248 35.1451 3.43383 35.1448H4.33889C5.27426 35.135 6.17587 35.4938 6.84845 36.1436C7.22936 36.5232 7.49971 36.9993 7.63052 37.5208C7.73177 37.9205 7.78023 38.3319 7.77464 38.7442V43.4038C7.77464 45.1805 7.74773 46.8054 8.67969 48.3977C9.07074 49.0999 9.62309 49.6993 10.2912 50.1464C10.9594 50.5935 11.7242 50.8756 12.5228 50.9695H17.9781C16.6353 49.8994 15.6586 48.4385 15.183 46.789C14.7075 45.1396 14.7567 43.3832 15.3238 41.7629C15.8909 40.1427 16.948 38.7387 18.3485 37.7454C19.7491 36.752 21.424 36.2185 23.1414 36.2185C23.2874 36.2185 23.4334 36.2185 23.5776 36.23C25.6944 36.3416 27.688 37.2601 29.1479 38.7965C30.6077 40.3329 31.4227 42.3702 31.4252 44.489C31.4252 44.5716 31.4252 44.6523 31.4252 44.733C31.4252 44.8136 31.4252 44.8674 31.4252 44.925L31.4137 45.096C31.4137 45.1651 31.4137 45.2324 31.3964 45.2996C31.3791 45.3668 31.3964 45.4014 31.381 45.4532C31.3656 45.5051 31.3695 45.5435 31.3618 45.5877C31.3541 45.6319 31.3618 45.6645 31.3464 45.701C31.3176 45.8931 31.2811 46.0967 31.2369 46.2926C31.2369 46.3406 31.2157 46.3886 31.2042 46.4385C31.1523 46.646 31.0947 46.8534 31.0274 47.0551C31.0082 47.1185 30.9871 47.1799 30.964 47.2472C30.941 47.3144 30.9294 47.3451 30.9102 47.3951C30.891 47.445 30.8833 47.468 30.8679 47.5045C30.8526 47.541 30.8276 47.6102 30.8045 47.662C30.7815 47.7139 30.768 47.7504 30.7488 47.7926C30.7296 47.8349 30.7104 47.8829 30.6892 47.9271C30.6681 47.9713 30.6297 48.0539 30.5989 48.1192C30.5682 48.1845 30.5317 48.2536 30.4971 48.3112C30.4625 48.3688 30.4375 48.4265 30.4049 48.4822L30.3088 48.6512C30.2761 48.7069 30.2434 48.7626 30.2089 48.8164C30.1474 48.9182 30.082 49.0084 30.0167 49.116C29.9783 49.1736 29.9398 49.2312 29.8976 49.2869C29.7611 49.479 29.617 49.6711 29.4652 49.842L29.3153 50.013C29.2634 50.0706 29.2097 50.1301 29.1539 50.1878C29.0982 50.2454 29.0521 50.2934 29.0002 50.3433C28.9483 50.3933 28.8926 50.4509 28.8369 50.5028C28.7485 50.5853 28.6562 50.6679 28.564 50.7486L28.4506 50.8446L28.3219 50.9503H34.64C36.2925 50.7582 37.6491 49.7979 38.4831 48.3785C39.415 46.79 39.3882 45.1651 39.3882 43.3846C39.3882 41.8327 39.3882 40.2802 39.3882 38.7269C39.3824 38.3108 39.4309 37.8956 39.5323 37.4919C39.665 36.9746 39.9352 36.5027 40.3143 36.1263C40.9871 35.4848 41.8846 35.1324 42.8143 35.1448H43.7174C44.6288 35.1459 45.5025 35.5086 46.1464 36.1533C46.7903 36.798 47.1518 37.6719 47.1512 38.5829Z" fill="#0F85B0"/>
</svg>
