<svg width="67" height="72" viewBox="0 0 67 72" fill="none" xmlns="http://www.w3.org/2000/svg">
<circle cx="28.5" cy="28.5" r="28.5" fill="#C53E3F" fill-opacity="0.1"/>
<path d="M0.00348334 38.11C0.371177 37.5751 0.874799 37.4283 1.51434 37.444C3.08271 37.4807 4.63887 37.4563 6.27171 37.4563C6.67077 30.3854 9.2516 24.2794 14.2355 19.2764C19.2194 14.2735 25.2768 11.7003 32.3588 11.293C32.3588 9.68655 32.3832 8.10107 32.3466 6.51558C32.3309 5.87753 32.4773 5.36884 33.0106 5H33.793C34.3158 5.37059 34.4726 5.87404 34.4569 6.51733C34.4204 8.09058 34.4447 9.6481 34.4447 11.106C36.4749 11.4766 38.4528 11.7598 40.3836 12.2108C42.7867 12.7701 45.026 13.784 47.1468 15.0479C47.8682 15.4779 48.0738 16.039 47.7305 16.6036C47.3872 17.1683 46.8017 17.2399 46.0837 16.8221C42.6572 14.8114 38.8024 13.6483 34.8386 13.4292C34.734 13.4292 34.6277 13.4292 34.4447 13.4292V17.233C34.4447 17.4934 34.4447 17.7574 34.4447 18.0178C34.4151 18.6856 33.9969 19.1261 33.3992 19.1278C32.8015 19.1296 32.3693 18.6908 32.3536 18.0231C32.3362 16.7365 32.3536 15.4499 32.3536 14.1633V13.4641C19.5836 13.7718 8.73578 24.6203 8.43431 37.4598H12.7909C13.0296 37.4598 13.2701 37.4598 13.5088 37.4598C14.1745 37.4912 14.6119 37.9108 14.6102 38.5086C14.6084 39.1064 14.171 39.5382 13.5036 39.5469C12.0468 39.5627 10.5917 39.5469 9.13484 39.5469H8.43779C8.7323 51.6453 18.6339 62.9535 32.3641 63.5776V62.8958C32.3641 61.4571 32.3641 60.0167 32.3641 58.5781C32.3641 57.8107 32.7771 57.3422 33.4096 57.3544C34.0422 57.3667 34.4413 57.8264 34.4447 58.5991C34.4447 60.0377 34.4447 61.4764 34.4447 62.9168V63.5548C46.5595 63.2437 57.7959 53.2815 58.4006 39.5539H57.7193C56.2851 39.5539 54.8492 39.5539 53.415 39.5539C52.65 39.5539 52.1847 39.1361 52.1951 38.5051C52.2056 37.874 52.6622 37.4737 53.4394 37.4702C55.067 37.4702 56.6946 37.4702 58.4703 37.4702C58.3065 36.1959 58.202 34.9688 57.9876 33.7626C57.4781 30.9239 56.464 28.2003 54.9938 25.7215C54.6784 25.1866 54.5337 24.6727 55.0269 24.178C55.5636 23.6413 56.2921 23.8074 56.7486 24.5748C58.0225 26.7197 59.0419 28.9851 59.6065 31.4167C60.0614 33.3815 60.3437 35.3848 60.7183 37.4633H65.1969C66.3017 37.4633 66.8158 37.8129 66.7931 38.5401C66.7705 39.2393 66.2808 39.5557 65.2004 39.5557H60.5179C60.1171 46.6231 57.5433 52.7186 52.5768 57.7075C47.6103 62.6965 41.539 65.3064 34.4395 65.7119V67.0754C34.4395 68.3183 34.4395 69.5612 34.4395 70.804C34.4395 71.5277 34.0283 71.9857 33.4201 71.9997C32.8119 72.0137 32.3623 71.54 32.3571 70.7761C32.3571 69.1014 32.3571 67.425 32.3571 65.7067C25.3012 65.3011 19.2247 62.7175 14.2512 57.7338C9.27774 52.7501 6.67774 46.6598 6.27694 39.5557H3.08096C2.55817 39.5557 2.03539 39.5207 1.5126 39.5557C0.874797 39.6081 0.369437 39.4263 0 38.8932L0.00348334 38.11Z" fill="#C53E3F"/>
<path d="M57.7887 5.00562C58.3271 5.37271 58.4666 5.87966 58.4526 6.52294C58.4178 8.25702 58.4422 9.9911 58.4422 11.7269L58.6164 11.8336C59.3274 11.0836 60.0245 10.3197 60.7546 9.5873C61.2774 9.06288 61.9379 9.06287 62.3578 9.55582C62.7412 10.0033 62.7064 10.5732 62.2132 11.0732C61.4952 11.8021 60.7529 12.5065 59.9129 13.3281C60.2423 13.3526 60.4218 13.3788 60.61 13.3788C62.2393 13.3788 63.8704 13.3788 65.5015 13.3788C66.047 13.3788 66.4914 13.5099 66.7214 14.0588C66.9514 14.6077 66.69 14.9836 66.3328 15.3419C64.3636 17.3155 62.4101 19.3048 60.4078 21.2469C60.0755 21.5434 59.6515 21.7162 59.2072 21.7363C56.9034 21.7818 54.5979 21.7748 52.2942 21.7363C52.0615 21.7258 51.8295 21.7675 51.6149 21.8582C51.4002 21.9489 51.2085 22.0864 51.0534 22.2607C45.6374 27.7124 40.2131 33.1576 34.7808 38.5964C34.6337 38.7567 34.476 38.9068 34.3085 39.0456C34.108 39.2183 33.8481 39.3054 33.5843 39.2884C33.3206 39.2714 33.0739 39.1517 32.897 38.9547C32.5171 38.5195 32.5101 38.0457 32.8552 37.5842C32.9937 37.4164 33.1439 37.2587 33.3048 37.1123C38.7453 31.6525 44.1892 26.1962 49.6367 20.7434C49.7951 20.6016 49.9203 20.4263 50.0031 20.2301C50.086 20.0339 50.1245 19.8218 50.1159 19.6089C50.0898 17.2753 50.0863 14.9416 50.1159 12.6167C50.1175 12.2118 50.2592 11.8201 50.5167 11.5084C52.5155 9.44396 54.5561 7.4197 56.5863 5.3902C56.7205 5.2556 56.8703 5.13322 57.0115 5.00562H57.7887ZM56.351 8.60662C54.929 10.0278 53.6133 11.3406 52.3029 12.6604C52.2315 12.7397 52.1907 12.842 52.1879 12.9488C52.1879 14.6357 52.1879 16.3243 52.1879 18.1738C53.6151 16.7404 54.929 15.4241 56.236 14.1025C56.307 14.0229 56.3483 13.9209 56.3528 13.8141C56.3545 12.1272 56.351 10.4386 56.351 8.61537V8.60662ZM63.2152 15.473C62.4903 15.473 61.9326 15.473 61.375 15.473C60.204 15.473 58.9005 15.1653 57.8898 15.5814C56.879 15.9974 56.182 17.1372 55.3473 17.9605L53.6221 19.6579C55.4954 19.6579 57.1596 19.6579 58.8238 19.6474C58.991 19.6283 59.1461 19.5503 59.2612 19.4271C60.5473 18.158 61.8176 16.8784 63.2152 15.473V15.473Z" fill="#C53E3F"/>
<path d="M33.4626 25.7714C34.8149 26.0581 36.1776 26.2958 37.5159 26.6455C38.3559 26.8587 38.68 27.4426 38.4639 28.0806C38.2478 28.7186 37.6763 28.8935 36.8328 28.6138C29.9146 26.3081 22.9249 31.3582 22.972 38.6267C23.0068 44.0649 27.3285 48.6168 32.7795 48.956C35.3993 49.1066 37.9798 48.2636 40.0087 46.5943C42.0376 44.925 43.3666 42.5514 43.7319 39.9447C43.9527 38.3197 43.7958 36.6654 43.2736 35.1113C43.2335 34.9872 43.1882 34.8648 43.1498 34.739C42.9599 34.0887 43.1864 33.566 43.7528 33.351C44.3191 33.136 44.8611 33.3982 45.1033 34.031C45.7578 35.7245 46.031 37.5421 45.9032 39.3539C45.7374 41.7962 44.8636 44.1368 43.3893 46.0876C41.9149 48.0384 39.9043 49.5143 37.6048 50.334C35.3052 51.1537 32.817 51.2813 30.4461 50.7011C28.0752 50.1209 25.925 48.8582 24.2601 47.0684C22.5951 45.2786 21.488 43.0397 21.0748 40.627C20.6616 38.2143 20.9604 35.733 21.9345 33.4884C22.9085 31.2439 24.5154 29.3338 26.5573 27.9932C28.5993 26.6526 30.9873 25.9399 33.4277 25.9427L33.4626 25.7714Z" fill="#C53E3F"/>
</svg>
