<svg width="73" height="67" viewBox="0 0 73 67" fill="none" xmlns="http://www.w3.org/2000/svg">
<circle cx="28.5" cy="34.5" r="28.5" fill="#F9A032" fill-opacity="0.1"/>
<path d="M3 65.608C3.42356 64.8455 4.13312 64.8441 4.84133 64.9084C5.3861 64.9616 5.67891 64.7685 5.93087 64.2495C7.1389 61.8306 8.42457 59.4522 9.62307 57.0277C10.4688 55.3153 11.6197 53.9219 13.273 53.0223C14.1978 52.5201 14.763 51.7828 15.222 50.8258C18.8692 43.2179 22.5405 35.6217 26.2359 28.0371C27.1647 26.1204 28.4613 25.821 30.101 27.1445L31.3949 28.1896C31.5038 27.9518 31.6005 27.7545 31.685 27.553C32.7214 25.0768 33.7633 22.6047 34.7874 20.1242C35.1347 19.2848 35.6346 18.6133 36.4218 18.1432C36.6206 18.0257 36.7582 17.6269 36.7595 17.3569C36.7786 12.354 36.7731 7.35109 36.7731 2.34817C36.7731 1.95225 36.7731 1.55632 36.78 1.1618C36.7936 0.560216 37.0401 0.0971353 37.6516 0.0131937C38.2631 -0.0707479 38.6403 0.249626 38.7793 0.866597C38.8089 0.946779 38.8473 1.02328 38.8937 1.09464H43.3581C44.72 1.09464 46.0819 1.08065 47.4357 1.09464C48.4844 1.10863 48.9216 1.94805 48.3564 2.86161C47.8116 3.743 47.2314 4.6048 46.6539 5.49458C47.1987 6.334 47.7299 7.17341 48.2787 8.00303C48.5647 8.43253 48.8126 8.93199 48.4571 9.3419C48.1534 9.65993 47.7448 9.84959 47.3118 9.87353C44.7527 9.9197 42.1936 9.89732 39.6332 9.89732H38.816V11.3467C38.816 13.3053 38.8283 15.2556 38.8065 17.21C38.8065 17.6983 38.88 18.0089 39.3785 18.2299C40.1657 18.5769 40.5852 19.31 40.9325 20.0892C43.8688 26.6814 46.8088 33.2709 49.7523 39.8575C49.8558 40.0883 49.9648 40.3164 50.0901 40.585C51.0148 39.9862 51.9723 39.7749 53.0169 40.1163C53.9144 40.4115 54.4823 41.0746 54.9835 41.8455C59.8256 49.3163 64.6673 56.788 69.5085 64.2607C69.8231 64.7462 70.1432 64.984 70.7084 64.9042C71.0253 64.8661 71.3458 64.8703 71.6617 64.9168C72.2337 64.9924 72.5756 65.3575 72.5769 65.9437C72.5769 66.5033 72.2501 66.8489 71.7189 66.958C71.5175 66.9891 71.3136 66.9998 71.1101 66.9902C48.9107 66.9902 26.7112 66.9935 4.51174 67C3.87845 67 3.35138 66.8783 3 66.3005V65.608ZM23.2179 64.8497H67.4356C67.2613 64.5699 67.1333 64.3502 66.9957 64.139C65.3778 61.6431 63.7584 59.1482 62.1377 56.6542C59.1497 52.0495 56.1611 47.4458 53.1721 42.843C52.4639 41.7532 51.5637 41.7699 50.8909 42.8696C50.5777 43.3802 50.2862 43.9062 49.9648 44.4085C49.5562 45.0548 48.9992 45.2255 48.4667 44.8926C47.9342 44.5596 47.8102 43.9426 48.2488 43.3145C48.6682 42.7143 48.6151 42.2274 48.2992 41.6118C47.7952 40.6325 47.3826 39.5917 46.9263 38.5788C46.8473 38.4025 46.7466 38.2346 46.6362 38.0192C46.387 38.2528 46.1936 38.4389 45.988 38.6221C44.626 39.8085 42.9236 39.7497 41.6434 38.4822C40.7159 37.5589 39.9764 37.7128 39.4643 38.9257C38.8732 40.3247 38.3312 41.7643 37.6666 43.1326C37.149 44.2014 36.1684 44.6491 35.0312 44.6715C33.8654 44.6897 33.0197 44.0825 32.3605 43.1424C31.3472 41.6972 30.3285 40.2562 29.2607 38.741C29.1245 39.0376 29.0306 39.2433 28.942 39.4518C28.227 41.1586 27.4875 42.8556 26.8052 44.5764C25.9812 46.6553 24.6261 48.2362 22.7711 49.4058C19.8566 51.24 16.9462 53.0797 14.0807 54.9907C13.3044 55.5098 12.5008 56.1771 12.0446 56.9774C10.6186 59.4816 9.35068 62.081 8.02416 64.6468C8.00256 64.7213 7.99201 64.7986 7.99284 64.8763C8.11541 64.8861 8.223 64.9028 8.33059 64.9028C12.0664 64.9028 15.8035 64.9126 19.5406 64.8889C19.8472 64.8672 20.1388 64.7451 20.3728 64.5405C21.969 63.1653 23.5434 61.7648 25.1246 60.3714C26.5096 59.1501 28.0227 58.1414 29.7456 57.4992C33.1232 56.2401 36.5021 54.981 39.8947 53.7582C41.6815 53.1161 43.0639 52.015 44.0227 50.3362C44.5675 49.3932 45.1245 48.4671 45.6911 47.5381C46.1105 46.8512 46.6975 46.6539 47.2232 46.9897C47.7489 47.3255 47.8443 47.9173 47.4221 48.6378C46.8019 49.6926 46.1727 50.7414 45.5344 51.7842C44.3673 53.6883 42.7125 54.9488 40.6574 55.7015C37.7578 56.7535 34.9005 57.9399 31.9628 58.8605C28.4708 59.9489 25.9226 62.3916 23.2179 64.8497V64.8497ZM17.9499 49.8717L18.0725 49.9864C19.6945 48.9008 21.3643 47.8781 22.921 46.7001C23.5665 46.2104 24.035 45.427 24.4695 44.7051C24.8699 44.0392 25.1259 43.2809 25.4228 42.5548C26.4216 40.1671 27.4203 37.7771 28.4191 35.3848C28.5004 35.1687 28.6026 34.9616 28.7241 34.7664C29.0415 34.2977 29.4963 34.1774 29.9771 34.4167C30.4579 34.6559 30.7343 35.1162 30.4824 35.6268C30.1296 36.3361 30.3911 36.8076 30.7943 37.3574C31.8838 38.8432 32.9284 40.3625 33.9839 41.8735C34.274 42.2932 34.5913 42.6261 35.1456 42.573C35.7326 42.5156 35.9764 42.0973 36.1753 41.5937C36.6465 40.4115 37.1286 39.2321 37.6243 38.0625C37.7846 37.6539 38.0001 37.2706 38.2645 36.9237C39.4275 35.5037 41.4486 35.4282 42.7847 36.7223C43.6986 37.6078 44.1139 37.6022 45.006 36.6929C45.0955 36.5877 45.1924 36.4895 45.2961 36.3991C45.6911 36.1039 45.7047 35.7919 45.499 35.3302C44.1099 32.279 42.7534 29.2137 41.386 26.1512C40.5852 24.3576 39.7898 22.5599 38.9849 20.7677C38.7643 20.2739 38.4306 19.9283 37.8491 19.9283C37.2675 19.9283 36.9488 20.2935 36.7255 20.7873C36.6683 20.9146 36.6206 21.0448 36.5661 21.1721C35.1606 24.5456 33.7533 27.9186 32.3441 31.2912C32.2537 31.5288 32.1396 31.7562 32.0037 31.9698C31.8802 32.1703 31.688 32.3159 31.4651 32.3778C31.2421 32.4397 31.0047 32.4134 30.7997 32.3041C30.3176 32.0803 30.0915 31.6578 30.2386 31.101C30.319 30.7946 30.4415 30.4994 30.5491 30.1846L28.336 28.3966L17.9499 49.8717ZM38.8487 7.74562H45.6488C45.2852 7.18601 44.9679 6.69775 44.6601 6.21508C44.5093 6.00854 44.4284 5.75695 44.4299 5.49876C44.4314 5.24058 44.5151 4.98998 44.6683 4.78527C44.991 4.29281 45.3015 3.79057 45.6557 3.23376H38.846L38.8487 7.74562Z" fill="#F9A032"/>
</svg>
