<svg width="57" height="71" viewBox="0 0 57 71" fill="none" xmlns="http://www.w3.org/2000/svg">
<circle cx="28.5" cy="28.5" r="28.5" fill="#0F85B0" fill-opacity="0.1"/>
<path d="M27.9832 65.4016H25.8771C23.45 65.4016 22.4501 64.4049 22.4501 61.9854C22.4501 57.8588 22.4362 53.7322 22.464 49.6056C22.464 48.9303 22.3 48.532 21.6765 48.1687C17.5326 45.7379 14.2257 42.0864 12.1999 37.7048C10.1741 33.3232 9.52649 28.4214 10.3441 23.6578C11.1617 18.8942 13.4053 14.497 16.7735 11.0569C20.1418 7.61674 24.4733 5.2985 29.1863 4.41352C42.176 1.93571 54.7039 10.8619 56.713 23.9915C58.2141 33.7979 53.7433 43.2807 45.2543 48.2293C45.0257 48.3352 44.8358 48.5109 44.7115 48.7315C44.5872 48.9522 44.5347 49.2066 44.5616 49.4589C44.5846 53.7019 44.5754 57.9473 44.5616 62.1903C44.5616 64.3234 43.4877 65.3947 41.3655 65.4016H39.0285C39.0285 66.2959 39.0285 67.1273 39.0285 67.9633C39.0123 69.8263 37.8923 70.9674 36.0749 70.9907C34.3476 71.0031 32.6187 71.0031 30.8882 70.9907C29.1262 70.9744 27.9855 69.81 27.967 68.0285C27.9762 67.1808 27.9832 66.3425 27.9832 65.4016ZM41.8135 51.4127C41.8135 50.4812 41.892 49.6452 41.7973 48.8185C41.6357 47.4212 42.2246 46.6853 43.4392 46.0379C51.0899 41.9649 55.4475 32.9968 54.0111 24.5178C51.9905 12.6411 41.4555 5.13078 29.6828 7.16146C18.7806 9.04078 11.0515 20.1723 13.0559 31.1222C14.3106 37.9982 18.0001 43.0742 24.1243 46.35C24.9164 46.7738 25.279 47.3164 25.2351 48.213C25.1935 49.2749 25.2351 50.3415 25.2351 51.3825H32.1514C32.1514 49.4822 32.1837 47.6564 32.126 45.8237C32.0994 45.355 31.9191 44.9085 31.6134 44.5545C30.6019 43.4413 29.505 42.4074 28.4612 41.3245C28.027 40.875 27.7846 40.2673 28.1887 39.7479C28.5133 39.3383 28.9746 39.0618 29.4865 38.9701C29.8491 38.9282 30.3225 39.3008 30.6412 39.6036C31.618 40.5351 32.5417 41.5201 33.5393 42.5355C34.5831 41.4689 35.5253 40.4908 36.4859 39.5314C37.2318 38.7838 37.9962 38.7163 38.6128 39.2985C39.2294 39.8807 39.1948 40.7214 38.4281 41.5085C37.4166 42.5424 36.3867 43.5601 35.3798 44.5988C35.1905 44.7944 34.9457 45.0645 34.941 45.2974C34.9064 47.3234 34.9226 49.3471 34.9226 51.4081L41.8135 51.4127ZM41.7419 57.0018V54.2911H25.2836V57.0064L41.7419 57.0018ZM41.7742 59.8685H25.2859V62.5536H41.7742V59.8685ZM36.2088 68.1613V65.4692H30.8167V68.1822L36.2088 68.1613Z" fill="#0F85B0"/>
</svg>
