<svg width="157" height="75" viewBox="0 0 157 75" fill="none" xmlns="http://www.w3.org/2000/svg">
<path d="M67.0703 73.1906V67.5606H67.6303V73.1906H67.0703ZM69.1603 73.1906V69.0806H69.7203V69.6106C69.8308 69.4171 69.9892 69.2553 70.1803 69.1406C70.3843 69.0351 70.6107 68.9802 70.8403 68.9806C71.0415 68.966 71.2433 68.9992 71.4293 69.0774C71.6152 69.1556 71.78 69.2766 71.9103 69.4306C72.1695 69.8308 72.2891 70.3054 72.2503 70.7806V73.1906H71.6903V70.6706C71.7109 70.3618 71.6263 70.0552 71.4503 69.8006C71.3655 69.699 71.2579 69.6189 71.1363 69.5667C71.0146 69.5146 70.8824 69.492 70.7503 69.5006C70.6089 69.4956 70.4681 69.5206 70.337 69.5741C70.206 69.6275 70.0878 69.7081 69.9903 69.8106C69.7931 70.0713 69.6972 70.3946 69.7203 70.7206V73.1906H69.1603ZM78.0103 73.2806L76.3603 69.4106L76.2603 69.1406L76.1503 68.8806C76.1503 68.9506 76.1503 69.0306 76.1503 69.1306V73.1906H75.5903V67.5606H76.1103L77.8403 71.6106C77.8403 71.6706 77.8403 71.7306 77.9103 71.8006C77.9412 71.8621 77.9679 71.9256 77.9903 71.9906L78.0603 71.8006C78.0912 71.7392 78.1179 71.6757 78.1403 71.6106L79.8603 67.5606H80.3903V73.1906H79.8303V69.1306C79.8346 69.0474 79.8346 68.9639 79.8303 68.8806L79.7303 69.1406C79.6903 69.2406 79.6503 69.3306 79.6103 69.4106L78.0103 73.2806ZM82.8503 73.2806C82.4828 73.2957 82.1239 73.1665 81.8503 72.9206C81.7249 72.7871 81.6276 72.6299 81.564 72.4581C81.5005 72.2863 81.472 72.1036 81.4803 71.9206C81.4717 71.6703 81.5378 71.4232 81.6703 71.2106C81.7884 71.0056 81.9664 70.8416 82.1803 70.7406C82.4313 70.6271 82.7049 70.5724 82.9803 70.5806C83.1726 70.578 83.3644 70.6016 83.5503 70.6506C83.7385 70.7065 83.9196 70.7837 84.0903 70.8806V70.4906C84.1115 70.2143 84.0296 69.94 83.8603 69.7206C83.7648 69.6341 83.6524 69.5681 83.5303 69.5268C83.4081 69.4855 83.2788 69.4698 83.1503 69.4806C82.9452 69.4799 82.7418 69.5172 82.5503 69.5906C82.3394 69.6628 82.1379 69.7602 81.9503 69.8806L81.7803 69.4106C81.9969 69.2731 82.2329 69.1686 82.4803 69.1006C82.7195 69.0234 82.969 68.9829 83.2203 68.9806C83.4031 68.9735 83.5856 69.0024 83.7572 69.0659C83.9288 69.1294 84.0862 69.2262 84.2203 69.3506C84.4718 69.6442 84.5976 70.025 84.5703 70.4106V73.1906H84.0403V72.7206C83.8802 72.8972 83.6864 73.04 83.4703 73.1406C83.2753 73.2288 83.0643 73.2764 82.8503 73.2806ZM82.9303 72.7906C83.14 72.7846 83.3455 72.7299 83.5303 72.6306C83.7357 72.5057 83.9183 72.3468 84.0703 72.1606V71.3906C83.9097 71.2879 83.7344 71.2103 83.5503 71.1606C83.3796 71.1025 83.2006 71.0722 83.0203 71.0706C82.7526 71.0578 82.4895 71.1432 82.2803 71.3106C82.1913 71.3846 82.1206 71.4781 82.0738 71.584C82.0269 71.6898 82.0052 71.805 82.0103 71.9206C82.0026 72.0376 82.0211 72.1548 82.0643 72.2638C82.1076 72.3728 82.1745 72.4707 82.2603 72.5506C82.3498 72.6341 82.4554 72.6984 82.5706 72.7397C82.6858 72.7809 82.8082 72.7983 82.9303 72.7906ZM85.9303 73.1906V67.6506L86.4903 67.3906V70.6606L87.9703 69.0806H88.6403L87.5803 70.2006L89.1203 73.2006H88.5003L87.1903 70.6206L86.4903 71.3506V73.2006L85.9303 73.1906ZM90.1303 73.1906V69.0806H90.7003V73.1906H90.1303ZM90.4103 68.2606C90.3618 68.2608 90.3138 68.2511 90.2691 68.2322C90.2244 68.2133 90.184 68.1855 90.1503 68.1506C90.1167 68.1165 90.0905 68.0757 90.0733 68.031C90.0561 67.9863 90.0483 67.9385 90.0503 67.8906C90.0475 67.8412 90.0549 67.7917 90.0721 67.7452C90.0893 67.6987 90.116 67.6563 90.1503 67.6206C90.1828 67.5842 90.223 67.5554 90.268 67.5364C90.3129 67.5174 90.3615 67.5086 90.4103 67.5106C90.4607 67.5071 90.5113 67.5151 90.5581 67.5342C90.6049 67.5533 90.6467 67.5828 90.6803 67.6206C90.7147 67.6563 90.7413 67.6987 90.7585 67.7452C90.7757 67.7917 90.7831 67.8412 90.7803 67.8906C90.7823 67.9385 90.7745 67.9863 90.7573 68.031C90.7401 68.0757 90.7139 68.1165 90.6803 68.1506C90.6428 68.1889 90.5975 68.2185 90.5474 68.2375C90.4973 68.2565 90.4437 68.2644 90.3903 68.2606H90.4103ZM92.1403 73.1906V69.0806H92.7003V69.6106C92.8108 69.4171 92.9692 69.2553 93.1603 69.1406C93.3638 69.0339 93.5905 68.979 93.8203 68.9806C94.0215 68.966 94.2233 68.9992 94.4093 69.0774C94.5952 69.1556 94.76 69.2766 94.8903 69.4306C95.1495 69.8308 95.2691 70.3054 95.2303 70.7806V73.1906H94.6703V70.6706C94.6909 70.3618 94.6063 70.0552 94.4303 69.8006C94.3455 69.699 94.2379 69.6189 94.1163 69.5667C93.9946 69.5146 93.8624 69.492 93.7303 69.5006C93.5889 69.4956 93.448 69.5206 93.317 69.5741C93.186 69.6275 93.0679 69.7081 92.9703 69.8106C92.7731 70.0713 92.6772 70.3946 92.7003 70.7206V73.1906H92.1403ZM97.9303 74.9006L97.6603 74.4506C97.9694 74.4381 98.2755 74.3843 98.5703 74.2906C98.7739 74.2216 98.954 74.0969 99.0903 73.9306C99.2074 73.7567 99.2669 73.5503 99.2603 73.3406V72.6906C99.1438 72.8805 98.9784 73.0355 98.7813 73.1393C98.5842 73.2431 98.3628 73.2919 98.1403 73.2806C97.8319 73.2864 97.53 73.1916 97.2803 73.0106C97.0223 72.8205 96.8244 72.5602 96.7103 72.2606C96.4301 71.5299 96.4301 70.7214 96.7103 69.9906C96.8257 69.6917 97.0277 69.4341 97.2903 69.2506C97.5469 69.0681 97.8555 68.9734 98.1703 68.9806C98.3848 68.9805 98.5967 69.0284 98.7903 69.1206C98.9768 69.2051 99.1386 69.3359 99.2603 69.5006V69.0806H99.8203V73.1706C99.8243 73.4151 99.7871 73.6585 99.7103 73.8906C99.6358 74.0918 99.516 74.2731 99.3603 74.4206C99.1867 74.5675 98.9864 74.6796 98.7703 74.7506C98.4915 74.8383 98.2023 74.8887 97.9103 74.9006H97.9303ZM98.2403 72.7506C98.4476 72.7522 98.6503 72.6893 98.8203 72.5706C99.007 72.444 99.1584 72.2719 99.2603 72.0706V70.1406C99.1573 69.9508 99.0054 69.7919 98.8203 69.6806C98.65 69.5717 98.4525 69.5128 98.2503 69.5106C98.0816 69.5015 97.9134 69.5352 97.7612 69.6086C97.6091 69.682 97.478 69.7928 97.3803 69.9306C97.1525 70.2877 97.044 70.7079 97.0703 71.1306C97.0634 71.4211 97.1144 71.7101 97.2203 71.9806C97.3056 72.2028 97.4468 72.3992 97.6303 72.5506C97.8007 72.6784 98.0074 72.7485 98.2203 72.7506H98.2403ZM103.24 73.1906V67.5606H106.5V68.0906H103.8V70.0206H105.6V70.5506H103.8V73.2006L103.24 73.1906ZM108.64 73.2806C108.437 73.2957 108.233 73.2639 108.044 73.1876C107.855 73.1113 107.686 72.9926 107.55 72.8406C107.288 72.4417 107.164 71.967 107.2 71.4906V69.0806H107.76V71.5906C107.74 71.8994 107.824 72.2061 108 72.4606C108.086 72.5616 108.193 72.6413 108.315 72.6934C108.436 72.7455 108.568 72.7685 108.7 72.7606C108.844 72.7721 108.988 72.7501 109.122 72.6963C109.255 72.6425 109.375 72.5584 109.47 72.4506C109.661 72.1832 109.753 71.8581 109.73 71.5306V69.0806H110.29V73.1906H109.73V72.6906C109.619 72.8785 109.461 73.0337 109.27 73.1406C109.059 73.2441 108.825 73.2922 108.59 73.2806H108.64ZM112.81 73.2806C112.696 73.2888 112.581 73.2715 112.473 73.23C112.366 73.1885 112.27 73.1238 112.19 73.0406C112.038 72.8326 111.964 72.5778 111.98 72.3206V69.5706H111.3V69.0806H111.98V67.6606L112.55 67.3906V69.0806H113.55V69.5706H112.55V72.1506C112.535 72.3106 112.57 72.4713 112.65 72.6106C112.692 72.6627 112.745 72.7038 112.806 72.7299C112.867 72.7561 112.934 72.7667 113 72.7606C113.217 72.7518 113.426 72.6787 113.6 72.5506L113.54 73.1006C113.431 73.1634 113.313 73.2106 113.19 73.2406C113.049 73.2736 112.905 73.287 112.76 73.2806H112.81ZM115.91 73.2806C115.707 73.2957 115.503 73.2639 115.314 73.1876C115.125 73.1113 114.956 72.9926 114.82 72.8406C114.558 72.4417 114.435 71.967 114.47 71.4906V69.0806H115V71.5906C114.98 71.8994 115.064 72.2061 115.24 72.4606C115.327 72.5604 115.434 72.6393 115.556 72.6913C115.677 72.7433 115.809 72.767 115.94 72.7606C116.084 72.7721 116.228 72.7501 116.362 72.6963C116.495 72.6425 116.615 72.5584 116.71 72.4506C116.901 72.1832 116.993 71.8581 116.97 71.5306V69.0806H117.53V73.1906H117V72.6906C116.892 72.8807 116.733 73.0366 116.54 73.1406C116.329 73.2441 116.095 73.2922 115.86 73.2806H115.91ZM119.04 73.1906V69.0806H119.61V69.7306C119.696 69.5114 119.841 69.3208 120.03 69.1806C120.213 69.0479 120.434 68.9777 120.66 68.9806C120.878 68.9716 121.092 69.0428 121.26 69.1806L121.18 69.7206C121.099 69.6615 121.007 69.6174 120.91 69.5906C120.811 69.5756 120.71 69.5756 120.61 69.5906C120.42 69.5899 120.235 69.6494 120.08 69.7606C119.927 69.8868 119.807 70.0481 119.73 70.2306C119.647 70.4509 119.606 70.6851 119.61 70.9206V73.2306L119.04 73.1906ZM123.46 73.2806C123.124 73.2891 122.792 73.1949 122.51 73.0106C122.241 72.8208 122.032 72.5568 121.91 72.2506C121.761 71.8964 121.686 71.5151 121.69 71.1306C121.681 70.7318 121.76 70.3358 121.92 69.9706C122.047 69.6694 122.264 69.4145 122.54 69.2406C122.803 69.0839 123.104 69.0011 123.41 69.0011C123.717 69.0011 124.017 69.0839 124.28 69.2406C124.54 69.3948 124.746 69.6252 124.87 69.9006C124.994 70.2603 125.038 70.6423 125 71.0206V71.1806C125 71.2406 125 71.3106 125 71.3706H122.21C122.227 71.6281 122.284 71.8812 122.38 72.1206C122.468 72.3192 122.606 72.4915 122.78 72.6206C122.966 72.745 123.187 72.808 123.41 72.8006C123.575 72.8017 123.738 72.7712 123.89 72.7106C124.054 72.6477 124.204 72.5525 124.33 72.4306L124.66 72.8106C124.496 72.9601 124.307 73.0787 124.1 73.1606C123.88 73.2454 123.646 73.2862 123.41 73.2806H123.46ZM122.27 70.8606H124.51C124.514 70.6219 124.473 70.3846 124.39 70.1606C124.325 69.9633 124.203 69.7894 124.04 69.6606C123.873 69.536 123.669 69.4725 123.46 69.4806C123.309 69.4783 123.158 69.5063 123.017 69.5629C122.876 69.6196 122.748 69.7038 122.64 69.8106C122.376 70.0968 122.226 70.4708 122.22 70.8606H122.27ZM130.27 73.2806C129.899 73.2909 129.531 73.2084 129.2 73.0406C128.911 72.8812 128.664 72.6549 128.48 72.3806C128.296 72.0941 128.157 71.7802 128.07 71.4506C127.987 71.0967 127.943 70.7344 127.94 70.3706C127.941 70.0095 127.988 69.6499 128.08 69.3006C128.171 68.9707 128.313 68.657 128.5 68.3706C128.685 68.0933 128.936 67.8664 129.23 67.7106C129.809 67.4342 130.473 67.3947 131.08 67.6006C131.281 67.6768 131.465 67.7924 131.62 67.9406C131.76 68.0724 131.885 68.2201 131.99 68.3806L131.49 68.6806C131.365 68.4954 131.206 68.3358 131.02 68.2106C130.8 68.0612 130.536 67.9875 130.27 68.0006C129.982 67.9899 129.698 68.0628 129.45 68.2106C129.225 68.3515 129.039 68.5477 128.91 68.7806C128.775 69.0212 128.678 69.2808 128.62 69.5506C128.561 69.8199 128.531 70.0949 128.53 70.3706C128.528 70.6702 128.561 70.969 128.63 71.2606C128.694 71.5283 128.799 71.7846 128.94 72.0206C129.078 72.2354 129.263 72.4165 129.48 72.5506C129.722 72.6845 129.995 72.7502 130.27 72.7406C130.516 72.7464 130.758 72.6841 130.97 72.5606C131.176 72.4384 131.339 72.2572 131.44 72.0406C131.551 71.7816 131.605 71.5022 131.6 71.2206V71.0206H130.53V70.5006H132.19V71.0206C132.207 71.448 132.121 71.8731 131.94 72.2606C131.787 72.5692 131.547 72.8264 131.25 73.0006C130.939 73.1855 130.583 73.2823 130.22 73.2806H130.27ZM135.09 73.2806C134.757 73.2896 134.428 73.1953 134.15 73.0106C133.876 72.824 133.663 72.5593 133.54 72.2506C133.394 71.8956 133.323 71.5144 133.33 71.1306C133.318 70.7325 133.393 70.3366 133.55 69.9706C133.684 69.6735 133.899 69.4204 134.17 69.2406C134.423 69.0966 134.709 69.0208 135 69.0206C135.288 69.0198 135.571 69.0957 135.82 69.2406C136.082 69.3921 136.289 69.6234 136.41 69.9006C136.568 70.2595 136.643 70.649 136.63 71.0406C136.635 71.0939 136.635 71.1474 136.63 71.2006C136.635 71.2639 136.635 71.3274 136.63 71.3906H133.84C133.857 71.6481 133.914 71.9012 134.01 72.1406C134.098 72.3392 134.236 72.5115 134.41 72.6406C134.596 72.765 134.817 72.828 135.04 72.8206C135.208 72.8208 135.374 72.7903 135.53 72.7306C135.691 72.6675 135.838 72.5722 135.96 72.4506L136.29 72.8306C136.126 72.9801 135.937 73.0987 135.73 73.1806C135.496 73.2639 135.248 73.298 135 73.2806H135.09ZM133.9 70.8606H136.14C136.142 70.6229 136.105 70.3864 136.03 70.1606C135.958 69.967 135.837 69.795 135.68 69.6606C135.509 69.536 135.302 69.4726 135.09 69.4806C134.939 69.4783 134.788 69.5063 134.647 69.5629C134.506 69.6196 134.378 69.7038 134.27 69.8106C134.006 70.0968 133.856 70.4708 133.85 70.8606H133.9ZM139.45 73.2806C139.117 73.2896 138.788 73.1953 138.51 73.0106C138.236 72.824 138.023 72.5593 137.9 72.2506C137.754 71.8956 137.683 71.5144 137.69 71.1306C137.678 70.7325 137.753 70.3366 137.91 69.9706C138.044 69.6735 138.259 69.4204 138.53 69.2406C138.805 69.0667 139.125 68.9764 139.45 68.9806C139.738 68.9798 140.021 69.0557 140.27 69.2006C140.532 69.3521 140.739 69.5834 140.86 69.8606C140.998 70.2307 141.046 70.6283 141 71.0206C141.005 71.0739 141.005 71.1274 141 71.1806C141.005 71.2439 141.005 71.3074 141 71.3706H138.21C138.227 71.6281 138.284 71.8812 138.38 72.1206C138.468 72.3192 138.606 72.4915 138.78 72.6206C138.966 72.745 139.187 72.808 139.41 72.8006C139.578 72.8008 139.744 72.7703 139.9 72.7106C140.061 72.6475 140.208 72.5523 140.33 72.4306L140.66 72.8106C140.5 72.96 140.314 73.0786 140.11 73.1606C139.884 73.2458 139.642 73.2865 139.4 73.2806H139.45ZM138.26 70.8606H140.5C140.502 70.6229 140.465 70.3864 140.39 70.1606C140.322 69.965 140.201 69.792 140.04 69.6606C139.869 69.536 139.662 69.4726 139.45 69.4806C139.3 69.4773 139.15 69.5049 139.011 69.5617C138.872 69.6184 138.746 69.7032 138.64 69.8106C138.369 70.0931 138.215 70.4687 138.21 70.8606H138.26ZM142.26 73.1906V67.6506L142.82 67.3906V70.6606L144.29 69.0806H144.97L143.91 70.2006L145.45 73.2006H144.83L143.51 70.6206L142.82 71.3506V73.2006L142.26 73.1906ZM147.45 73.2806C147.18 73.2806 146.913 73.2191 146.67 73.1006C146.42 72.9931 146.2 72.8247 146.03 72.6106L146.44 72.2706C146.58 72.4225 146.746 72.5479 146.93 72.6406C147.094 72.7248 147.276 72.7693 147.46 72.7706C147.676 72.7845 147.89 72.7284 148.07 72.6106C148.139 72.5579 148.194 72.4895 148.23 72.4112C148.267 72.3329 148.284 72.247 148.28 72.1606C148.283 72.0428 148.248 71.9274 148.18 71.8306C148.098 71.7165 147.992 71.6211 147.87 71.5506C147.679 71.4515 147.482 71.3647 147.28 71.2906C146.939 71.1759 146.623 70.9959 146.35 70.7606C146.243 70.669 146.156 70.5556 146.096 70.4281C146.036 70.3005 146.003 70.1617 146 70.0206C145.996 69.8735 146.027 69.7274 146.092 69.5951C146.156 69.4627 146.252 69.3479 146.37 69.2606C146.655 69.0399 147.011 68.933 147.37 68.9606C147.622 68.9626 147.871 69.0171 148.1 69.1206C148.325 69.2163 148.524 69.3636 148.68 69.5506L148.29 69.8806C148.173 69.751 148.029 69.6475 147.869 69.5768C147.709 69.5062 147.535 69.47 147.36 69.4706C147.166 69.4597 146.973 69.5124 146.81 69.6206C146.746 69.6648 146.693 69.7247 146.658 69.7947C146.623 69.8647 146.607 69.9424 146.61 70.0206C146.609 70.0999 146.626 70.1785 146.661 70.2498C146.696 70.3211 146.747 70.3831 146.81 70.4306C147.046 70.5956 147.306 70.7237 147.58 70.8106C147.835 70.8977 148.078 71.0188 148.3 71.1706C148.465 71.2741 148.599 71.4189 148.69 71.5906C148.781 71.7557 148.826 71.9422 148.82 72.1306C148.829 72.2884 148.799 72.4458 148.735 72.5901C148.671 72.7344 148.573 72.8613 148.45 72.9606C148.139 73.1979 147.751 73.3118 147.36 73.2806H147.45Z" fill="#231F20"/>
<path d="M58.18 41.3409C57.2613 41.3424 56.3792 41.701 55.72 42.3409C55.3994 42.6627 55.1459 43.045 54.9742 43.4656C54.8026 43.8861 54.7162 44.3366 54.72 44.7909V54.5009H31.19C24.8918 54.5163 18.8369 52.0696 14.3175 47.6828C9.79816 43.2961 7.17219 37.3168 7.00001 31.0209C6.9154 25.1571 8.98694 19.4664 12.8213 15.0292C16.6557 10.592 21.9859 7.71732 27.8 6.95088C28.6443 6.85103 29.4231 6.44643 29.9902 5.81304C30.5573 5.17965 30.8737 4.36103 30.88 3.51088C30.8814 3.02256 30.7796 2.53945 30.5815 2.09314C30.3833 1.64683 30.0932 1.24737 29.73 0.920885C29.3661 0.583975 28.9339 0.329246 28.4629 0.173964C27.9919 0.0186819 27.493 -0.0335249 27 0.0208838C19.5408 0.952599 12.6793 4.57834 7.70669 10.2158C2.73409 15.8533 -0.00673171 23.1137 1.24165e-05 30.6309C-0.00130108 34.6778 0.794654 38.6852 2.34241 42.4244C3.89017 46.1636 6.15941 49.5613 9.02052 52.4233C11.8816 55.2853 15.2785 57.5557 19.0172 59.1047C22.7559 60.6536 26.7631 61.4509 30.81 61.4509H61.63V44.8109C61.63 43.894 61.2672 43.0145 60.6208 42.3643C59.9743 41.7141 59.0968 41.3462 58.18 41.3409Z" fill="#7162AB"/>
<path d="M29.4216 9.54957C23.93 9.88661 18.7864 12.3523 15.0845 16.4225C11.3825 20.4927 9.41408 25.8463 9.59772 31.3452C9.78137 36.844 12.1026 42.0544 16.0679 45.8685C20.0331 49.6826 25.3297 51.7997 30.8316 51.7696H52.0016V38.9296C51.9559 38.1131 51.5993 37.3451 51.0052 36.7833C50.411 36.2214 49.6243 35.9084 48.8066 35.9084C47.9888 35.9084 47.2021 36.2214 46.6079 36.7833C46.0138 37.3451 45.6572 38.1131 45.6116 38.9296V45.3896H31.0816C27.1882 45.4097 23.441 43.9081 20.6389 41.205C17.8368 38.5019 16.2015 34.8111 16.0816 30.9196C16.0179 27.3176 17.2746 23.8168 19.6147 21.0778C21.9548 18.3387 25.2164 16.5508 28.7842 16.0513C32.352 15.5518 35.9792 16.3753 38.9815 18.3664C41.9838 20.3575 44.1536 23.3786 45.0816 26.8596C45.3292 27.6464 45.872 28.3068 46.5961 28.702C47.3202 29.0972 48.1693 29.1965 48.965 28.9792C49.7608 28.7618 50.4414 28.2446 50.864 27.5361C51.2866 26.8277 51.4184 25.9831 51.2316 25.1796C49.9668 20.4528 47.1014 16.3111 43.1242 13.4608C39.1469 10.6105 34.3041 9.2282 29.4216 9.54957Z" fill="#7162AB"/>
<path d="M75.6097 39.7996C75.1863 40.2878 74.625 40.6365 73.9997 40.7996C72.9939 41.0711 71.9607 41.2288 70.9197 41.2696L72.5597 43.7996C73.5786 43.7349 74.586 43.5468 75.5597 43.2396C76.3311 42.9985 77.0339 42.5768 77.6097 42.0096C78.1529 41.4486 78.5481 40.7613 78.7597 40.0096C79.0233 39.0321 79.1445 38.0217 79.1197 37.0096V24.0096H76.0797V24.9196C75.7012 24.5147 75.2364 24.2002 74.7197 23.9996C74.1469 23.7878 73.5403 23.6827 72.9297 23.6896C71.8277 23.6586 70.7437 23.9733 69.8297 24.5896C68.9432 25.2373 68.2514 26.1159 67.8297 27.1296C67.3233 28.3555 67.078 29.6736 67.1097 30.9996C67.0702 32.3373 67.3086 33.6687 67.8097 34.9096C68.2174 35.9287 68.9122 36.8076 69.8097 37.4396C70.7201 38.0557 71.8009 38.3705 72.8997 38.3396C73.5019 38.3819 74.1055 38.2791 74.6597 38.0396C75.2135 37.8221 75.7096 37.4799 76.1097 37.0396V38.3496C76.1332 38.9077 75.9676 39.4574 75.6397 39.9096L75.6097 39.7996ZM74.8997 34.9296C74.4464 35.1905 73.9327 35.3284 73.4097 35.3296C72.7885 35.3506 72.1775 35.168 71.6697 34.8096C71.1599 34.4192 70.7715 33.8921 70.5497 33.2896C70.2628 32.5333 70.1269 31.7281 70.1497 30.9196C70.0694 29.763 70.3678 28.6117 70.9997 27.6396C71.2868 27.2692 71.6567 26.9713 72.0797 26.7696C72.5074 26.5696 72.9784 26.4802 73.4497 26.5096C73.9693 26.5125 74.4793 26.6503 74.9297 26.9096C75.3893 27.1434 75.7843 27.4869 76.0797 27.9096V33.7996C75.7781 34.2486 75.3735 34.6189 74.8997 34.8796V34.9296Z" fill="#231F20"/>
<path d="M84.1384 37.3309C85.1651 37.9625 86.3533 38.2822 87.5584 38.2509C88.5345 38.2634 89.5012 38.0584 90.3884 37.6509C91.1777 37.2813 91.8875 36.7616 92.4784 36.1209L90.6984 34.2409C90.3184 34.6909 89.8408 35.0482 89.3018 35.2856C88.7629 35.523 88.1768 35.6343 87.5884 35.6109C86.9992 35.6291 86.4169 35.48 85.909 35.1809C85.4011 34.8818 84.9883 34.445 84.7184 33.9209C84.4105 33.3324 84.2331 32.6843 84.1984 32.0209H93.4684C93.5128 31.6894 93.5362 31.3554 93.5384 31.0209V30.1809C93.5905 28.8836 93.3154 27.5941 92.7384 26.4309C92.2494 25.5036 91.4935 24.7442 90.5684 24.2509C89.5703 23.7569 88.4669 23.5133 87.3536 23.5412C86.2403 23.5691 85.1505 23.8676 84.1784 24.4109C83.1854 25.0349 82.4045 25.9448 81.9384 27.0209C81.3788 28.25 81.1085 29.5911 81.1484 30.9409C81.1171 32.2687 81.3801 33.5868 81.9184 34.8009C82.3901 35.8543 83.1624 36.7448 84.1384 37.3609V37.3309ZM85.2984 27.0809C85.9141 26.5336 86.7148 26.2405 87.5384 26.2609C88.0852 26.234 88.6277 26.371 89.0962 26.6543C89.5648 26.9375 89.9381 27.3542 90.1684 27.8509C90.4197 28.4009 90.5559 28.9964 90.5684 29.6009H84.2584C84.2452 28.6617 84.6048 27.7556 85.2584 27.0809H85.2984Z" fill="#231F20"/>
<path d="M104.608 37.6493C105.398 37.2796 106.107 36.76 106.698 36.1193L104.918 34.2393C104.519 34.6623 104.04 35.0022 103.508 35.2393C102.969 35.4594 102.391 35.5683 101.808 35.5593C101.219 35.5774 100.637 35.4283 100.129 35.1292C99.621 34.8302 99.2082 34.3933 98.9383 33.8693C98.6268 33.2964 98.449 32.6605 98.4183 32.0093H107.658C107.706 31.6779 107.733 31.3439 107.738 31.0093V30.1693C107.788 28.871 107.51 27.5812 106.928 26.4193C106.445 25.4877 105.688 24.7269 104.758 24.2393C103.761 23.7467 102.66 23.503 101.548 23.5293C100.434 23.5619 99.3439 23.8602 98.3683 24.3993C97.3791 25.0293 96.6022 25.9421 96.1383 27.0193C95.5809 28.2493 95.3075 29.5891 95.3383 30.9393C95.3122 32.2665 95.5749 33.5836 96.1083 34.7993C96.5826 35.8505 97.3499 36.7428 98.3183 37.3693C99.346 37.9987 100.533 38.3182 101.738 38.2893C102.729 38.3084 103.711 38.0997 104.608 37.6793V37.6493ZM99.4983 27.0793C100.112 26.5292 100.914 26.2357 101.738 26.2593C102.302 26.2368 102.859 26.383 103.338 26.6793C103.778 26.9635 104.126 27.3702 104.338 27.8493C104.59 28.3992 104.726 28.9947 104.738 29.5993H98.4283C98.4162 28.6602 98.7756 27.7545 99.4283 27.0793H99.4983Z" fill="#231F20"/>
<path d="M120.699 23.9097H117.049L112.939 28.1797V18.1797L109.879 19.6197V37.9097H112.939V31.6897L114.539 30.0797L118.609 37.9097H121.999L116.819 27.9097L120.699 23.9097Z" fill="#231F20"/>
<path d="M131.22 37.1389C131.673 36.7835 132.036 36.327 132.281 35.8061C132.526 35.2852 132.645 34.7143 132.63 34.1389C132.641 33.4671 132.483 32.8034 132.17 32.2089C131.812 31.6009 131.311 31.0895 130.71 30.7189C129.912 30.2261 129.056 29.8363 128.16 29.5589C127.34 29.3204 126.551 28.9847 125.81 28.5589C125.63 28.4506 125.476 28.3037 125.36 28.1289C125.252 27.9493 125.187 27.7475 125.17 27.5389C125.168 27.3483 125.22 27.1609 125.32 26.9989C125.414 26.8335 125.552 26.6982 125.72 26.6089C126.169 26.3597 126.677 26.2386 127.19 26.2589C127.744 26.2583 128.291 26.3706 128.8 26.5889C129.316 26.8229 129.776 27.1637 130.15 27.5889L132.15 25.8989C131.573 25.1598 130.839 24.5585 130 24.1389C129.13 23.7594 128.189 23.5685 127.24 23.5789C125.975 23.5096 124.724 23.8613 123.68 24.5789C123.257 24.9026 122.914 25.3203 122.68 25.7989C122.44 26.2796 122.319 26.8115 122.33 27.3489C122.319 27.8169 122.401 28.2824 122.57 28.7189C122.738 29.1527 122.993 29.5474 123.32 29.8789C124.29 30.7298 125.428 31.3669 126.66 31.7489C127.307 31.9776 127.938 32.2481 128.55 32.5589C128.934 32.7195 129.276 32.9658 129.55 33.2789C129.729 33.507 129.824 33.7892 129.82 34.0789C129.831 34.2989 129.779 34.5176 129.67 34.7089C129.569 34.9063 129.413 35.0697 129.22 35.1789C128.703 35.4716 128.113 35.6071 127.52 35.5689C126.907 35.559 126.305 35.4084 125.76 35.1289C125.133 34.861 124.558 34.4853 124.06 34.0189L122 35.7289C122.616 36.515 123.416 37.1367 124.33 37.5389C125.268 37.9833 126.292 38.2155 127.33 38.2189C128.699 38.3097 130.058 37.9285 131.18 37.1389H131.22Z" fill="#231F20"/>
<path d="M67.0703 61.5105H70.1403V41.7305L67.0703 43.1405V61.5105Z" fill="#231F20"/>
<path d="M81.9115 47.8877C80.9134 47.3936 79.8101 47.1501 78.6968 47.1779C77.5834 47.2058 76.4936 47.5043 75.5215 48.0477C74.5474 48.6511 73.772 49.5274 73.2915 50.5677C72.7717 51.7987 72.5039 53.1214 72.5039 54.4577C72.5039 55.7939 72.7717 57.1166 73.2915 58.3477C73.7557 59.4023 74.5211 60.2964 75.4915 60.9177C76.5223 61.5485 77.7134 61.868 78.9215 61.8377C79.8465 61.8569 80.7647 61.6765 81.6137 61.309C82.4627 60.9414 83.2226 60.3953 83.8415 59.7077L82.0015 57.8377C81.6007 58.2592 81.1219 58.5988 80.5915 58.8377C80.0543 59.0657 79.4751 59.1781 78.8915 59.1677C78.3024 59.1858 77.7201 59.0367 77.2122 58.7377C76.7042 58.4386 76.2914 58.0017 76.0215 57.4777C75.7191 56.9012 75.5419 56.2674 75.5015 55.6177H84.7515C84.7515 55.2877 84.8215 54.9577 84.8315 54.6177V53.7777C84.8801 52.4827 84.6015 51.1964 84.0215 50.0377C83.5448 49.1064 82.7992 48.34 81.8815 47.8377L81.9115 47.8877ZM75.5615 53.1677C75.5522 52.2262 75.911 51.3183 76.5615 50.6377C77.1829 50.0931 77.9855 49.8006 78.8115 49.8177C79.3737 49.805 79.9281 49.9505 80.4115 50.2377C80.8469 50.5274 81.1931 50.9325 81.4115 51.4077C81.664 51.9608 81.8001 52.5598 81.8115 53.1677H75.5615Z" fill="#231F20"/>
<path d="M92.4084 47.1792C91.4298 47.1785 90.4563 47.32 89.5184 47.5992C88.6006 47.86 87.7274 48.2578 86.9284 48.7792L87.8484 51.2392C88.5069 50.8121 89.22 50.4757 89.9684 50.2392C90.6387 49.9971 91.3457 49.8719 92.0584 49.8692C92.8067 49.8078 93.5495 50.041 94.1284 50.5192C94.3785 50.7807 94.5664 51.0952 94.6784 51.4392C94.7997 51.7821 94.8474 52.1467 94.8184 52.5092V53.4192C94.3255 53.1562 93.7965 52.9675 93.2484 52.8592C92.6435 52.7313 92.0267 52.6676 91.4084 52.6692C90.4316 52.6512 89.4626 52.8456 88.5684 53.2392C87.8 53.5835 87.1447 54.1382 86.6784 54.8392C86.2169 55.5681 85.9804 56.4168 85.9984 57.2792C85.9785 57.8982 86.0875 58.5146 86.3184 59.0892C86.5415 59.6633 86.8821 60.1845 87.3184 60.6192C88.3381 61.4902 89.6613 61.9217 90.9984 61.8192C91.724 61.8211 92.4434 61.6854 93.1184 61.4192C93.7702 61.1761 94.3632 60.7979 94.8584 60.3092V61.4892H97.8584V52.4092C97.9107 51.6985 97.818 50.9845 97.5859 50.3106C97.3538 49.6368 96.9873 49.0171 96.5084 48.4892C95.3686 47.5277 93.8945 47.0567 92.4084 47.1792ZM94.8184 57.7392C94.3974 58.203 93.8872 58.5771 93.3184 58.8392C92.7758 59.0889 92.1857 59.2185 91.5884 59.2192C90.9079 59.2693 90.2306 59.0859 89.6684 58.6992C89.448 58.5127 89.2706 58.2808 89.1484 58.0192C89.0369 57.7535 88.9824 57.4673 88.9884 57.1792C88.9949 56.889 89.0703 56.6045 89.2084 56.3492C89.3382 56.0895 89.5307 55.8661 89.7684 55.6992C90.4105 55.2961 91.1612 55.1006 91.9184 55.1392C92.4271 55.1475 92.9335 55.2112 93.4284 55.3292C93.912 55.4426 94.3791 55.6174 94.8184 55.8492V57.7392Z" fill="#231F20"/>
<path d="M105.001 47.6994C104.453 48.0396 104.021 48.5382 103.761 49.1294V47.4894H100.691V61.4894H103.761V53.7694C103.751 53.1126 103.87 52.4602 104.111 51.8494C104.322 51.348 104.669 50.9151 105.111 50.5994C105.559 50.3045 106.086 50.1543 106.621 50.1694C107.012 50.159 107.402 50.22 107.771 50.3494C108.134 50.4876 108.471 50.6834 108.771 50.9294L109.191 48.0994C108.626 47.5848 107.909 47.2676 107.148 47.1954C106.387 47.1233 105.623 47.3001 104.971 47.6994H105.001Z" fill="#231F20"/>
<path d="M117 47.1809C116.281 47.1691 115.568 47.3123 114.91 47.6009C114.289 47.8917 113.749 48.3314 113.34 48.8809V47.4909H110.27V61.4909H113.34V53.4909C113.267 52.5729 113.522 51.659 114.06 50.9109C114.335 50.6237 114.671 50.4012 115.042 50.2594C115.414 50.1176 115.813 50.0601 116.21 50.0909C116.589 50.0598 116.97 50.1216 117.32 50.2709C117.671 50.4201 117.98 50.6537 118.22 50.9509C118.719 51.7289 118.951 52.649 118.88 53.5709V61.5109H121.96V53.0209C122.071 51.4702 121.624 49.9307 120.7 48.6809C120.235 48.1696 119.661 47.7692 119.02 47.5096C118.38 47.25 117.689 47.1376 117 47.1809Z" fill="#231F20"/>
<path d="M126.329 41.8099C126.089 41.8027 125.85 41.8471 125.629 41.9399C125.406 42.0243 125.204 42.1575 125.039 42.3299C124.868 42.5055 124.732 42.7127 124.639 42.9399C124.459 43.3892 124.459 43.8907 124.639 44.3399C124.733 44.5582 124.865 44.758 125.029 44.9299C125.202 45.1001 125.406 45.2359 125.629 45.3299C125.848 45.4181 126.083 45.4623 126.319 45.4599C126.565 45.4707 126.81 45.4298 127.039 45.3399C127.263 45.247 127.467 45.1111 127.639 44.9399C127.813 44.7699 127.949 44.5655 128.039 44.3399C128.127 44.1172 128.171 43.8795 128.169 43.6399C128.171 43.3972 128.126 43.1564 128.039 42.9299C127.946 42.7057 127.81 42.5019 127.639 42.3299C127.465 42.1563 127.258 42.0202 127.029 41.9299C126.807 41.8414 126.568 41.8005 126.329 41.8099Z" fill="#231F20"/>
<path d="M127.879 47.5078H124.809V61.5078H127.879V47.5078Z" fill="#231F20"/>
<path d="M137.64 47.1789C136.918 47.1671 136.202 47.3104 135.54 47.5989C134.919 47.8897 134.38 48.3294 133.97 48.8789V47.4889H130.91V61.4889H134V53.4889C133.931 52.5696 134.19 51.6556 134.73 50.9089C135.006 50.6217 135.341 50.3992 135.713 50.2574C136.085 50.1156 136.483 50.058 136.88 50.0889C137.259 50.0578 137.64 50.1196 137.99 50.2689C138.34 50.4215 138.648 50.6545 138.89 50.9489C139.39 51.7269 139.622 52.647 139.55 53.5689V61.5089H142.63V53.0189C142.74 51.4684 142.293 49.9295 141.37 48.6789C140.902 48.1634 140.323 47.7606 139.677 47.5009C139.031 47.2411 138.335 47.131 137.64 47.1789Z" fill="#231F20"/>
<path d="M153.932 47.4878V48.3878C153.554 47.9802 153.084 47.6683 152.562 47.4778C151.995 47.2571 151.39 47.1485 150.782 47.1578C149.681 47.1314 148.598 47.4458 147.682 48.0578C146.791 48.7052 146.098 49.5883 145.682 50.6078C145.172 51.8295 144.924 53.1443 144.952 54.4678C144.921 55.8058 145.162 57.1361 145.662 58.3778C146.072 59.398 146.766 60.2794 147.662 60.9178C148.574 61.5308 149.654 61.8453 150.752 61.8178C151.355 61.8538 151.958 61.7507 152.514 61.5167C153.071 61.2826 153.566 60.9237 153.962 60.4678V61.7878C153.986 62.3506 153.817 62.9048 153.482 63.3578C153.067 63.8513 152.507 64.2013 151.882 64.3578C150.872 64.6245 149.836 64.7821 148.792 64.8278L150.442 67.3578C151.461 67.2931 152.468 67.105 153.442 66.7978C154.211 66.5565 154.913 66.1387 155.492 65.5778C156.036 64.9976 156.43 64.2941 156.642 63.5278C156.893 62.5787 157.011 61.5993 156.992 60.6178V47.4878H153.932ZM153.932 57.4078C153.627 57.8543 153.224 58.224 152.752 58.4878C152.301 58.7562 151.786 58.8979 151.262 58.8978C150.639 58.9181 150.027 58.7318 149.522 58.3678C149.01 57.9772 148.618 57.4505 148.392 56.8478C148.114 56.0892 147.978 55.2857 147.992 54.4778C147.923 53.3209 148.224 52.1721 148.852 51.1978C149.139 50.8274 149.509 50.5294 149.932 50.3278C150.387 50.1328 150.88 50.0449 151.374 50.0709C151.869 50.0969 152.35 50.2361 152.782 50.4778C153.242 50.7102 153.638 51.0539 153.932 51.4778V57.4078Z" fill="#231F20"/>
</svg>
