<svg width="157" height="68" viewBox="0 0 157 68" fill="none" xmlns="http://www.w3.org/2000/svg">
<path d="M58.1778 41.3242C57.7224 41.3236 57.2714 41.4127 56.8504 41.5865C56.4295 41.7602 56.047 42.0153 55.7247 42.3371C55.4025 42.6589 55.1468 43.041 54.9724 43.4617C54.798 43.8823 54.7082 44.3333 54.7082 44.7886V54.4963H31.1901C18.107 54.4963 7.14859 44.0874 6.94973 30.9834C6.86138 25.118 8.93179 19.4247 12.7672 14.9862C16.6027 10.5477 21.9356 7.6736 27.7518 6.91052C28.5961 6.80983 29.3746 6.40442 29.9412 5.77039C30.5078 5.13637 30.8235 4.31733 30.829 3.46706C30.8308 2.97837 30.729 2.49485 30.5301 2.04845C30.3312 1.60205 30.0399 1.20292 29.6754 0.877455C29.3108 0.551987 28.8813 0.307584 28.4153 0.160393C27.9493 0.0132018 27.4574 -0.0334286 26.9721 0.0235891C19.5215 0.960811 12.6695 4.58605 7.70305 10.2184C2.73657 15.8507 -0.00260869 23.1026 1.86425e-06 30.6118C1.74642e-06 38.7845 3.24622 46.6225 9.02467 52.4019C14.8031 58.1814 22.6406 61.4289 30.8133 61.4303H61.6265V44.7886C61.6265 43.8725 61.2637 42.9937 60.6174 42.3445C59.9711 41.6952 59.0939 41.3284 58.1778 41.3242Z" fill="#7162AB"/>
<path d="M29.4219 9.5259C23.9362 9.87108 18.8009 12.3401 15.1056 16.409C11.4103 20.478 9.44577 25.8267 9.62894 31.3201C9.8121 36.8136 12.1285 42.0196 16.0866 45.8333C20.0448 49.6471 25.3332 51.7686 30.8296 51.7476H51.9666V38.9105C51.9666 38.0638 51.6303 37.2519 51.0316 36.6532C50.433 36.0545 49.621 35.7182 48.7744 35.7182C47.9277 35.7182 47.1158 36.0545 46.5171 36.6532C45.9184 37.2519 45.5821 38.0638 45.5821 38.9105V45.3735H31.0756C23.0269 45.3735 16.2237 38.9733 16.0772 30.8984C16.0066 27.2906 17.2607 23.7821 19.6024 21.0366C21.944 18.2911 25.2107 16.499 28.7844 15.9994C32.3581 15.4999 35.991 16.3274 38.9958 18.3256C42.0005 20.3237 44.1687 23.3538 45.0902 26.8427C45.339 27.6288 45.8822 28.2881 46.6063 28.6826C47.3303 29.0772 48.1789 29.1762 48.9743 28.9591C49.7697 28.742 50.4503 28.2255 50.8735 27.5179C51.2966 26.8102 51.4296 25.9663 51.2445 25.1628C49.9776 20.4342 47.1101 16.2912 43.1309 13.4399C39.1516 10.5886 34.3067 9.20535 29.4219 9.5259Z" fill="#7162AB"/>
<path d="M75.6111 39.7817C75.1833 40.2532 74.6235 40.5851 74.0045 40.7341C72.9952 41.0007 71.9599 41.1568 70.9169 41.1999L72.5601 43.7327C73.5925 43.6698 74.6135 43.4818 75.6006 43.1728C76.371 42.9285 77.0735 42.5073 77.652 41.943C78.1982 41.3689 78.5922 40.6673 78.7981 39.902C79.0611 38.9373 79.1844 37.9398 79.1644 36.94V23.9197H76.082V24.8251C75.7015 24.4221 75.2345 24.1108 74.7162 23.9145C74.1471 23.6954 73.5414 23.5871 72.9316 23.5953C71.8309 23.5689 70.7488 23.8833 69.8336 24.4954C68.9295 25.1386 68.2227 26.0212 67.7926 27.044C67.2848 28.2688 67.037 29.5857 67.0652 30.9113C67.034 32.2471 67.2744 33.5752 67.7717 34.8153C68.1849 35.8362 68.8824 36.7171 69.7812 37.3534C70.6947 37.9651 71.775 38.2795 72.8741 38.2536C73.476 38.2894 74.0782 38.1868 74.6343 37.9536C75.1904 37.7205 75.6856 37.363 76.082 36.9086V38.2221C76.1015 38.7797 75.9359 39.328 75.6111 39.7817ZM74.9046 34.9095C74.4493 35.172 73.9334 35.3109 73.4079 35.3125C72.7872 35.3314 72.1773 35.1477 71.6704 34.7891C71.159 34.398 70.7689 33.87 70.5453 33.2663C70.2641 32.5101 70.1291 31.7074 70.1476 30.9009C70.0727 29.7439 70.3718 28.5936 71.0006 27.6196C71.2851 27.2451 71.6572 26.9462 72.0843 26.7491C72.5113 26.5521 72.9802 26.4628 73.4497 26.4893C73.9699 26.4938 74.48 26.6326 74.9307 26.8922C75.3982 27.1361 75.7948 27.4966 76.082 27.9389V33.8315C75.7778 34.2767 75.3748 34.6456 74.9046 34.9095Z" fill="#231F20"/>
<path d="M84.136 37.3052C85.1633 37.9378 86.3524 38.2578 87.5585 38.2263C88.5346 38.2436 89.5021 38.0415 90.3897 37.6349C91.1802 37.2642 91.8911 36.7434 92.483 36.1016L90.7037 34.2228C90.3084 34.6637 89.8277 35.0198 89.2907 35.2695C88.7518 35.4919 88.1728 35.6005 87.5899 35.5887C87.0012 35.6089 86.419 35.4612 85.9112 35.1628C85.4033 34.8644 84.9909 34.4277 84.7221 33.9036C84.4157 33.3274 84.2372 32.692 84.1988 32.0406H93.4668C93.5112 31.7161 93.5374 31.3894 93.5453 31.062C93.5453 30.7375 93.5453 30.4601 93.5453 30.2194C93.5921 28.9229 93.3152 27.6351 92.7394 26.4724C92.2507 25.5437 91.494 24.7834 90.5676 24.2902C89.5696 23.7957 88.4661 23.5521 87.3526 23.5803C86.2392 23.6086 85.1495 23.9079 84.1778 24.4524C83.2017 25.0535 82.4244 25.9291 81.9432 26.9696C81.3832 28.2004 81.1112 29.5427 81.1478 30.8945C81.1181 32.2193 81.3807 33.5344 81.9171 34.7462C82.3903 35.7979 83.1618 36.6877 84.136 37.3052ZM85.303 27.0585C85.9176 26.5092 86.7188 26.2153 87.5428 26.2369C88.1059 26.2179 88.6624 26.3634 89.1442 26.6556C89.5897 26.9404 89.9439 27.3473 90.1646 27.8278C90.4179 28.3783 90.5551 28.9751 90.5676 29.581H84.2563C84.2576 28.6348 84.634 27.7277 85.303 27.0585Z" fill="#231F20"/>
<path d="M104.606 37.6349C105.396 37.2642 106.107 36.7434 106.699 36.1016L104.92 34.2228C104.525 34.6637 104.044 35.0198 103.507 35.2695C102.968 35.4919 102.389 35.6005 101.806 35.5887C101.217 35.6089 100.635 35.4612 100.127 35.1628C99.6196 34.8644 99.2072 34.4277 98.9383 33.9036C98.6319 33.3274 98.4534 32.692 98.415 32.0406H107.662C107.706 31.7161 107.733 31.3894 107.741 31.062C107.741 30.7375 107.741 30.4601 107.741 30.2194C107.79 28.9226 107.513 27.6342 106.935 26.4724C106.446 25.5437 105.689 24.7834 104.763 24.2902C103.765 23.7957 102.661 23.5521 101.548 23.5803C100.435 23.6086 99.3448 23.9079 98.3731 24.4524C97.397 25.0535 96.6197 25.9291 96.1385 26.9696C95.5786 28.2004 95.3065 29.5427 95.3431 30.8945C95.3134 32.2193 95.576 33.5344 96.1124 34.7462C96.5797 35.7997 97.3457 36.6931 98.3156 37.3157C99.3445 37.949 100.536 38.269 101.743 38.2367C102.731 38.2557 103.71 38.0499 104.606 37.6349ZM99.4983 27.0585C100.113 26.5092 100.914 26.2153 101.738 26.2369C102.301 26.2179 102.858 26.3634 103.339 26.6556C103.785 26.9404 104.139 27.3473 104.36 27.8278C104.613 28.3783 104.75 28.9751 104.763 29.581H98.4464C98.449 28.634 98.8274 27.7268 99.4983 27.0585Z" fill="#231F20"/>
<path d="M120.697 23.8908H117.055L112.942 28.1558V18.1133L109.875 19.5524V37.8949H112.942V31.6726L114.543 30.0555L118.614 37.8949H121.959L116.778 27.8366L120.697 23.8908Z" fill="#231F20"/>
<path d="M131.222 37.1216C131.681 36.7638 132.048 36.3019 132.293 35.7741C132.538 35.2462 132.653 34.6677 132.63 34.0863C132.643 33.414 132.484 32.7494 132.169 32.1552C131.814 31.549 131.314 31.0402 130.715 30.6742C129.916 30.1811 129.058 29.7908 128.161 29.5125C127.337 29.262 126.548 28.9104 125.811 28.4658C125.628 28.3624 125.474 28.2149 125.362 28.0367C125.251 27.8584 125.186 27.6552 125.173 27.4453C125.172 27.2556 125.222 27.0693 125.319 26.9061C125.416 26.7429 125.555 26.6092 125.722 26.5191C126.168 26.2684 126.676 26.1487 127.187 26.1737C127.742 26.1694 128.292 26.2802 128.802 26.4991C129.311 26.718 129.77 27.0402 130.149 27.4453L132.19 25.7602C131.592 25.0589 130.844 24.4994 130.003 24.1222C129.134 23.7402 128.194 23.5475 127.245 23.557C125.973 23.4973 124.718 23.8659 123.681 24.6037C123.247 24.9209 122.895 25.3381 122.657 25.8201C122.418 26.302 122.299 26.8344 122.31 27.3721C122.296 27.8383 122.376 28.3027 122.546 28.7371C122.716 29.1715 122.972 29.567 123.299 29.8997C124.269 30.7515 125.409 31.3882 126.643 31.768C127.288 32.0015 127.919 32.2723 128.532 32.5791C128.899 32.7472 129.225 32.9916 129.49 33.2961C129.668 33.5247 129.764 33.8069 129.762 34.0968C129.769 34.3178 129.717 34.5367 129.612 34.7308C129.506 34.925 129.35 35.0873 129.16 35.201C128.644 35.4909 128.056 35.627 127.465 35.5935C126.849 35.584 126.244 35.4336 125.696 35.1539C125.086 34.8549 124.533 34.451 124.063 33.9607L122.012 35.7138C122.629 36.4982 123.428 37.1198 124.341 37.5245C125.286 37.9712 126.319 38.2035 127.365 38.2048C128.736 38.2881 130.095 37.9064 131.222 37.1216Z" fill="#231F20"/>
<path d="M67.0703 61.4886H70.137V41.707L67.0703 43.12V61.4886Z" fill="#231F20"/>
<path d="M81.9114 47.8722C80.9124 47.3777 79.808 47.1341 78.6938 47.1624C77.5795 47.1906 76.4889 47.49 75.5163 48.0344C74.5429 48.6373 73.7678 49.5125 73.287 50.5516C72.727 51.7825 72.455 53.1248 72.4915 54.4766C72.4624 55.803 72.725 57.1197 73.2608 58.3334C73.7282 59.3855 74.4943 60.2772 75.464 60.8977C76.4913 61.5303 77.6805 61.8503 78.8865 61.8188C79.8626 61.8361 80.8302 61.634 81.7177 61.2274C82.5082 60.8567 83.2191 60.3359 83.811 59.6941L82.0265 57.8153C81.6341 58.2572 81.1549 58.6135 80.6187 58.862C80.0802 59.0862 79.5012 59.1966 78.9179 59.1865C78.3293 59.2067 77.747 59.059 77.2392 58.7606C76.7314 58.4622 76.319 58.0254 76.0501 57.5014C75.745 56.9247 75.5666 56.2895 75.5268 55.6383H84.7792C84.8233 55.312 84.8495 54.9836 84.8577 54.6545C84.8577 54.3353 84.8577 54.0527 84.8577 53.8119C84.9063 52.5163 84.6273 51.2294 84.0465 50.0702C83.5716 49.1398 82.8276 48.3739 81.9114 47.8722ZM75.5582 53.1473C75.5595 52.2011 75.9359 51.294 76.6049 50.6249C77.2195 50.0756 78.0207 49.7817 78.8447 49.8033C79.4075 49.7866 79.9633 49.932 80.4461 50.2219C80.8916 50.5068 81.2458 50.9137 81.4665 51.3942C81.7198 51.9447 81.857 52.5415 81.8695 53.1473H75.5582Z" fill="#231F20"/>
<path d="M92.4084 47.1602C91.4305 47.1624 90.4579 47.3034 89.5197 47.5788C88.6006 47.8376 87.7268 48.2366 86.9292 48.7615L87.845 51.2159C88.5046 50.7759 89.2189 50.424 89.9697 50.1693C90.6418 49.929 91.3494 49.8034 92.063 49.7977C92.81 49.7388 93.5509 49.9713 94.1301 50.4466C94.3765 50.7132 94.5646 51.0282 94.6826 51.3714C94.8007 51.7147 94.846 52.0788 94.8157 52.4405V53.3458C94.3225 53.0848 93.7935 52.8979 93.2457 52.7911C92.6436 52.6634 92.0296 52.6002 91.4141 52.6027C90.4349 52.5828 89.4632 52.7775 88.5672 53.1731C87.7977 53.5158 87.1422 54.0715 86.678 54.7745C86.2178 55.5013 85.9829 56.348 86.0029 57.2079C85.9804 57.828 86.0879 58.4459 86.3187 59.0218C86.5494 59.5978 86.8982 60.119 87.3426 60.552C88.3381 61.4252 89.6367 61.8725 90.9588 61.7975C91.6837 61.8013 92.4028 61.6681 93.0783 61.405C93.7288 61.1557 94.3218 60.7764 94.8209 60.2903V61.4678H97.8091V52.3934C97.8091 50.6507 97.3538 49.3424 96.4589 48.4685C95.5641 47.5945 94.1982 47.1602 92.4084 47.1602ZM94.8209 57.7208C94.3997 58.1849 93.8888 58.5587 93.319 58.8198C92.7755 59.0694 92.1849 59.1997 91.5868 59.2018C90.9076 59.2487 90.2325 59.0642 89.6714 58.6785C89.4495 58.4933 89.2726 58.2599 89.1542 57.9962C89.0358 57.7324 88.979 57.4452 88.9881 57.1562C88.9972 56.8673 89.0719 56.5842 89.2066 56.3284C89.3413 56.0726 89.5325 55.8508 89.7656 55.6799C90.4079 55.2768 91.1594 55.083 91.9165 55.1251C92.426 55.1282 92.9334 55.1897 93.4289 55.3083C93.9138 55.4212 94.3818 55.5971 94.8209 55.8316V57.7208Z" fill="#231F20"/>
<path d="M104.991 47.6793C104.445 48.0227 104.014 48.5198 103.75 49.108V47.47H100.684V61.4689H103.75V53.7499C103.736 53.0926 103.856 52.4393 104.101 51.8293C104.306 51.3316 104.644 50.9005 105.08 50.5838C105.525 50.2861 106.051 50.1343 106.587 50.1494C106.978 50.1435 107.367 50.2037 107.738 50.3273C108.119 50.4598 108.473 50.6582 108.785 50.9135L109.209 48.0771C108.568 47.4681 107.711 47.1387 106.827 47.1612C106.178 47.1545 105.541 47.3343 104.991 47.6793Z" fill="#231F20"/>
<path d="M116.973 47.1606C116.254 47.1516 115.541 47.2942 114.88 47.5792C114.259 47.8675 113.719 48.3064 113.31 48.8561V47.4693H110.238V61.4682H113.31V53.4875C113.241 52.5718 113.494 51.6607 114.027 50.9128C114.302 50.6245 114.638 50.4009 115.01 50.2579C115.382 50.1149 115.781 50.0562 116.178 50.0859C116.558 50.0588 116.938 50.123 117.288 50.2733C117.637 50.4235 117.946 50.6554 118.188 50.9494C118.686 51.7271 118.919 52.645 118.852 53.566V61.5101H121.935V52.9799C121.935 51.075 121.511 49.6254 120.673 48.6416C119.836 47.6577 118.585 47.1606 116.973 47.1606Z" fill="#231F20"/>
<path d="M126.328 41.7903C126.088 41.7832 125.849 41.8261 125.627 41.9162C125.404 42.0063 125.203 42.1416 125.035 42.3137C124.865 42.4857 124.731 42.6901 124.641 42.9148C124.551 43.1395 124.507 43.38 124.512 43.622C124.512 43.8611 124.559 44.098 124.651 44.3189C124.742 44.5399 124.876 44.7406 125.045 44.9097C125.215 45.0788 125.415 45.213 125.636 45.3045C125.857 45.396 126.094 45.4431 126.333 45.4431C126.577 45.4495 126.819 45.4064 127.046 45.3165C127.273 45.2265 127.479 45.0916 127.652 44.9198C127.823 44.7506 127.958 44.5482 128.048 44.325C128.138 44.1018 128.181 43.8626 128.175 43.622C128.181 43.3791 128.137 43.1376 128.048 42.9118C127.958 42.6861 127.823 42.4809 127.652 42.3084C127.479 42.1357 127.272 42.0005 127.044 41.9114C126.816 41.8223 126.572 41.7811 126.328 41.7903Z" fill="#231F20"/>
<path d="M127.875 47.4883H124.809V61.4872H127.875V47.4883Z" fill="#231F20"/>
<path d="M137.636 47.1607C136.917 47.1504 136.203 47.2931 135.543 47.5793C134.922 47.8681 134.382 48.307 133.973 48.8562V47.4694H130.906V61.4683H133.973V53.4876C133.903 52.5711 134.158 51.6592 134.695 50.9129C134.97 50.6233 135.307 50.3989 135.68 50.2558C136.053 50.1128 136.453 50.0548 136.851 50.086C137.23 50.0589 137.61 50.1232 137.959 50.2734C138.307 50.4237 138.615 50.6556 138.856 50.9495C139.356 51.7261 139.589 52.6448 139.52 53.5661V61.5102H142.603V52.98C142.603 51.0751 142.184 49.6255 141.341 48.6417C140.499 47.6578 139.274 47.1607 137.636 47.1607Z" fill="#231F20"/>
<path d="M153.93 47.4677V48.3679C153.549 47.9649 153.082 47.6536 152.564 47.4573C151.995 47.2387 151.389 47.1304 150.779 47.138C149.678 47.1136 148.596 47.4298 147.681 48.0434C146.775 48.6841 146.068 49.5675 145.64 50.592C145.132 51.8148 144.884 53.1302 144.913 54.4541C144.881 55.7899 145.122 57.1181 145.619 58.3581C146.033 59.3789 146.73 60.2598 147.629 60.8962C148.541 61.511 149.622 61.8257 150.722 61.7963C151.324 61.8318 151.926 61.729 152.482 61.4959C153.038 61.2627 153.533 60.9055 153.93 60.4514V61.7701C153.953 62.3322 153.785 62.8856 153.454 63.3401C153.03 63.8144 152.471 64.1469 151.852 64.2926C150.843 64.5587 149.808 64.7149 148.765 64.7583L150.408 67.2912C151.441 67.2309 152.462 67.0428 153.448 66.7313C154.219 66.4908 154.922 66.0711 155.5 65.5067C156.045 64.9298 156.439 64.2268 156.646 63.4605C156.899 62.5119 157.017 61.5324 156.996 60.5508V47.4677H153.93ZM153.93 57.3847C153.626 57.8328 153.223 58.2051 152.752 58.4732C152.298 58.738 151.781 58.8771 151.256 58.8762C150.635 58.8959 150.025 58.7121 149.518 58.3528C149.008 57.9627 148.618 57.4368 148.393 56.8352C148.112 56.0771 147.977 55.2728 147.995 54.4646C147.918 53.3074 148.217 52.1562 148.848 51.1833C149.133 50.8088 149.505 50.5099 149.932 50.3128C150.359 50.1157 150.828 50.0265 151.297 50.053C151.817 50.0607 152.327 50.1993 152.778 50.4559C153.244 50.7027 153.64 51.0626 153.93 51.5025V57.3847Z" fill="#231F20"/>
</svg>
