<svg width="20" height="13" viewBox="0 0 20 13" fill="none" xmlns="http://www.w3.org/2000/svg">
<path d="M19.9995 7.24342H18.0088V9.2639H16.0044V7.22933H14.5902C14.398 7.22933 14.1441 7.27861 14.0343 7.17301C13.9244 7.06741 13.9999 6.81398 13.9999 6.61686C13.9999 6.20149 13.9999 5.77909 13.9999 5.35669C13.9999 5.20181 14.048 5.16661 14.1921 5.16661H16.0044V3.125H17.9951V5.15253H19.9995V7.24342Z" fill="white"/>
<path d="M10.1906 1.87225L8.81768 3.28016C8.45664 2.87693 8.01392 2.5596 7.52061 2.35043C7.0273 2.14127 6.49532 2.04533 5.96202 2.06936C5.06836 2.07829 4.20424 2.39852 3.51143 2.97747C2.81945 3.549 2.3326 4.34044 2.12764 5.22703C1.92267 6.11362 2.01122 7.04494 2.37936 7.87422C2.7475 8.70349 3.3743 9.38355 4.16093 9.8072C4.94755 10.2309 5.84925 10.374 6.72397 10.2141C8.26848 9.95366 9.76495 8.53871 9.90224 7.2012H6.03752V5.15972H11.9891C12.1197 6.15749 12.0166 7.17282 11.6883 8.12158C11.36 9.07034 10.816 9.92522 10.1013 10.6154C9.33365 11.3547 8.3895 11.8734 7.36408 12.1194C6.33866 12.3654 5.26812 12.33 4.26031 12.0167C3.2525 11.7033 2.34302 11.1232 1.62344 10.3346C0.903865 9.54608 0.399665 8.57701 0.16155 7.52501C-0.0243503 6.72296 -0.0501362 5.89064 0.0858827 5.07813C0.221902 4.26562 0.516891 3.48974 0.952995 2.7972C1.3891 2.10466 1.95735 1.50979 2.62354 1.04838C3.28972 0.586972 4.04003 0.268575 4.82936 0.112366C5.79519 -0.0824535 6.79346 -0.0232322 7.73094 0.284509C8.66841 0.592251 9.5146 1.13849 10.1906 1.87225Z" fill="white"/>
</svg>
