<svg width="15" height="21" viewBox="0 0 15 21" fill="none" xmlns="http://www.w3.org/2000/svg">
<path d="M7.68967 17.2091L7.73655 17.1248C7.74543 17.1089 7.75448 17.0924 7.76368 17.0757C7.7889 17.0297 7.81533 16.9816 7.84311 16.9354M7.68967 17.2091L7.35548 17.3269C7.30334 17.2548 7.25101 17.1836 7.19884 17.1128L7.25806 17.0791C7.25744 17.078 7.25683 17.077 7.25622 17.0759M7.68967 17.2091L7.77212 17.259M7.68967 17.2091L7.77212 17.259M7.84311 16.9354C7.84313 16.9354 7.84314 16.9354 7.84316 16.9353L7.90342 16.9716C7.96499 16.8878 8.02662 16.804 8.08826 16.7203C9.23453 14.801 10.3537 12.8682 11.3301 10.8539C11.7676 9.9491 12.1684 9.02915 12.4204 8.05296M7.84311 16.9354C9.04463 14.9287 10.2206 12.9136 11.2401 10.8103C11.6767 9.90735 12.0741 8.99448 12.3236 8.02797M7.84311 16.9354C7.84309 16.9355 7.84307 16.9355 7.84305 16.9355L7.90338 16.9716M12.4204 8.05296C13.1359 5.28014 11.4734 2.55383 8.67194 1.90051C5.97213 1.27099 3.22527 2.93619 2.55356 5.61545C2.32587 6.52188 2.39131 7.41965 2.66173 8.30931C3.06789 9.66138 3.67037 10.9253 4.34586 12.153C4.9833 13.3116 5.64127 14.4583 6.29941 15.6053C6.5454 16.0339 6.79142 16.4627 7.03639 16.8921C7.07889 16.9503 7.12175 17.0083 7.16477 17.0666C7.17563 17.0814 7.1865 17.0961 7.19738 17.1109L7.25399 17.0726C7.25474 17.0737 7.25548 17.0748 7.25622 17.0759M12.4204 8.05296L12.3236 8.02796C12.3236 8.02797 12.3236 8.02797 12.3236 8.02797M12.4204 8.05296L12.3236 8.02797M7.25622 17.0759C6.96702 16.5678 6.67627 16.0611 6.38566 15.5546C5.72772 14.408 5.07048 13.2626 4.43348 12.1048L4.347 12.1523L4.43348 12.1048C3.75969 10.8802 3.16083 9.62318 2.7575 8.28054L2.7574 8.28023C2.49127 7.40465 2.42805 6.52558 2.65055 5.63981L2.65056 5.63977C3.30888 3.01392 6.00211 1.38066 8.64923 1.9979C11.3966 2.63858 13.0249 5.31002 12.3236 8.02797M7.25622 17.0759C7.31521 17.1642 7.35501 17.2639 7.373 17.3685L7.19341 17.4441C7.13237 17.3597 7.06995 17.275 7.0072 17.19C6.86794 17.0012 6.72712 16.8104 6.5965 16.6148L6.59653 16.6149L6.67949 16.5591L6.59638 16.6146L12.3236 8.02797M12.3236 8.02797L7.90338 16.9716M7.90338 16.9716C7.86277 17.0269 7.82218 17.0823 7.78164 17.1377L7.82584 17.17C7.83469 17.1541 7.84346 17.1381 7.85225 17.1221C7.87717 17.0767 7.90215 17.0312 7.92885 16.9869L7.90338 16.9716ZM7.77212 17.259L7.81051 17.2823L7.88889 17.3297M7.77212 17.259L7.88889 17.3297M7.88889 17.3297L7.94301 17.2558M7.88889 17.3297L7.94301 17.2558M7.94301 17.2558C8.08647 17.0598 8.23076 16.8641 8.37516 16.6681M7.94301 17.2558L8.37516 16.6681M8.37516 16.6681C8.72527 16.193 9.07609 15.717 9.41766 15.2351M8.37516 16.6681L9.41766 15.2351M9.41766 15.2351L9.33608 15.1773L9.41766 15.2351ZM7.98946 17.0234C7.94737 17.0807 7.90531 17.138 7.86331 17.1954L7.9113 17.2221C7.92142 17.2039 7.93119 17.1861 7.9408 17.1686C7.96538 17.1239 7.98893 17.081 8.01453 17.0385L8.01464 17.0383C8.06702 16.9508 8.11935 16.8633 8.17164 16.7758C8.11089 16.8582 8.05018 16.9407 7.98956 17.0232C7.98953 17.0233 7.9895 17.0233 7.98946 17.0234ZM2.87255 10.5468C2.87256 10.5468 2.87257 10.5468 2.87257 10.5468L2.96104 10.5023L2.87255 10.5468Z" fill="white" stroke="white" stroke-width="0.2"/>
<path d="M9.36624 15.4617L9.39864 15.2654C10.5112 15.3312 11.6025 15.5011 12.6251 15.9719M9.36624 15.4617L6.54373 20.5893L6.55123 20.4896L6.54384 20.5893C8.34473 20.7248 10.1544 20.4959 11.8649 19.9164M9.36624 15.4617C9.38741 15.4675 9.40922 15.4736 9.43149 15.4799C9.48056 15.4938 9.53193 15.5083 9.5839 15.5212L9.5839 15.5212L9.58503 15.5215C10.4191 15.7183 11.2386 15.9351 11.9903 16.3242L11.9903 16.3242M9.36624 15.4617L11.9903 16.3242M12.6251 15.9719C12.6252 15.9719 12.6253 15.972 12.6255 15.9721L12.5836 16.0629L12.6246 15.9717C12.6248 15.9718 12.6249 15.9718 12.6251 15.9719ZM12.6251 15.9719C12.9339 16.1109 13.2227 16.2905 13.4839 16.506L13.4849 16.5069L13.4849 16.5069C13.8696 16.8328 14.0777 17.237 14.0983 17.6585C14.1189 18.0796 13.9517 18.5055 13.6099 18.8745M13.6099 18.8745L13.537 18.8069L13.6099 18.8745C13.6099 18.8745 13.6099 18.8745 13.6099 18.8745ZM13.6099 18.8745C13.1261 19.3969 12.5092 19.7002 11.8649 19.9164M11.8649 19.9164C11.865 19.9164 11.865 19.9164 11.865 19.9164L11.833 19.8218L11.8648 19.9165C11.8648 19.9164 11.8649 19.9164 11.8649 19.9164ZM11.9903 16.3242L11.9915 16.3248M11.9903 16.3242L11.9915 16.3248M11.9915 16.3248C12.3677 16.5134 12.7171 16.7511 13.0306 17.0319C13.2364 17.2227 13.3272 17.4314 13.3255 17.6358C13.3238 17.8418 13.228 18.0593 13.0293 18.2649M11.9915 16.3248L13.0293 18.2649M13.0293 18.2649C12.8831 18.4158 12.7223 18.5571 12.5499 18.6327L13.0293 18.2649ZM1.33329 18.8072L1.33342 18.8073L12.5499 18.6328C12.5146 18.6482 12.4793 18.6638 12.4441 18.6793C11.9859 18.8809 11.5317 19.0807 11.0609 19.2035C9.35138 19.649 7.5736 19.7705 5.81941 19.5617L5.81909 19.5617C4.80841 19.4447 3.81701 19.2634 2.8968 18.8427C2.55735 18.6875 2.24221 18.4838 1.96122 18.2381C1.78558 18.0834 1.70044 17.9177 1.68756 17.7524C1.67461 17.5862 1.73338 17.4046 1.87626 17.2167C2.0382 17.0062 2.23135 16.8216 2.44902 16.6695L2.44923 16.6693C3.12196 16.1965 3.89838 15.9465 4.69727 15.7195C4.91567 15.6589 5.13516 15.603 5.35571 15.5469C5.45679 15.5212 5.5581 15.4954 5.65963 15.4691L5.63133 15.2723C4.67832 15.3028 3.74293 15.4442 2.846 15.7872L2.84594 15.7873C2.24333 16.0182 1.69164 16.3416 1.27425 16.8734C1.02213 17.1934 0.891589 17.5232 0.900419 17.8552C0.909261 18.1877 1.05742 18.5073 1.33329 18.8072ZM2.81952 19.6589L2.78059 19.751C2.78062 19.751 2.78064 19.751 2.78067 19.751L2.81952 19.6589Z" fill="white" stroke="white" stroke-width="0.2"/>
<path d="M7.62304 4.41979L7.64042 4.22392C8.96904 4.09733 10.2194 5.14811 10.3991 6.49191C10.4563 6.91356 10.4208 7.34262 10.2949 7.7491C10.169 8.15564 9.95586 8.52978 9.67028 8.84533C9.38471 9.16088 9.03364 9.41023 8.64164 9.57593C8.24966 9.74162 7.82621 9.81968 7.40092 9.80464C7.40089 9.80464 7.40087 9.80464 7.40084 9.80464L7.40437 9.7047L7.62304 4.41979ZM7.62304 4.41979L7.79556 4.46792L7.79556 4.46793L7.79644 4.46816C8.36994 4.62253 8.84294 4.92067 9.19524 5.39698L9.19525 5.397M7.62304 4.41979L9.19525 5.397M9.19525 5.397C9.94117 6.40503 9.70971 7.80082 8.6918 8.48142C7.6974 9.14401 6.33179 8.83886 5.70394 7.8095C5.00739 6.66712 5.57852 5.08981 6.89325 4.57969L9.19525 5.397Z" fill="white" stroke="white" stroke-width="0.2"/>
</svg>
