<svg width="19" height="22" viewBox="0 0 19 22" fill="none" xmlns="http://www.w3.org/2000/svg">
<path d="M11.6924 2.36553L11.5452 3.99893C11.5224 4.25195 11.709 4.47552 11.9621 4.49832L13.3564 4.62399C13.6094 4.64679 13.833 4.4602 13.8558 4.20718L14.003 2.57378C14.0259 2.32076 13.8392 2.09707 13.5862 2.07427L12.1919 1.9486C11.9388 1.9258 11.7152 2.11251 11.6924 2.36553Z" fill="#E7E6E6"/>
<path d="M10.8704 1.3731V0.793144C10.8501 0.563913 10.7397 0.352034 10.5636 0.203971C10.3874 0.055909 10.1598 -0.0163123 9.9305 0.00310471L6.11043 0.343132C5.996 0.353166 5.88468 0.385741 5.78292 0.439018C5.68115 0.492294 5.59098 0.565235 5.51754 0.653556C5.44409 0.741877 5.38888 0.843829 5.35506 0.953605C5.32124 1.06338 5.30939 1.1788 5.32039 1.29314L5.38045 1.8731C5.40079 2.10233 5.51116 2.31421 5.68734 2.46227C5.86351 2.61033 6.09108 2.68256 6.32039 2.66314L6.94039 2.60314L7.0804 4.1831L9.39046 3.97314L9.25045 2.39312L10.1405 2.32311C10.3607 2.28845 10.5592 2.1706 10.695 1.99383C10.8309 1.81705 10.8937 1.59483 10.8704 1.3731Z" fill="#E7E6E6"/>
<path d="M9.82812 4.18359H9.07812V6.18359H9.82812V4.18359Z" fill="#E7E6E6"/>
<path d="M5.49859 7.63484L5.23859 7.89484L4.96859 8.16484L4.05859 7.24484L3.55859 6.74484L3.81859 6.48484L4.08859 6.21484L4.58859 6.71484L5.49859 7.63484Z" fill="#E7E6E6"/>
<path d="M3.46875 11.7148H1.46875V12.4648H3.46875V11.7148Z" fill="#E7E6E6"/>
<path d="M5.45 16.5652L4.52 17.4852L4.03 17.9752L3.77 17.7152L3.5 17.4452L4 16.9552L4.92 16.0352L5.18 16.2952L5.45 16.5652Z" fill="#E7E6E6"/>
<path d="M9.75 18.0625H9V20.0625H9.75V18.0625Z" fill="#E7E6E6"/>
<path d="M15.2703 17.502L15.0003 17.762L14.7303 18.032L14.2803 17.582L13.3203 16.612L13.5903 16.352L13.8503 16.082L14.8203 17.052L15.2703 17.502Z" fill="#E7E6E6"/>
<path d="M17.3516 11.7852H15.3516V12.5352H17.3516V11.7852Z" fill="#E7E6E6"/>
<path d="M15.3189 6.80344L14.8689 7.25344L13.9089 8.21344L13.6389 7.95344V7.94344L13.3789 7.68344L14.7889 6.27344L15.0489 6.53344L15.3189 6.80344Z" fill="#E7E6E6"/>
<path d="M13.78 3.71576C13.0659 3.34692 12.3059 3.07454 11.52 2.90576C10.8441 2.75249 10.1531 2.67536 9.45996 2.67578H9.23999C8.46154 2.69389 7.68855 2.81149 6.93994 3.02576C4.94546 3.57525 3.18641 4.76407 1.93274 6.40973C0.679072 8.0554 0.000123755 10.067 0 12.1357C0.00265033 14.643 1.00049 17.0466 2.77429 18.8185C4.5481 20.5905 6.95274 21.5858 9.45996 21.5858C11.9663 21.5858 14.37 20.5902 16.1422 18.8179C17.9144 17.0457 18.91 14.642 18.91 12.1357C18.9095 10.3968 18.4306 8.69143 17.5258 7.20636C16.621 5.72129 15.3251 4.51372 13.78 3.71576ZM14.78 17.0558C14.7065 17.1576 14.619 17.2485 14.52 17.3257C14.4368 17.4227 14.3429 17.51 14.24 17.5858C12.9917 18.7073 11.3873 19.3519 9.70996 19.4058C9.61357 19.416 9.51644 19.416 9.42004 19.4058H9.32996H8.95996C7.28843 19.3077 5.70376 18.6286 4.47998 17.4858C4.38508 17.4079 4.2949 17.3244 4.20996 17.2358C4.12143 17.1472 4.03796 17.0537 3.95996 16.9558C2.85576 15.7133 2.21621 14.1267 2.15002 12.4658C2.14009 12.356 2.14009 12.2455 2.15002 12.1357V12.0858C2.14009 11.9626 2.14009 11.8389 2.15002 11.7158C2.23658 10.0541 2.89757 8.47404 4.02002 7.24573C4.09771 7.14751 4.18119 7.05404 4.27002 6.96576C4.35599 6.87453 4.4497 6.79089 4.55005 6.71576C5.78551 5.59488 7.37356 4.94058 9.04004 4.86579C9.16316 4.85554 9.28691 4.85554 9.41003 4.86579C9.53315 4.85554 9.65691 4.85554 9.78003 4.86579C11.4547 4.93873 13.0508 5.59695 14.29 6.72577L14.5599 6.97577C14.6517 7.06423 14.7385 7.15767 14.8199 7.25574C15.9546 8.49926 16.6134 10.1037 16.6801 11.7858C16.69 11.9022 16.69 12.0193 16.6801 12.1357C16.6903 12.2589 16.6903 12.3826 16.6801 12.5057C16.6319 14.1883 15.9908 15.7999 14.87 17.0558H14.78Z" fill="white"/>
<path d="M15.3514 11.7733H16.7314C16.6648 10.0912 16.0061 8.48675 14.8715 7.24323L13.8715 8.24323L13.6014 7.98328L13.3414 7.72327L14.3414 6.72327C13.1022 5.59444 11.5061 4.93622 9.83142 4.86328V6.18323H9.08142V4.86328C7.41494 4.93807 5.82689 5.59237 4.59143 6.71326L5.50146 7.63324L5.24146 7.89325L4.97144 8.16327L4.0614 7.24323C2.93895 8.47153 2.27796 10.0516 2.19141 11.7133H3.47144V12.4633H2.19141C2.25759 14.1242 2.89726 15.7108 4.00146 16.9532L4.92151 16.0333L5.18152 16.2933L5.45142 16.5632L4.52148 17.4833C5.74526 18.6261 7.32994 19.3052 9.00146 19.4033V18.0632H9.75146V19.4033C11.4288 19.3494 13.0332 18.7048 14.2815 17.5833L13.2815 16.5833L13.5515 16.3232L13.8114 16.0533L14.8114 17.0533C15.9621 15.8196 16.6388 14.2183 16.7214 12.5333H15.3414L15.3514 11.7733ZM14.0415 11.9033L9.90149 14.1733C9.72078 14.2739 9.51816 14.3288 9.3114 14.3333C9.09194 14.3326 8.8771 14.2702 8.69141 14.1533C8.51399 14.0521 8.3657 13.9069 8.26062 13.7318C8.15554 13.5567 8.09722 13.3574 8.09143 13.1533V7.99323C8.09384 7.96361 8.1057 7.93557 8.12512 7.91309C8.14455 7.8906 8.17051 7.87485 8.19946 7.86816C8.22842 7.86148 8.25882 7.86422 8.28613 7.87592C8.31345 7.88761 8.3363 7.90766 8.35144 7.93323L9.80151 11.4432C9.82998 11.5151 9.87965 11.5766 9.94397 11.6195C10.0083 11.6624 10.0842 11.6846 10.1615 11.6832H13.9714C13.9934 11.6911 14.0132 11.7041 14.0293 11.721C14.0454 11.7379 14.0573 11.7584 14.0641 11.7807C14.0709 11.803 14.0724 11.8267 14.0685 11.8497C14.0645 11.8727 14.0553 11.8945 14.0415 11.9133V11.9033Z" fill="#7162AB"/>
<path d="M14.0399 11.9137L9.8999 14.1836C9.7192 14.2842 9.51657 14.3392 9.30981 14.3437C9.09036 14.343 8.87551 14.2806 8.68982 14.1637C8.5124 14.0625 8.36412 13.9174 8.25903 13.7422C8.15395 13.5671 8.09563 13.3678 8.08984 13.1637V8.00364C8.09225 7.97402 8.10411 7.94598 8.12354 7.9235C8.14296 7.90101 8.16892 7.88526 8.19788 7.87858C8.22683 7.87189 8.25723 7.87463 8.28455 7.88633C8.31186 7.89803 8.33471 7.91807 8.34985 7.94364L9.79993 11.4536C9.8284 11.5255 9.87806 11.587 9.94238 11.6299C10.0067 11.6728 10.0826 11.695 10.1599 11.6936H13.9698C13.9903 11.7019 14.0087 11.7146 14.0237 11.7307C14.0387 11.7469 14.0498 11.7662 14.0565 11.7872C14.0632 11.8082 14.0651 11.8304 14.0623 11.8523C14.0594 11.8741 14.0518 11.8951 14.0399 11.9137Z" fill="white"/>
</svg>
