<svg width="15" height="27" viewBox="0 0 15 27" fill="none" xmlns="http://www.w3.org/2000/svg">
<path d="M4.85652 26.6094C4.85652 26.4989 4.85652 26.3883 4.85652 26.2778V14.7657H0.976562V10.1608H4.85652V9.82929C4.85652 8.62282 4.85652 7.40714 4.85652 6.19146C4.86834 4.75161 5.3981 3.3672 6.34388 2.30496C7.09667 1.5115 8.07024 0.977387 9.13058 0.776144C9.99986 0.619144 10.8847 0.572752 11.765 0.638004C12.4819 0.638004 13.1897 0.730104 13.9066 0.785363C13.9662 0.780908 14.0261 0.780908 14.0857 0.785363V4.92051H13.826C12.9299 4.92051 12.0339 4.92051 11.1378 4.96656C10.9151 4.95452 10.6924 4.99089 10.4843 5.07331C10.2762 5.15573 10.0873 5.28233 9.93004 5.44485C9.77276 5.60738 9.65056 5.80217 9.57149 6.01651C9.49242 6.23085 9.45817 6.45993 9.47108 6.68877C9.42628 7.80315 9.47108 8.92673 9.47108 10.0411C9.46625 10.0654 9.46625 10.0905 9.47108 10.1148H13.8886L13.3062 14.7196H9.45325C9.45325 14.8209 9.45325 14.8946 9.45325 14.9683V26.4344C9.45325 26.4896 9.45325 26.5449 9.45325 26.6094H4.85652Z" fill="white"/>
</svg>
