<svg width="27" height="17" viewBox="0 0 27 17" fill="none" xmlns="http://www.w3.org/2000/svg">
<path d="M26.5977 10.1181H23.9622V12.7709H21.3084V10.0996H19.4362C19.1817 10.0996 18.8455 10.1643 18.7001 10.0257C18.5546 9.88703 18.6546 9.55429 18.6546 9.29548C18.6546 8.75015 18.6546 8.19556 18.6546 7.64097C18.6546 7.43763 18.7182 7.39142 18.9091 7.39142H21.3084V4.71094H23.944V7.37293H26.5977V10.1181Z" fill="white"/>
<path d="M13.609 3.0675L11.7914 4.91598C11.3134 4.38657 10.7272 3.96994 10.0741 3.69532C9.421 3.4207 8.71668 3.29474 8.01062 3.32629C6.82745 3.33802 5.6834 3.75845 4.76615 4.51857C3.85001 5.26895 3.20544 6.30805 2.93408 7.47207C2.66272 8.6361 2.77994 9.85886 3.26734 10.9476C3.75474 12.0364 4.5846 12.9293 5.62606 13.4855C6.66751 14.0417 7.86132 14.2297 9.0194 14.0198C11.0643 13.6778 13.0455 11.8201 13.2273 10.064H8.11057V7.3837H15.9901C16.1631 8.6937 16.0266 10.0268 15.592 11.2724C15.1573 12.5181 14.4371 13.6404 13.4909 14.5466C12.4745 15.5172 11.2245 16.1983 9.86688 16.5213C8.50927 16.8443 7.09193 16.7977 5.75763 16.3863C4.42334 15.975 3.21923 15.2133 2.26655 14.178C1.31386 13.1427 0.646324 11.8703 0.331072 10.4892C0.0849489 9.43612 0.0508096 8.34334 0.230892 7.27658C0.410975 6.20982 0.801527 5.19115 1.37891 4.28189C1.95629 3.37264 2.70863 2.59161 3.59062 1.98582C4.47262 1.38003 5.466 0.961994 6.51103 0.756903C7.78974 0.50112 9.1114 0.578873 10.3526 0.982914C11.5938 1.38696 12.7141 2.10412 13.609 3.0675Z" fill="white"/>
</svg>
