<svg width="22" height="23" viewBox="0 0 22 23" fill="none" xmlns="http://www.w3.org/2000/svg">
<path d="M0.445313 17.4627V5.66313C0.445313 5.5052 0.445264 5.34726 0.534003 5.20061C0.67348 4.26408 1.05517 3.38203 1.63986 2.6447C2.22456 1.90737 2.99128 1.34124 3.86174 1.00421C4.3651 0.833007 4.88055 0.701011 5.40361 0.609375H17.0063C17.4141 0.675648 17.8179 0.766053 18.2155 0.880117C19.3108 1.23172 20.2666 1.93059 20.9432 2.87444C21.6198 3.8183 21.9817 4.9576 21.9758 6.12564V17.0002C21.9911 18.1461 21.6408 19.2662 20.9775 20.1926C20.4678 20.9317 19.7851 21.5302 18.9911 21.9339C18.1971 22.3376 17.3168 22.5339 16.4296 22.5051H6.04693C5.67556 22.5144 5.30416 22.488 4.93768 22.4262C4.01397 22.2885 3.14336 21.9021 2.41588 21.307C1.6884 20.712 1.13054 19.93 0.800212 19.042C0.645481 18.5247 0.526926 17.997 0.445313 17.4627ZM11.2049 20.6664H16.4628C16.9031 20.667 17.3409 20.5985 17.7606 20.4634C18.4879 20.2197 19.1178 19.7427 19.5558 19.1041C19.9939 18.4654 20.2163 17.6994 20.1898 16.9212C20.1898 13.334 20.1898 9.75424 20.1898 6.18203C20.1975 5.89039 20.1715 5.59887 20.1122 5.31343C19.9484 4.48776 19.504 3.74706 18.857 3.22113C18.2101 2.69519 17.4018 2.41755 16.5738 2.43685C13.0131 2.43685 9.45243 2.43685 5.89175 2.43685C5.3636 2.42527 4.83988 2.53718 4.36098 2.76399C3.72242 3.0551 3.18265 3.53168 2.80964 4.13381C2.43662 4.73594 2.247 5.43675 2.26449 6.14819C2.26449 9.72416 2.26449 13.2888 2.26449 16.8648C2.26449 17.1017 2.26449 17.3499 2.26449 17.5868C2.39738 18.4009 2.7997 19.1445 3.40488 19.6943C4.01007 20.2441 4.78182 20.5672 5.59223 20.61C7.45577 20.7115 9.33032 20.7115 11.2049 20.7115V20.6664Z" fill="white"/>
<path d="M11.2453 6.04706C12.3098 6.05379 13.3484 6.38151 14.2297 6.98873C15.1109 7.59595 15.7952 8.45538 16.1959 9.45826C16.5967 10.4611 16.6959 11.5624 16.481 12.6226C16.266 13.6828 15.7465 14.6543 14.9884 15.4142C14.2302 16.1741 13.2676 16.6882 12.222 16.8915C11.1765 17.0947 10.095 16.978 9.11473 16.556C8.13444 16.134 7.29938 15.4258 6.71506 14.5209C6.13074 13.6161 5.82345 12.5553 5.83221 11.4728C5.83657 10.7549 5.98015 10.0449 6.25468 9.38347C6.52921 8.72203 6.92937 8.12216 7.43217 7.61818C7.93498 7.1142 8.53054 6.71601 9.18487 6.44642C9.8392 6.17683 10.5394 6.04112 11.2453 6.04706ZM11.2453 15.1615C11.954 15.1615 12.6466 14.9478 13.2358 14.5474C13.825 14.1471 14.2843 13.5781 14.5555 12.9123C14.8267 12.2465 14.8977 11.5139 14.7594 10.8072C14.6212 10.1004 14.2799 9.45117 13.7788 8.94161C13.2777 8.43206 12.6393 8.08506 11.9443 7.94447C11.2493 7.80389 10.5289 7.87604 9.87422 8.15181C9.21954 8.42758 8.65997 8.89458 8.26627 9.49375C7.87258 10.0929 7.6625 10.7974 7.6625 11.518C7.65516 11.9978 7.74143 12.4743 7.91625 12.9201C8.09107 13.3658 8.35097 13.7719 8.68102 14.1149C9.01107 14.4579 9.40472 14.7309 9.83915 14.9183C10.2736 15.1057 10.7401 15.2037 11.212 15.2066L11.2453 15.1615Z" fill="white"/>
<path d="M17.0492 6.99597C16.7842 6.99596 16.5252 6.91617 16.3047 6.76666C16.0842 6.61714 15.9121 6.40459 15.8102 6.15579C15.7083 5.907 15.6812 5.6331 15.732 5.36859C15.7829 5.10409 15.9097 4.86081 16.0963 4.66945C16.2829 4.47808 16.521 4.34719 16.7807 4.29325C17.0403 4.23931 17.3098 4.26473 17.5552 4.36633C17.8006 4.46793 18.011 4.64114 18.1598 4.86415C18.3086 5.08717 18.3892 5.34999 18.3914 5.61951C18.3928 5.79973 18.3593 5.97848 18.2925 6.14541C18.2257 6.31235 18.127 6.46418 18.0022 6.59214C17.8774 6.72011 17.7289 6.82168 17.5654 6.89099C17.4018 6.9603 17.2264 6.99598 17.0492 6.99597Z" fill="white"/>
</svg>
