<svg width="27" height="23" viewBox="0 0 27 23" fill="none" xmlns="http://www.w3.org/2000/svg">
<path d="M1.76925 8.34633C2.47968 8.74948 3.26673 8.9735 4.07025 9.00131C3.45991 8.55082 2.94605 7.96635 2.56276 7.28674C2.17946 6.60713 1.93551 5.84792 1.84714 5.05955C1.70455 3.85566 1.94331 2.63535 2.52517 1.59416C3.82299 3.30571 5.441 4.70707 7.27506 5.70798C9.10911 6.70889 11.1185 7.28715 13.1738 7.40554C13.1738 6.84584 13.1738 6.32186 13.1738 5.78597C13.2425 4.72437 13.5942 3.70618 14.1869 2.85223C14.7796 1.99829 15.5885 1.34445 16.5177 0.968328C17.4469 0.592206 18.4572 0.509595 19.4289 0.730287C20.4006 0.950979 21.2928 1.46571 21.9996 2.21339C22.088 2.28701 22.1996 2.32115 22.3109 2.30866C23.3143 2.07021 24.2776 1.6686 25.1675 1.1178L25.412 0.986808C25.0382 2.21707 24.2858 3.27505 23.2779 3.98778C24.2358 3.87679 25.1726 3.61182 26.0568 3.20181L26.1123 3.26135C25.6899 3.78533 25.2898 4.33314 24.8451 4.8333C24.4005 5.33346 24.0782 5.5478 23.7336 5.91697C23.6454 6.00886 23.5902 6.13117 23.5779 6.26233C23.659 8.94328 23.109 11.603 21.9785 13.9963C20.8479 16.3896 19.1732 18.4396 17.1088 19.9572C15.277 21.3328 13.1518 22.1928 10.9286 22.458C8.83061 22.7655 6.69587 22.6033 4.6594 21.9817C3.36987 21.5791 2.13897 20.9859 1.00235 20.2192L0.902344 20.1239C3.61023 20.4414 6.32748 19.6218 8.48308 17.8375C7.40612 17.7867 6.3686 17.3889 5.50596 16.6963C4.64332 16.0037 3.9957 15.0484 3.64785 13.9553C4.4137 14.0866 5.19639 14.0501 5.94871 13.8481C4.76702 13.5874 3.70573 12.8974 2.94417 11.8949C2.18261 10.8924 1.76751 9.63889 1.76925 8.34633Z" fill="white"/>
</svg>
