<svg width="1921" height="105" viewBox="0 0 1921 105" fill="none" xmlns="http://www.w3.org/2000/svg">
<mask id="mask0_393_481" style="mask-type:alpha" maskUnits="userSpaceOnUse" x="0" y="0" width="1921" height="105">
<rect width="1921" height="105" fill="white"/>
</mask>
<g mask="url(#mask0_393_481)">
<g filter="url(#filter0_d_393_481)">
<path d="M-6.3457 95.957L-2.34411 99.9783L1.64235 104L5.64394 99.9783L9.64558 95.957H1.64235H-6.3457Z" fill="white"/>
<path d="M9.64648 95.957L13.6329 99.9783L17.6345 104L21.6362 99.9783L25.6226 95.957H17.6345H9.64648Z" fill="white"/>
<path d="M25.6211 95.957L29.6227 99.9783L33.6091 104L37.6108 99.9783L41.6124 95.957H33.6091H25.6211Z" fill="white"/>
<path d="M41.6133 95.957L45.5997 99.9783L49.6013 104L53.5878 99.9783L57.5894 95.957H49.6013H41.6133Z" fill="white"/>
<path d="M57.5879 95.957L61.5895 99.9783L65.5759 104L69.5776 99.9783L73.5792 95.957H65.5759H57.5879Z" fill="white"/>
<path d="M73.5801 95.957L77.5665 99.9783L81.5682 104L85.5698 99.9783L89.5562 95.957H81.5682H73.5801Z" fill="white"/>
<path d="M89.5547 95.957L93.5563 99.9783L97.5427 104L101.544 99.9783L105.546 95.957H97.5427H89.5547Z" fill="white"/>
<path d="M105.549 95.957L109.535 99.9783L113.537 104L117.539 99.9783L121.525 95.957H113.537H105.549Z" fill="white"/>
<path d="M121.525 95.957L125.527 99.9783L129.513 104L133.515 99.9783L137.517 95.957H129.513H121.525Z" fill="white"/>
<path d="M137.516 95.957L141.502 99.9783L145.504 104L149.505 99.9783L153.492 95.957H145.504H137.516Z" fill="white"/>
<path d="M153.49 95.957L157.492 99.9783L161.478 104L165.48 99.9783L169.482 95.957H161.478H153.49Z" fill="white"/>
<path d="M169.482 95.957L173.469 99.9783L177.47 104L181.472 99.9783L185.459 95.957H177.47H169.482Z" fill="white"/>
<path d="M185.459 95.957L189.461 99.9783L193.462 104L197.449 99.9783L201.45 95.957H193.462H185.459Z" fill="white"/>
<path d="M201.449 95.957L205.436 99.9783L209.437 104L213.439 99.9783L217.425 95.957H209.437H201.449Z" fill="white"/>
<path d="M217.426 95.957L221.427 99.9783L225.414 104L229.415 99.9783L233.417 95.957H225.414H217.426Z" fill="white"/>
<path d="M233.418 95.957L237.404 99.9783L241.406 104L245.408 99.9783L249.394 95.957H241.406H233.418Z" fill="white"/>
<path d="M249.395 95.957L253.396 99.9783L257.398 104L261.384 99.9783L265.386 95.957H257.398H249.395Z" fill="white"/>
<path d="M265.383 95.957L269.369 99.9783L273.371 104L277.372 99.9783L281.359 95.957H273.371H265.383Z" fill="white"/>
<path d="M281.361 95.957L285.363 99.9783L289.365 104L293.351 99.9783L297.353 95.957H289.365H281.361Z" fill="white"/>
<path d="M297.352 95.957L301.338 99.9783L305.34 104L309.341 99.9783L313.328 95.957H305.34H297.352Z" fill="white"/>
<path d="M313.33 95.957L317.332 99.9783L321.333 104L325.32 99.9783L329.321 95.957H321.333H313.33Z" fill="white"/>
<path d="M329.32 95.957L333.307 99.9783L337.308 104L341.31 99.9783L345.296 95.957H337.308H329.32Z" fill="white"/>
<path d="M345.297 95.957L349.299 99.9783L353.3 104L357.287 99.9783L361.288 95.957H353.3H345.297Z" fill="white"/>
<path d="M361.287 95.957L365.289 99.9783L369.275 104L373.277 99.9783L377.263 95.957H369.275H361.287Z" fill="white"/>
<path d="M377.264 95.957L381.265 99.9783L385.267 104L389.253 99.9783L393.255 95.957H385.267H377.264Z" fill="white"/>
<path d="M393.254 95.957L397.24 99.9783L401.242 104L405.244 99.9783L409.23 95.957H401.242H393.254Z" fill="white"/>
<path d="M409.23 95.957L413.232 99.9783L417.234 104L421.22 99.9783L425.222 95.957H417.234H409.23Z" fill="white"/>
<path d="M425.223 95.957L429.209 99.9783L433.211 104L437.212 99.9783L441.199 95.957H433.211H425.223Z" fill="white"/>
<path d="M441.197 95.957L445.199 99.9783L449.201 104L453.187 99.9783L457.189 95.957H449.201H441.197Z" fill="white"/>
<path d="M457.189 95.957L461.191 99.9783L465.178 104L469.179 99.9783L473.166 95.957H465.178H457.189Z" fill="white"/>
<path d="M473.164 95.957L477.166 99.9783L481.167 104L485.154 99.9783L489.155 95.957H481.167H473.164Z" fill="white"/>
<path d="M489.158 95.957L493.16 99.9783L497.146 104L501.148 99.9783L505.149 95.957H497.146H489.158Z" fill="white"/>
<path d="M505.148 95.957L509.135 99.9783L513.137 104L517.123 99.9783L521.125 95.957H513.137H505.148Z" fill="white"/>
<path d="M521.123 95.957L525.125 99.9783L529.111 104L533.113 99.9783L537.114 95.957H529.111H521.123Z" fill="white"/>
<path d="M537.115 95.957L541.102 99.9783L545.103 104L549.09 99.9783L553.091 95.957H545.103H537.115Z" fill="white"/>
<path d="M553.09 95.957L557.091 99.9783L561.078 104L565.079 99.9783L569.066 95.957H561.078H553.09Z" fill="white"/>
<path d="M569.068 95.957L573.07 99.9783L577.072 104L581.058 99.9783L585.06 95.957H577.072H569.068Z" fill="white"/>
<path d="M585.061 95.957L589.062 99.9783L593.049 104L597.05 99.9783L601.037 95.957H593.049H585.061Z" fill="white"/>
<path d="M601.035 95.957L605.037 99.9783L609.038 104L613.025 99.9783L617.026 95.957H609.038H601.035Z" fill="white"/>
<path d="M617.027 95.957L621.029 99.9783L625.015 104L629.017 99.9783L633.019 95.957H625.015H617.027Z" fill="white"/>
<path d="M633.018 95.957L637.004 99.9783L641.006 104L644.992 99.9783L648.994 95.957H641.006H633.018Z" fill="white"/>
<path d="M648.994 95.957L652.996 99.9783L656.982 104L660.984 99.9783L664.985 95.957H656.982H648.994Z" fill="white"/>
<path d="M664.984 95.957L668.971 99.9783L672.972 104L676.974 99.9783L680.96 95.957H672.972H664.984Z" fill="white"/>
<path d="M680.959 95.957L684.961 99.9783L688.947 104L692.949 99.9783L696.95 95.957H688.947H680.959Z" fill="white"/>
<path d="M696.953 95.957L700.94 99.9783L704.941 104L708.943 99.9783L712.929 95.957H704.941H696.953Z" fill="white"/>
<path d="M712.93 95.957L716.931 99.9783L720.918 104L724.919 99.9783L728.921 95.957H720.918H712.93Z" fill="white"/>
<path d="M728.922 95.957L732.908 99.9783L736.91 104L740.896 99.9783L744.898 95.957H736.91H728.922Z" fill="white"/>
<path d="M744.896 95.957L748.898 99.9783L752.885 104L756.886 99.9783L760.888 95.957H752.885H744.896Z" fill="white"/>
<path d="M760.889 95.957L764.875 99.9783L768.877 104L772.878 99.9783L776.865 95.957H768.877H760.889Z" fill="white"/>
<path d="M776.863 95.957L780.865 99.9783L784.851 104L788.853 99.9783L792.855 95.957H784.851H776.863Z" fill="white"/>
<path d="M792.855 95.957L796.842 99.9783L800.844 104L804.845 99.9783L808.832 95.957H800.844H792.855Z" fill="white"/>
<path d="M808.83 95.957L812.832 99.9783L816.818 104L820.82 99.9783L824.821 95.957H816.818H808.83Z" fill="white"/>
<path d="M824.822 95.957L828.809 99.9783L832.81 104L836.812 99.9783L840.798 95.957H832.81H824.822Z" fill="white"/>
<path d="M840.801 95.957L844.802 99.9783L848.789 104L852.79 99.9783L856.792 95.957H848.789H840.801Z" fill="white"/>
<path d="M856.789 95.957L860.776 99.9783L864.777 104L868.779 99.9783L872.765 95.957H864.777H856.789Z" fill="white"/>
<path d="M872.768 95.957L876.769 99.9783L880.756 104L884.757 99.9783L888.759 95.957H880.756H872.768Z" fill="white"/>
<path d="M888.758 95.957L892.744 99.9783L896.746 104L900.747 99.9783L904.734 95.957H896.746H888.758Z" fill="white"/>
<path d="M904.734 95.957L908.736 99.9783L912.722 104L916.724 99.9783L920.726 95.957H912.722H904.734Z" fill="white"/>
<path d="M920.725 95.957L924.711 99.9783L928.713 104L932.714 99.9783L936.701 95.957H928.713H920.725Z" fill="white"/>
<path d="M936.701 95.957L940.703 99.9783L944.704 104L948.691 99.9783L952.692 95.957H944.704H936.701Z" fill="white"/>
<path d="M952.691 95.957L956.678 99.9783L960.68 104L964.681 99.9783L968.668 95.957H960.68H952.691Z" fill="white"/>
<path d="M968.668 95.957L972.67 99.9783L976.671 104L980.658 99.9783L984.659 95.957H976.671H968.668Z" fill="white"/>
<path d="M984.66 95.957L988.647 99.9783L992.648 104L996.65 99.9783L1000.64 95.957H992.648H984.66Z" fill="white"/>
<path d="M1000.64 95.957L1004.64 99.9783L1008.64 104L1012.63 99.9783L1016.63 95.957H1008.64H1000.64Z" fill="white"/>
<path d="M1016.63 95.957L1020.62 99.9783L1024.62 104L1028.62 99.9783L1032.61 95.957H1024.62H1016.63Z" fill="white"/>
<path d="M1032.6 95.957L1036.61 99.9783L1040.61 104L1044.59 99.9783L1048.59 95.957H1040.61H1032.6Z" fill="white"/>
<path d="M1048.6 95.957L1052.6 99.9783L1056.58 104L1060.59 99.9783L1064.57 95.957H1056.58H1048.6Z" fill="white"/>
<path d="M1064.57 95.957L1068.57 99.9783L1072.57 104L1076.56 99.9783L1080.56 95.957H1072.57H1064.57Z" fill="white"/>
<path d="M1080.56 95.957L1084.56 99.9783L1088.55 104L1092.55 99.9783L1096.54 95.957H1088.55H1080.56Z" fill="white"/>
<path d="M1096.54 95.957L1100.54 99.9783L1104.54 104L1108.53 99.9783L1112.53 95.957H1104.54H1096.54Z" fill="white"/>
<path d="M1112.53 95.957L1116.52 99.9783L1120.52 104L1124.52 99.9783L1128.51 95.957H1120.52H1112.53Z" fill="white"/>
<path d="M1128.51 95.957L1132.51 99.9783L1136.51 104L1140.5 99.9783L1144.5 95.957H1136.51H1128.51Z" fill="white"/>
<path d="M1144.5 95.957L1148.5 99.9783L1152.49 104L1156.49 99.9783L1160.47 95.957H1152.49H1144.5Z" fill="white"/>
<path d="M1160.47 95.957L1164.47 99.9783L1168.48 104L1172.46 99.9783L1176.46 95.957H1168.48H1160.47Z" fill="white"/>
<path d="M1176.46 95.957L1180.47 99.9783L1184.45 104L1188.45 99.9783L1192.44 95.957H1184.45H1176.46Z" fill="white"/>
<path d="M1192.44 95.957L1196.44 99.9783L1200.44 104L1204.43 99.9783L1208.43 95.957H1200.44H1192.44Z" fill="white"/>
<path d="M1208.43 95.957L1212.43 99.9783L1216.42 104L1220.42 99.9783L1224.41 95.957H1216.42H1208.43Z" fill="white"/>
<path d="M1224.41 95.957L1228.41 99.9783L1232.41 104L1236.4 99.9783L1240.4 95.957H1232.41H1224.41Z" fill="white"/>
<path d="M1240.4 95.957L1244.4 99.9783L1248.39 104L1252.39 99.9783L1256.37 95.957H1248.39H1240.4Z" fill="white"/>
<path d="M1256.38 95.957L1260.38 99.9783L1264.38 104L1268.36 99.9783L1272.37 95.957H1264.38H1256.38Z" fill="white"/>
<path d="M1272.37 95.957L1276.37 99.9783L1280.36 104L1284.36 99.9783L1288.36 95.957H1280.36H1272.37Z" fill="white"/>
<path d="M1288.36 95.957L1292.34 99.9783L1296.35 104L1300.33 99.9783L1304.33 95.957H1296.35H1288.36Z" fill="white"/>
<path d="M1304.33 95.957L1308.34 99.9783L1312.32 104L1316.32 99.9783L1320.31 95.957H1312.32H1304.33Z" fill="white"/>
<path d="M1320.31 95.957L1324.31 99.9783L1328.31 104L1332.3 99.9783L1336.3 95.957H1328.31H1320.31Z" fill="white"/>
<path d="M1336.3 95.957L1340.3 99.9783L1344.29 104L1348.29 99.9783L1352.29 95.957H1344.29H1336.3Z" fill="white"/>
<path d="M1352.29 95.957L1356.28 99.9783L1360.28 104L1364.27 99.9783L1368.27 95.957H1360.28H1352.29Z" fill="white"/>
<path d="M1368.27 95.957L1372.27 99.9783L1376.26 104L1380.26 99.9783L1384.26 95.957H1376.26H1368.27Z" fill="white"/>
<path d="M1384.26 95.957L1388.25 99.9783L1392.25 104L1396.23 99.9783L1400.24 95.957H1392.25H1384.26Z" fill="white"/>
<path d="M1400.24 95.957L1404.24 99.9783L1408.22 104L1412.23 99.9783L1416.23 95.957H1408.22H1400.24Z" fill="white"/>
<path d="M1416.23 95.957L1420.21 99.9783L1424.22 104L1428.22 99.9783L1432.2 95.957H1424.22H1416.23Z" fill="white"/>
<path d="M1432.21 95.957L1436.21 99.9783L1440.19 104L1444.19 99.9783L1448.2 95.957H1440.19H1432.21Z" fill="white"/>
<path d="M1448.2 95.957L1452.18 99.9783L1456.18 104L1460.17 99.9783L1464.17 95.957H1456.18H1448.2Z" fill="white"/>
<path d="M1464.17 95.957L1468.17 99.9783L1472.16 104L1476.16 99.9783L1480.16 95.957H1472.16H1464.17Z" fill="white"/>
<path d="M1480.16 95.957L1484.15 99.9783L1488.15 104L1492.15 99.9783L1496.14 95.957H1488.15H1480.16Z" fill="white"/>
<path d="M1496.14 95.957L1500.14 99.9783L1504.13 104L1508.13 99.9783L1512.13 95.957H1504.13H1496.14Z" fill="white"/>
<path d="M1512.13 95.957L1516.12 99.9783L1520.12 104L1524.12 99.9783L1528.11 95.957H1520.12H1512.13Z" fill="white"/>
<path d="M1528.11 95.957L1532.11 99.9783L1536.09 104L1540.1 99.9783L1544.1 95.957H1536.09H1528.11Z" fill="white"/>
<path d="M1544.1 95.957L1548.08 99.9783L1552.09 104L1556.09 99.9783L1560.07 95.957H1552.09H1544.1Z" fill="white"/>
<path d="M1560.07 95.957L1564.08 99.9783L1568.08 104L1572.06 99.9783L1576.07 95.957H1568.08H1560.07Z" fill="white"/>
<path d="M1576.07 95.957L1580.05 99.9783L1584.05 104L1588.06 99.9783L1592.04 95.957H1584.05H1576.07Z" fill="white"/>
<path d="M1592.04 95.957L1596.04 99.9783L1600.03 104L1604.03 99.9783L1608.03 95.957H1600.03H1592.04Z" fill="white"/>
<path d="M1608.03 95.957L1612.02 99.9783L1616.02 104L1620.02 99.9783L1624.01 95.957H1616.02H1608.03Z" fill="white"/>
<path d="M1624.01 95.957L1628.01 99.9783L1632.01 104L1636 99.9783L1640 95.957H1632.01H1624.01Z" fill="white"/>
<path d="M1640 95.957L1643.99 99.9783L1647.99 104L1651.99 99.9783L1655.98 95.957H1647.99H1640Z" fill="white"/>
<path d="M1655.98 95.957L1659.98 99.9783L1663.96 104L1667.97 99.9783L1671.97 95.957H1663.96H1655.98Z" fill="white"/>
<path d="M1671.97 95.957L1675.95 99.9783L1679.95 104L1683.96 99.9783L1687.94 95.957H1679.95H1671.97Z" fill="white"/>
<path d="M1687.95 95.957L1691.95 99.9783L1695.93 104L1699.94 99.9783L1703.94 95.957H1695.93H1687.95Z" fill="white"/>
<path d="M1703.94 95.957L1707.92 99.9783L1711.92 104L1715.93 99.9783L1719.91 95.957H1711.92H1703.94Z" fill="white"/>
<path d="M1719.91 95.957L1723.91 99.9783L1727.92 104L1731.9 99.9783L1735.9 95.957H1727.92H1719.91Z" fill="white"/>
<path d="M1735.9 95.957L1739.89 99.9783L1743.89 104L1747.89 99.9783L1751.88 95.957H1743.89H1735.9Z" fill="white"/>
<path d="M1751.88 95.957L1755.88 99.9783L1759.88 104L1763.87 99.9783L1767.87 95.957H1759.88H1751.88Z" fill="white"/>
<path d="M1767.87 95.957L1771.87 99.9783L1775.86 104L1779.86 99.9783L1783.85 95.957H1775.86H1767.87Z" fill="white"/>
<path d="M1783.85 95.957L1787.85 99.9783L1791.85 104L1795.84 99.9783L1799.84 95.957H1791.85H1783.85Z" fill="white"/>
<path d="M1799.84 95.957L1803.82 99.9783L1807.83 104L1811.83 99.9783L1815.81 95.957H1807.83H1799.84Z" fill="white"/>
<path d="M1815.81 95.957L1819.81 99.9783L1823.82 104L1827.8 99.9783L1831.8 95.957H1823.82H1815.81Z" fill="white"/>
<path d="M1831.8 95.957L1835.79 99.9783L1839.79 104L1843.79 99.9783L1847.78 95.957H1839.79H1831.8Z" fill="white"/>
<path d="M1847.78 95.957L1851.78 99.9783L1855.78 104L1859.77 99.9783L1863.77 95.957H1855.78H1847.78Z" fill="white"/>
<path d="M1863.77 95.957L1867.78 99.9783L1871.76 104L1875.76 99.9783L1879.75 95.957H1871.76H1863.77Z" fill="white"/>
<path d="M1879.75 95.957L1883.75 99.9783L1887.75 104L1891.74 99.9783L1895.74 95.957H1887.75H1879.75Z" fill="white"/>
<path d="M1895.74 95.957L1899.74 99.9783L1903.73 104L1907.73 99.9783L1911.72 95.957H1903.73H1895.74Z" fill="white"/>
<path d="M1911.72 95.957L1915.72 99.9783L1919.72 104L1923.71 99.9783L1927.71 95.957H1919.72H1911.72Z" fill="white"/>
</g>
</g>
<rect width="1921" height="96" fill="white"/>
<defs>
<filter id="filter0_d_393_481" x="-76.2891" y="73.957" width="2057.96" height="52.043" filterUnits="userSpaceOnUse" color-interpolation-filters="sRGB">
<feFlood flood-opacity="0" result="BackgroundImageFix"/>
<feColorMatrix in="SourceAlpha" type="matrix" values="0 0 0 0 0 0 0 0 0 0 0 0 0 0 0 0 0 0 127 0" result="hardAlpha"/>
<feOffset/>
<feGaussianBlur stdDeviation="11"/>
<feComposite in2="hardAlpha" operator="out"/>
<feColorMatrix type="matrix" values="0 0 0 0 0 0 0 0 0 0 0 0 0 0 0 0 0 0 0.1 0"/>
<feBlend mode="normal" in2="BackgroundImageFix" result="effect1_dropShadow_393_481"/>
<feBlend mode="normal" in="SourceGraphic" in2="effect1_dropShadow_393_481" result="shape"/>
</filter>
</defs>
</svg>
