<svg width="52" height="36" viewBox="0 0 52 36" fill="none" xmlns="http://www.w3.org/2000/svg">
<path d="M15.8404 17.9913L0.400346 33.3123C0.292253 33.0145 0.145459 32.6059 0 32.1987V3.80254L0.400346 2.6582L15.8404 17.9913Z" fill="url(#paint0_linear_83_57)"/>
<path d="M48.6255 0.308625C48.3973 0.563664 48.3053 0.674492 48.2052 0.775974C41.152 7.85386 34.105 14.9375 27.0642 22.027C26.8735 22.229 26.6436 22.3899 26.3885 22.4999C26.1335 22.6099 25.8587 22.6667 25.581 22.6667C25.3032 22.6667 25.0284 22.6099 24.7734 22.4999C24.5183 22.3899 24.2884 22.229 24.0976 22.027C17.0738 14.9197 10.0264 7.8365 2.95538 0.77731C2.86196 0.68384 2.75119 0.60773 2.64844 0.523607C2.64844 0.447496 2.66047 0.371382 2.66714 0.295271C3.29568 0.197795 3.92421 0.0202033 4.55409 0.0161974C8.86448 -0.00917294 13.1762 0.00284379 17.488 0.00284379C27.1603 0.00284379 36.8322 0.00685322 46.5037 0.0148649C47.1656 0.0255472 47.8262 0.195126 48.6255 0.308625Z" fill="url(#paint1_linear_83_57)"/>
<path d="M48.5959 35.6896C47.8606 35.8031 47.2334 35.9793 46.6048 35.9833C42.8923 36.01 39.1797 35.9967 35.4672 35.9967C25.213 35.9967 14.9583 35.9967 4.70326 35.9967C3.99599 35.9967 3.31806 35.9072 2.66016 35.5761L18.1175 20.2363C18.1282 20.247 18.2403 20.3378 18.3417 20.4406C19.5988 21.7025 20.8519 22.9697 22.113 24.2288C24.1441 26.2571 27.0079 26.2545 29.0523 24.2288C30.4121 22.8802 31.7747 21.5356 33.0638 20.2617L48.5959 35.6896Z" fill="url(#paint2_linear_83_57)"/>
<path d="M50.734 33.3411L35.2793 17.9974L50.73 2.66699C51.01 3.18563 51.1547 3.76664 51.1504 4.35612C51.1504 5.93843 51.1504 7.52208 51.1504 9.10439C51.1504 16.5348 51.1504 23.9679 51.1504 31.4036C51.1661 32.0732 51.0234 32.7371 50.734 33.3411Z" fill="url(#paint3_linear_83_57)"/>
<defs>
<linearGradient id="paint0_linear_83_57" x1="0.00266897" y1="17.9859" x2="15.8444" y2="17.9859" gradientUnits="userSpaceOnUse">
<stop offset="0.46" stop-color="#ED1C24"/>
<stop offset="1" stop-color="#ED1C24"/>
</linearGradient>
<linearGradient id="paint1_linear_83_57" x1="2.64844" y1="11.3354" x2="48.6255" y2="11.3354" gradientUnits="userSpaceOnUse">
<stop stop-color="#ED1C24"/>
<stop offset="1" stop-color="#ED1C24"/>
</linearGradient>
<linearGradient id="paint2_linear_83_57" x1="133365" y1="8854.21" x2="149177" y2="8854.21" gradientUnits="userSpaceOnUse">
<stop stop-color="#ED1C24"/>
<stop offset="1" stop-color="#ED1C24"/>
</linearGradient>
<linearGradient id="paint3_linear_83_57" x1="49995.8" y1="14868.6" x2="51884.3" y2="14868.6" gradientUnits="userSpaceOnUse">
<stop stop-color="#ED1C24"/>
<stop offset="1" stop-color="#ED1C24"/>
</linearGradient>
</defs>
</svg>
