<svg width="52" height="37" viewBox="0 0 52 37" fill="none" xmlns="http://www.w3.org/2000/svg">
<path d="M15.8404 17.9932L0.400346 33.3142C0.292253 33.0165 0.145459 32.6079 0 32.2006V3.80449L0.400346 2.66016L15.8404 17.9932Z" fill="#7162AB"/>
<path d="M48.6255 0.308625C48.3973 0.563664 48.3053 0.674492 48.2052 0.775974C41.152 7.85386 34.105 14.9375 27.0642 22.027C26.8735 22.229 26.6436 22.3899 26.3885 22.4999C26.1335 22.6099 25.8587 22.6667 25.581 22.6667C25.3032 22.6667 25.0284 22.6099 24.7734 22.4999C24.5183 22.3899 24.2884 22.229 24.0976 22.027C17.0738 14.9197 10.0264 7.8365 2.95538 0.77731C2.86196 0.68384 2.75119 0.60773 2.64844 0.523607C2.64844 0.447496 2.66047 0.371382 2.66714 0.295271C3.29568 0.197795 3.92421 0.0202033 4.55409 0.0161974C8.86448 -0.00917294 13.1762 0.00284379 17.488 0.00284379C27.1603 0.00284379 36.8322 0.00685322 46.5037 0.0148649C47.1656 0.0255472 47.8262 0.195126 48.6255 0.308625Z" fill="#7162AB"/>
<path d="M48.5959 35.6915C47.8606 35.805 47.2334 35.9813 46.6048 35.9853C42.8923 36.012 39.1797 35.9986 35.4672 35.9986C25.213 35.9986 14.9583 35.9986 4.70326 35.9986C3.99599 35.9986 3.31806 35.9092 2.66016 35.578L18.1175 20.2383C18.1282 20.249 18.2403 20.3398 18.3417 20.4426C19.5988 21.7044 20.8519 22.9716 22.113 24.2308C24.1441 26.2591 27.0079 26.2564 29.0523 24.2308C30.4121 22.8821 31.7747 21.5375 33.0638 20.2637L48.5959 35.6915Z" fill="#7162AB"/>
<path d="M50.732 33.3421L35.2773 17.9984L50.728 2.66797C51.0081 3.1866 51.1527 3.76762 51.1484 4.3571C51.1484 5.93941 51.1484 7.52306 51.1484 9.10537C51.1484 16.5358 51.1484 23.9688 51.1484 31.4046C51.1641 32.0742 51.0214 32.7381 50.732 33.3421Z" fill="#7162AB"/>
</svg>
