<svg width="50" height="52" viewBox="0 0 50 52" fill="none" xmlns="http://www.w3.org/2000/svg">
<path d="M10.1639 12.0248C9.8265 15.2252 9.4891 18.4371 9.14781 21.6838H0.00390625C0.0657242 17.9657 1.76056 12.9623 4.24358 9.78516L10.1639 12.0248Z" fill="#7162AB"/>
<path d="M46.3028 21.6837H37.1125C36.7738 18.464 36.4377 15.2572 36.0977 12.0246L42.0489 9.77344C44.5706 13.2971 45.9885 17.2671 46.3028 21.6837Z" fill="#7162AB"/>
<path d="M9.14623 24.8242C9.4888 28.0748 9.8275 31.2868 10.1636 34.4833L4.26133 36.7165C2.35141 34.9843 -0.190849 27.9409 0.0113473 24.8242H9.14623Z" fill="#7162AB"/>
<path d="M37.1098 24.8281H46.2537C46.1919 28.5488 44.4971 33.5509 42.0141 36.7268L36.0898 34.4846C36.4298 31.2842 36.7673 28.0723 37.1098 24.8281Z" fill="#7162AB"/>
<path d="M12.25 21.6764C12.5578 18.7027 12.8617 15.7651 13.1605 12.8828L21.5536 13.9389V21.6764H12.25Z" fill="#7162AB"/>
<path d="M33.8908 21.6947H24.7031V13.9326L32.9803 12.9023C33.5163 15.8044 33.8207 18.7444 33.8908 21.6947Z" fill="#7162AB"/>
<path d="M12.3633 24.8164H21.5484V32.5758L13.2738 33.6061C12.7382 30.7049 12.4337 27.7658 12.3633 24.8164Z" fill="#7162AB"/>
<path d="M34.008 24.8359C33.6989 27.8096 33.395 30.7473 33.0962 33.6295L24.7031 32.5735V24.8359H34.008Z" fill="#7162AB"/>
<path d="M21.5592 0.0898438C21.5592 3.63536 21.5592 7.13969 21.5592 10.6427C20.6795 10.8385 15.9247 10.2692 13.9414 9.72057C14.1397 8.95557 14.2943 8.17514 14.5454 7.42173C15.2357 5.36113 15.9621 3.31986 16.6897 1.276C16.7503 1.106 16.8971 0.883184 17.0478 0.840684C18.5175 0.416645 20.0314 0.164672 21.5592 0.0898438Z" fill="#7162AB"/>
<path d="M24.6953 10.7228V0C26.0102 0.221514 27.2801 0.450756 28.5589 0.643937C29.1964 0.740527 29.5545 1.03674 29.7541 1.68068C30.5564 4.25643 31.4129 6.81544 32.2461 9.38217C32.2749 9.49922 32.2964 9.61793 32.3105 9.73763C29.8093 10.3077 27.2593 10.6376 24.6953 10.7228Z" fill="#7162AB"/>
<path d="M21.5518 46.4204C20.0105 46.3401 18.483 46.0874 16.9979 45.667C16.9451 45.6453 16.8972 45.6133 16.8569 45.5728C16.8167 45.5324 16.7849 45.4843 16.7635 45.4314C15.616 42.6457 14.6424 39.8033 13.9727 36.8631C13.9734 36.8291 13.9786 36.7953 13.9881 36.7627C16.4729 36.1998 19.0055 35.8738 21.5518 35.7891V46.4204Z" fill="#7162AB"/>
<path d="M24.6953 46.5504V35.8611C25.468 35.6524 30.671 36.2874 32.3169 36.7948C32.1186 37.5598 31.9615 38.3403 31.7091 39.0962C31.0188 41.1568 30.2924 43.1981 29.5635 45.242C29.4991 45.4184 29.3162 45.6463 29.1514 45.6811C27.6999 45.9876 26.2408 46.2555 24.6953 46.5504Z" fill="#7162AB"/>
<path d="M39.982 7.27969L35.3753 8.98612C34.7107 6.78 34.0642 4.63955 33.3945 2.41797C35.8621 3.63372 38.0929 5.28011 39.982 7.27969Z" fill="#7162AB"/>
<path d="M10.8913 37.5586C11.552 39.748 12.1908 41.8652 12.8308 43.9838C11.6627 43.7893 7.52735 40.7821 6.34766 39.247C7.11137 38.9366 7.85574 38.6134 8.6143 38.3313C9.37285 38.0493 10.1276 37.8162 10.8913 37.5586Z" fill="#7162AB"/>
<path d="M12.8649 2.41797L10.8854 8.98612L6.28125 7.28485C8.16753 5.2824 10.3973 3.63407 12.8649 2.41797Z" fill="#7162AB"/>
<path d="M35.3766 37.5234L39.9794 39.2312C38.0914 41.2295 35.8614 42.8742 33.3945 44.0877L35.3766 37.5234Z" fill="#7162AB"/>
<path d="M30.6614 45.1683L30.7497 47.0484L32.2583 45.923L36.3905 42.8403C36.71 43.2436 37.0273 43.6443 37.3434 44.0433C38.7631 45.8354 40.1565 47.5944 41.5923 49.4142L42.2061 50.1923L42.9897 49.5855L46.4821 46.8805L47.2758 46.2658L46.658 45.4745C44.8861 43.205 43.2114 41.064 41.5091 38.8916L45.3637 35.8932L46.8963 34.701L45.0357 34.1456L31.286 30.0418L29.9344 29.6384L30.0011 31.0473C30.1328 33.8303 30.2595 36.5505 30.387 39.2896C30.4773 41.23 30.5681 43.1799 30.6614 45.1683Z" fill="#7162AB" stroke="white" stroke-width="2" stroke-miterlimit="10"/>
</svg>
