<svg width="36" height="53" viewBox="0 0 36 53" fill="none" xmlns="http://www.w3.org/2000/svg">
<path d="M19.3754 0C20.591 0.237273 21.829 0.396751 23.0183 0.724784C26.6744 1.73481 29.6731 3.75747 32.0529 6.65401C33.8775 8.85552 35.1146 11.4691 35.6523 14.2584C36.4732 18.4723 35.8437 22.4865 33.7305 26.2504C28.8804 34.8942 24.0231 43.5303 19.1589 52.1585C18.8949 52.6175 18.6046 53 18.0053 53C17.4061 53 17.1118 52.6175 16.8531 52.1585C11.9976 43.5216 7.13956 34.8864 2.27884 26.253C0.456069 23.0116 -0.320039 19.5173 0.120804 15.8415C0.796588 10.2053 3.59079 5.80476 8.45722 2.71762C10.8272 1.22283 13.5322 0.317662 16.3383 0.0803869C16.4394 0.0616355 16.5387 0.0347496 16.6353 0H19.3754ZM17.9869 8.85429C16.8051 8.8558 15.6353 9.08686 14.5447 9.53417C13.4542 9.98148 12.4645 10.6362 11.6326 11.4607C10.8006 12.2852 10.1428 13.2631 9.6971 14.3383C9.25137 15.4135 9.02648 16.5646 9.03535 17.7254C9.06439 22.5746 13.1521 26.5525 18.0515 26.5006C20.4386 26.4804 22.7198 25.5298 24.3935 23.8577C26.0671 22.1856 26.9963 19.929 26.9766 17.5841C26.937 12.7427 22.8969 8.81669 17.9869 8.84911V8.85429Z" fill="url(#paint0_linear_83_52)"/>
<defs>
<linearGradient id="paint0_linear_83_52" x1="0.000695094" y1="26.4942" x2="35.9994" y2="26.4942" gradientUnits="userSpaceOnUse">
<stop stop-color="#ED1C24"/>
<stop offset="1" stop-color="#ED1C24"/>
</linearGradient>
</defs>
</svg>
