<svg width="46" height="46" viewBox="0 0 46 46" fill="none" xmlns="http://www.w3.org/2000/svg">
<path d="M9.62741 0C10.4856 0.215358 11.328 0.468852 12.0199 1.05884C12.1458 1.1654 12.2783 1.26411 12.3951 1.37964C14.4417 3.42105 16.4871 5.46433 18.5315 7.50949C20.2051 9.19197 20.3994 11.6226 19.0156 13.3724C18.5647 13.9565 17.9553 14.3992 17.2599 14.6477C15.976 15.1053 14.9797 15.8815 14.4361 17.1658C14.0874 17.9679 14.0259 18.8655 14.262 19.7075C14.8854 22.0495 16.1715 24.0079 17.7441 25.8037C19.5952 27.918 21.7091 29.7127 24.2533 30.951C25.3193 31.4703 26.4156 31.9122 27.6512 31.7361C29.2136 31.5185 30.3773 30.7491 31.0894 29.319C31.4062 28.6807 31.6702 27.9797 32.1273 27.4548C33.6168 25.742 36.234 25.576 38.0042 27.0061C38.212 27.1777 38.4111 27.3597 38.6006 27.5512C40.5955 29.5399 42.559 31.56 44.5887 33.5117C46.5713 35.4185 46.3668 38.3909 44.5887 40.1755C43.2768 41.4912 41.9446 42.7856 40.6495 44.1181C39.4296 45.3732 37.9199 45.9127 36.2171 45.989C33.8358 46.0922 31.596 45.4562 29.4068 44.6105C27.1388 43.7143 24.9698 42.5858 22.9346 41.2433C16.9948 37.3926 11.9132 32.6065 7.56513 27.0364C5.21865 24.0326 3.19342 20.8235 1.71746 17.2948C0.861541 15.2455 0.213432 13.1447 0.069655 10.9014C0.0542748 10.7707 0.0310055 10.6411 0 10.5133V9.97376C0.0303279 9.75504 0.0718949 9.53632 0.0909902 9.31647C0.229151 7.76298 0.764933 6.40017 1.90616 5.28636C2.97774 4.24434 4.04596 3.19447 5.07935 2.11432C6.01166 1.14072 6.98889 0.26471 8.36712 0.00112104L9.62741 0Z" fill="#7162AB"/>
</svg>
