<svg width="36" height="36" viewBox="0 0 36 36" fill="none" xmlns="http://www.w3.org/2000/svg">
<path d="M7.5345 0C8.2061 0.168541 8.86541 0.366928 9.40692 0.82866C9.50537 0.912053 9.60911 0.989301 9.70053 1.07972C11.3022 2.67734 12.903 4.27643 14.5029 5.87699C15.8127 7.19371 15.9648 9.09595 14.8818 10.4653C14.5289 10.9225 14.052 11.2689 13.5078 11.4634C12.503 11.8216 11.7233 12.429 11.2978 13.4341C11.0249 14.0618 10.9768 14.7643 11.1615 15.4233C11.6494 17.2561 12.656 18.7888 13.8866 20.1942C15.3354 21.8489 16.9898 23.2534 18.9808 24.2225C19.8151 24.6289 20.6731 24.9748 21.64 24.837C22.8628 24.6667 23.7735 24.0645 24.3309 22.9453C24.5788 22.4458 24.7853 21.8972 25.1431 21.4863C26.3088 20.1459 28.357 20.016 29.7424 21.1352C29.9051 21.2695 30.0608 21.4119 30.2092 21.5618C31.7704 23.1182 33.307 24.6992 34.8955 26.2266C36.4471 27.7188 36.2871 30.0451 34.8955 31.4417C33.8688 32.4713 32.8262 33.4844 31.8126 34.5272C30.858 35.5095 29.6765 35.9317 28.3438 35.9914C26.4802 36.0722 24.7273 35.5744 23.014 34.9126C21.239 34.2112 19.5416 33.328 17.9488 32.2774C13.3003 29.2638 9.32341 25.5182 5.92054 21.1589C4.08416 18.8081 2.4992 16.2967 1.3441 13.5351C0.674249 11.9313 0.167033 10.2871 0.0545126 8.53151C0.0424759 8.42927 0.0242652 8.32784 0 8.22778V7.80555C0.0237349 7.63438 0.0562656 7.4632 0.0712097 7.29115C0.179335 6.07538 0.598643 5.00883 1.49178 4.13715C2.33041 3.32166 3.1664 2.50002 3.97515 1.65469C4.70477 0.89274 5.46957 0.207164 6.54818 0.000877335L7.5345 0Z" fill="url(#paint0_linear_83_64)"/>
<defs>
<linearGradient id="paint0_linear_83_64" x1="0" y1="17.9996" x2="36.0023" y2="17.9996" gradientUnits="userSpaceOnUse">
<stop stop-color="#ED1C24"/>
<stop offset="1" stop-color="#ED1C24"/>
</linearGradient>
</defs>
</svg>
