<svg width="50" height="56" viewBox="0 0 50 56" fill="none" xmlns="http://www.w3.org/2000/svg">
<path d="M25.9781 48.5541H22.5542C22.0112 48.4808 21.4634 48.4221 20.9205 48.3438C15.8491 47.6267 11.1333 45.3277 7.44467 41.7743C3.75602 38.221 1.28261 33.5943 0.376646 28.5533C0.220122 27.7022 0.122285 26.8413 0 25.9853V22.5613C0.0929363 21.8961 0.180985 21.2211 0.278812 20.5558C0.914482 15.9963 2.91069 11.7345 6.00662 8.32739C12.5122 1.20553 20.5781 -1.40647 29.9744 0.716389C35.8494 2.10102 40.9927 5.63603 44.3906 10.6247C47.7886 15.6134 49.1946 21.6939 48.3318 27.6679C47.7344 32.222 45.8143 36.5009 42.8094 39.9746C39.1829 44.3197 34.1287 47.2326 28.551 48.1922C27.695 48.3096 26.8341 48.427 25.9781 48.5541ZM11.304 25.726H2.9006C3.14662 29.6367 4.47612 33.4016 6.74033 36.5996L12.3899 34.3593C12.0279 31.5077 11.666 28.6413 11.2942 25.726H11.304ZM12.3997 14.2068L6.755 11.9617C4.4862 15.1558 3.15464 18.9201 2.91038 22.8303H11.304L12.3997 14.2068ZM36.162 14.2068C36.524 17.0536 36.8892 19.9265 37.2577 22.8254H45.6513C45.4037 18.9181 44.0743 15.1567 41.8116 11.9617L36.162 14.2068ZM41.7773 36.5702C43.6898 34.4278 45.9986 27.844 45.5584 25.7163H37.243C36.8713 28.625 36.506 31.4995 36.1473 34.3398L41.7773 36.5702ZM15.3051 14.9259C14.7184 17.5136 14.3907 20.1533 14.3269 22.8059H22.8379V15.7867L15.3051 14.9259ZM34.2495 22.8254C34.164 20.2838 33.8529 17.7549 33.3201 15.2683C33.2321 14.8721 33.0902 14.8476 32.7478 14.8965C31.1239 15.1264 29.4999 15.3465 27.8564 15.5373C27.1423 15.6253 26.4184 15.64 25.7091 15.6889V22.8254H34.2495ZM22.8428 32.8626V25.7358H14.2975C14.3828 28.2416 14.6822 30.7355 15.1926 33.1903C15.2905 33.6501 15.4568 33.6794 15.8872 33.6354C17.4622 33.3957 19.0422 33.1952 20.6221 33.0093C21.3411 32.9262 22.0699 32.9115 22.8428 32.8626ZM25.7385 32.8626C25.8071 32.8825 25.8776 32.8956 25.9488 32.9017C28.285 32.9691 30.6116 33.2309 32.9044 33.6843C33.1489 33.7332 33.2761 33.6843 33.3201 33.3957C33.5891 31.5712 33.8924 29.7516 34.1419 27.9223C34.2397 27.213 34.2299 26.4842 34.2739 25.7407H25.714L25.7385 32.8626ZM22.8428 3.14741C20.2748 3.86155 16.484 8.94859 16.1905 12.084C18.3835 12.5133 20.6088 12.7571 22.8428 12.8128V3.14741ZM32.469 12.1671C31.863 10.2707 31.0112 8.46178 29.9353 6.7866C29.1804 5.57711 28.1807 4.53906 27.0004 3.73926C26.6091 3.4898 26.1787 3.30883 25.7287 3.06915V12.9057L32.469 12.1671ZM22.8232 45.4285V35.7387C20.5689 35.8031 18.324 36.0567 16.1122 36.4969C16.3225 37.0545 16.4937 37.5632 16.6943 38.0572C17.4337 40.0233 18.5224 41.8395 19.9079 43.4182C20.7014 44.3269 21.7106 45.0216 22.8428 45.4383L22.8232 45.4285ZM25.7238 35.6458V45.5068C29.5831 43.6383 31.0505 40.1263 32.4984 36.3893L25.7238 35.6458ZM39.9626 9.66762C37.67 7.20596 34.8176 5.33344 31.6473 4.20884C33.2179 6.4266 34.4295 8.87786 35.2375 11.4725L39.9626 9.66762ZM39.9626 38.879L35.2669 37.0838C34.4463 39.6804 33.225 42.1329 31.6473 44.3524C34.8175 43.2228 37.6695 41.3472 39.9626 38.8839V38.879ZM8.61863 38.879C10.8895 41.3322 13.7016 43.2215 16.8313 44.3965C16.1562 43.2274 15.4274 42.1024 14.8356 40.9089C14.2437 39.7154 13.7839 38.4632 13.2263 37.1327L8.61863 38.879ZM16.8997 4.19906C13.7346 5.32752 10.8887 7.20354 8.60396 9.66762L13.2997 11.4677C14.1049 8.87515 15.3132 6.42556 16.8802 4.20884L16.8997 4.19906Z" fill="#ED1C24"/>
<path d="M31.4427 49.3734L31.5309 51.2535L33.0395 50.128L37.1717 47.0453C37.4912 47.4487 37.8086 47.8494 38.1247 48.2484C39.5443 50.0405 40.9377 51.7994 42.3735 53.6193L42.9874 54.3974L43.7709 53.7905L47.2634 51.0856L48.0571 50.4709L47.4393 49.6796C45.6673 47.4101 43.9927 45.2691 42.2903 43.0967L46.1449 40.0983L47.6775 38.9061L45.8169 38.3507L32.0673 34.2468L30.7157 33.8434L30.7824 35.2524C30.9141 38.0354 31.0407 40.7556 31.1682 43.4946C31.2586 45.4351 31.3494 47.385 31.4427 49.3734Z" fill="#ED1C24" stroke="white" stroke-width="2" stroke-miterlimit="10"/>
</svg>
